/* XPM */
static char * sante_dead_R_xpm[] = {
"80 80 9 1",
" 	c #F2EDF1",
".	c #9FD2E5",
"+	c #2F2F2E",
"@	c #9E293B",
"#	c #741A33",
"$	c #F1F0FD",
"%	c #D4D3DE",
"&	c #E59363",
"*	c #FFD19C",
"                                                                                ",
"                                                                                ",
"                                                                                ",
"                                                                                ",
"                                                                                ",
"               .....               .....                                        ",
"               .....               .....                                        ",
"               .....               .....                                        ",
"               .....               .....                                        ",
"               .....               .....                                        ",
"                    ...............                                             ",
"                    ...............                                             ",
"                    ...............                                             ",
"                    ...............                                             ",
"                    ...............                                             ",
"                                                                                ",
"                                                                                ",
"                                                                                ",
"                                                                                ",
"                                                                                ",
"                                                                                ",
"                                                                                ",
"                                                                                ",
"                                                                                ",
"                                                                                ",
"                                                                                ",
"                                                                                ",
"                                                                                ",
"                                                                                ",
"                                           +++++++++++++++                      ",
"                                           +++++++++++++++  .....               ",
"                                    +++++++@@@@@@@@@@@@@##+++....               ",
"                                    +++++++@@@@@@@@@@@@@##+++....               ",
"                                    +++++++@@@@@@@@@@@@@##+++....               ",
"                                 +++##@@@@@@@@@@@@@@@@@@@@###++..               ",
"                                 +++##@@@@@@@@@@@@@@@@@@@@###++                 ",
"                               ++#####@@@@@@@@@@@@@@@@@@@@@@@++                 ",
"                               ++#####@@@@@@@@@@@@@@@@@@@@@@@++                 ",
"                               ++#####@@@@@@@@@@@@@@@@@@@@@@@++                 ",
"                               ++########@@@@@#####@@@@@@@@@@##+++              ",
"          .....          ..... ++########@@@@@#####@@@@@@@@@@##+++              ",
"          .....          .++++++++++++########@@@@@@@@@@@@@@@@@+++              ",
"          .....          .++++++++++++########@@@@@@@@@@@@@@@@@+++              ",
"          .....          .++++++++++++########@@@@@@@@@@@@@@@@@+++              ",
"          .....        +++############+++#####$$$$$$$$$$$$$$$$$$$$++            ",
"               ........+++############+++#####$$$$$$$$$$$$$$$$$$$$++            ",
"               ......++##################$$$$$%%%%%%%%%%%%%%%%%%%%++            ",
"               ......++##################$$$$$%%%%%%%%%%%%%%%%%%%%++            ",
"               ......++##################$$$$$%%%%%%%%%%%%%%%%%%%%++            ",
"               .+++++#######+++#######+++%%%%%&&&&&&&&&&*******+++++            ",
"                +++++#######+++#######+++%%%%%&&&&&&&&&&*******+++++            ",
"           +++++++#############++#####+++%%%%%&&&&&&&%%%$$$$$$$***++            ",
"           +++++++#############++#####+++%%%%%&&&&&&&%%%$$$$$$$***++            ",
"           +++++++#############++#####+++%%%%%&&&&&&&%%%$$$$$$$***++            ",
"        +++%%###++########@@#####+++++@@@++%%%%%&&&%%$$$$$%%%$$$$$+++++++       ",
"        +++%%###++########@@#####+++++@@@++%%%%%&&&%%$$$$$%%%$$$$$+++++++       ",
"        +++%%#####+++##@@@@@@@@##$$$$$+++@@+++%%%%%$$%%%%%+++%%%%%++$$$$$+++    ",
"        +++%%#####+++##@@@@@@@@##$$$$$+++@@+++%%%%%$$%%%%%+++%%%%%++$$$$$+++    ",
"        +++%%#####+++##@@@@@@@@##$$$$$+++@@+++%%%%%$$%%%%%+++%%%%%++$$$$$+++    ",
"        +++%%########++@@@@@@@@%%$$$$$$$$+++++%%%%%%%$$$$$$$$$$+++##$$$$$+++    ",
"        +++%%########++@@@@@@@@%%$$$$$$$$+++++%%%%%%%$$$$$$$$$$+++##$$$$$+++....",
"           ++%%%#####++++++++++%%%%%%%%%%++###+++++%%%%%$$$$$++#####%%%%%+++....",
"           ++%%%#####++++++++++%%%%%%%%%%++###+++++%%%%%$$$$$++#####%%%%%+++....",
"           ++%%%#####++++++++++%%%%%%%%%%++###+++++%%%%%$$$$$++#####%%%%%+++....",
"           ++++++++++++++++++++++++++++++++++++++++++++++++++++++++++++++  .....",
"           ++++++++++++++++++++++++++++++++++++++++++++++++++++++++++++++..     ",
"                                             ..........          ..........     ",
"                                             ..........          ..........     ",
"                                             ..........          ..........     ",
"                                             ..........          ..........     ",
"                                                       ..........               ",
"                                                       ..........               ",
"                                                       ..........               ",
"                                                       ..........               ",
"                                                       ..........               ",
"                                                                                ",
"                                                                                ",
"                                                                                ",
"                                                                                ",
"                                                                                "};
