/* XPM */
static char * En_L_2_xpm[] = {
"80 80 6 1",
" 	c #F2EDF1",
".	c #C0CBDC",
"+	c #EAD4AA",
"@	c #9FD2E5",
"#	c #C28569",
"$	c #181425",
"                                                                                ",
"                                                                                ",
"                                                                                ",
"                              .............+++++++                              ",
"                              .............+++++++                              ",
"               @@@@@   ...........................++++++++                      ",
"               @@@@@   ...........................++++++++                      ",
"               @@@@@   ...........................++++++++                      ",
"               @@@...................................++++++++++                 ",
"               @@@...................................++++++++++                 ",
"               ...........................................+++++++               ",
"               ...........................................+++++++               ",
"               ...........................................+++++++               ",
"             ...............................................++++++++            ",
"             ...............................................++++++++            ",
"          .............######################..................+++++++          ",
"          .............######################..................+++++++          ",
"          .............######################..................+++++++          ",
"        ..........################################...............++++++++       ",
"        ..........################################...............++++++++       ",
"     ........  ###                      ###############.............+++++++     ",
"     ........  ###                      ###############.............+++++++     ",
"     ........  ###                      ###############.............+++++++     ",
"     .....                                   #############............++++++++  ",
"     .....                                   #############............++++++++  ",
"     ...                                          ##########..........++++++++  ",
"     ...                                          ##########..........++++++++  ",
"     ...                                          ##########..........++++++++  ",
"                                                     ##########.......++++++++++",
"                                                     ##########.......++++++++++",
"                              $$$$$$$$$$$$$$$$$$@@     ########..........+++++++",
"                              $$$$$$$$$$$$$$$$$$@@     ########..........+++++++",
"                              $$$$$$$$$$$$$$$$$$@@     ########..........+++++++",
"...                         $$++++++++++++++++++$$        #######........+++++++",
"...                         $$++++++++++++++++++$$        #######........+++++++",
"...                      $$$##++++++++++++++++++##$$$@@@@@#######........+++++++",
"...                      $$$##++++++++++++++++++##$$$@@@@@#######........+++++++",
"...                      $$$##++++++++++++++++++##$$$@@@@@#######........+++++++",
"                         $$$++++++++++++++++++++++$$$@@@@@@@########.....+++++++",
"                         $$$++++++++++++++++++++++$$$@@@@@@@########.....+++++++",
"          @@@@@          $$$+++++$$$$$##+++$$$$$##$$$       ########.....+++++++",
"          @@@@@          $$$+++++$$$$$##+++$$$$$##$$$       ########.....+++++++",
"          @@@@@          $$$+++++$$$$$##+++$$$$$##$$$       ########.....+++++++",
"          @@@@@          $$$+++++$$$$$##+++$$$$$##$$$          #####.....+++++++",
"          @@@@@          $$$+++++$$$$$##+++$$$$$##$$$          #####.....+++++++",
"               @@@@@@@@@@$$$+++++#######+++#######$$$          #####.....+++++++",
"               @@@@@@@@@@$$$+++++#######+++#######$$$          #####.....+++++++",
"               @@@@@@@@@@$$$+++++#######+++#######$$$          #####.....+++++++",
"               @@@@@@@@@@$$$##++++++++++++++++++##$$$          #####.....+++++++",
"               @@@@@@@@@@$$$##++++++++++++++++++##$$$          #####.....+++++++",
"                         $$$$$$$$++$$$++$$$++$$$$$          ########.....+++++++",
"                         $$$$$$$$++$$$++$$$++$$$$$          ########.....+++++++",
"                         $$$$$$$$++$$$++$$$++$$$$$          ########.....+++++++",
"                       #######$$$$$$$$$$$$$$$$$$            ########.....+++++++",
"                       #######$$$$$$$$$$$$$$$$$$            ########.....+++++++",
"                       $$++++++++++++++++++$$             #######.....++++++++++",
"                       $$++++++++++++++++++$$             #######.....++++++++++",
"                       $$++++++++++++++++++$$             #######.....++++++++++",
"                       $$$$$$$########$$$$$$$             #######.....++++++++++",
"                       $$$$$$$########$$$$$$$             #######.....++++++++++",
"                       $$++++++++++++++++++$$               ###.....$$++++++++..",
"                       $$++++++++++++++++++$$               ###.....$$++++++++..",
"                       $$++++++++++++++++++$$               ###.....$$++++++++..",
"                       $$$$$$$$$$$$$$$$$$$$$$                  .....$$+++++$$$@@",
"                       $$$$$$$$$$$$$$$$$$$$$$                  .....$$+++++$$$@@",
"                    $$$#####$$   $$#####$$$  @@@@@@@@@@          .....$$$$$...  ",
"                    $$$#####$$   $$#####$$$  @@@@@@@@@@          .....$$$$$...  ",
"                    $$$#####$$   $$#####$$$  @@@@@@@@@@          .....$$$$$...  ",
"                    $$$+++++$$   $$+++++$$$  @@@@@@@@@@          @@@.......     ",
"                    $$$+++++$$   $$+++++$$$  @@@@@@@@@@          @@@.......     ",
"                                                       @@@@@@@@@@               ",
"                                                       @@@@@@@@@@               ",
"                                                       @@@@@@@@@@               ",
"                                                       @@@@@@@@@@               ",
"                                                       @@@@@@@@@@               ",
"                                                                                ",
"                                                                                ",
"                                                                                ",
"                                                                                ",
"                                                                                "};
