/* XPM */
static char * santa_fight_b_xpm[] = {
"80 80 9 1",
" 	c #F2EDF1",
".	c #9FD2E5",
"+	c #F1F0FD",
"@	c #2F2F2E",
"#	c #741A33",
"$	c #9E293B",
"%	c #D4D3DE",
"&	c #FFD19C",
"*	c #E59363",
"                                                                                ",
"                                                                                ",
"                                                                                ",
"                                                                                ",
"                                                                                ",
"               .....               .....                                        ",
"               .....               .....                                        ",
"               .....      ++       .....                                        ",
"               .....      ++       .....                                        ",
"               .....      ++       .....                                        ",
"                    ...+++.........                            +++              ",
"                    ...+++.........                            +++              ",
"                    .++............                          ++                 ",
"                    .++............                          ++                 ",
"                    .++............                          ++                 ",
"                                                                                ",
"                                                                                ",
"                ++                                   +++                        ",
"                ++                                   +++                        ",
"                ++                                   +++                        ",
"                ++                                 ++                           ",
"                ++                                 ++                           ",
"             +++++                              +++++                           ",
"             +++++                              +++++                           ",
"             +++++                              +++++                           ",
"             +++++        @@@@@@@@@@@@@@@       +++                             ",
"             +++++        @@@@@@@@@@@@@@@       +++                             ",
"           +++++       @@@##$$$$$$$$$$$$$@@+++++                                ",
"           +++++       @@@##$$$$$$$$$$$$$@@+++++                                ",
"           +++++       @@@##$$$$$$$$$$$$$@@+++++                                ",
"        ++++++++     @@###$$$$$$$$$$$$$$$++++++++++         .....               ",
"        ++++++++     @@###$$$$$$$$$$$$$$$++++++++++         .....               ",
"        ++++++++     @@$$$$$$$$$$$$$$$++++++++++..          .....               ",
"        ++++++++     @@$$$$$$$$$$$$$$$++++++++++..          .....               ",
"        ++++++++     @@$$$$$$$$$$$$$$$++++++++++..          .....               ",
"      ++++++++++++@@@##$$$$$$$$$$###++++++++++++@@@.........                    ",
"      ++++++++++++@@@##$$$$$$$$$$###++++++++++++@@@.........                    ",
"      ++++++++++++@@@$$$$$$$$$$$$$$$++++++++++++@@@.........                    ",
"      ++++++++++++@@@$$$$$$$$$$$$$$$++++++++++++@@@.........                    ",
"      ++++++++++++@@@$$$$$$$$$$$$$$$++++++++++++@@@.........                    ",
"      ++++++++++++++++++++++++++++++++++++++++#####@@                           ",
"      ++++++++++++++++++++++++++++++++++++++++#####@@                           ",
"      ++++++++++++%%%%%%%%%%%%%%%+++++++++++++#######@@@                        ",
"      ++++++++++++%%%%%%%%%%%%%%%+++++++++++++#######@@@                        ",
"      ++++++++++++%%%%%%%%%%%%%%%+++++++++++++#######@@@                        ",
"      ++++++++++++@@@&&&&&&&*****+++++++++++++##@@@##+++@@                      ",
"      ++++++++++++@@@&&&&&&&*****+++++++++++++##@@@##+++@@                      ",
"      ++++++++++++++++++++++%%%**+++++++++++++++$$$@@+++++@@@                   ",
"      ++++++++++++++++++++++%%%**+++++++++++++++$$$@@+++++@@@                   ",
"      ++++++++++++++++++++++%%%**+++++++++++++++$$$@@+++++@@@                   ",
"      +++++++++++++++++%%%+++++%%+++++++++++++$$$$$##@@@@@                      ",
"      +++++++++++++++++%%%+++++%%+++++++++++++$$$$$##@@@@@                      ",
"      +++++++++++++++%%+++%%%%%+++++++++++++++$$$$$#####@@                      ",
"      +++++++++++++++%%+++%%%%%+++++++++++++++$$$$$#####@@                      ",
"      +++++++++++++++%%+++%%%%%+++++++++++++++$$$$$#####@@                      ",
"      +++++++++++++++++++++++++%%+++++++++++++$$$$$#####@@                      ",
"      +++++++++++++++++++++++++%%+++++++++++++$$$$$#####@@                      ",
"      ++++++++++++###+++++++%%%%%+++++++++++++$$########@@                      ",
"      ++++++++++++###+++++++%%%%%+++++++++++++$$########@@                      ",
"      ++++++++++++###+++++++%%%%%+++++++++++++$$########@@                      ",
"        +++++++++++++++@@@@@@@@++++++++++++++++++++#######@@@              .....",
"        +++++++++++++++@@@@@@@@++++++++++++++++++++#######@@@              .....",
"        +++++++++++++++@@@@@@@@++++++++++++++++++++#######@@@              .....",
"        +++++++++++++++@@@@@@@@++++++++++++++++++++#######@@@              .....",
"        +++++++++++++++@@@@@@@@++++++++++++++++++++#######@@@              .....",
"        @@@+++++++++++++++++%%%++++++++++++++++++++#####@@###@@  ..........     ",
"        @@@+++++++++++++++++%%%++++++++++++++++++++#####@@###@@  ..........     ",
"        @@@+++++++++++++++++%%%+++++++++++++++++###@@@@@++%%%@@  ..........     ",
"        @@@+++++++++++++++++%%%+++++++++++++++++###@@@@@++%%%@@  ..........     ",
"        @@@+++++++++++++++++%%%+++++++++++++++++###@@@@@++%%%@@  ..........     ",
"        @@@@@+++++++++++++%%%%%+++++++++++++++++###$$+++%%@@@@@..               ",
"        @@@@@+++++++++++++%%%%%+++++++++++++++++###$$+++%%@@@@@..               ",
"           @@@@@@@@@@@@@@@@@@@@@@@@@@@@@@@@@@@@@@@@@@@@@@@@@@....               ",
"           @@@@@@@@@@@@@@@@@@@@@@@@@@@@@@@@@@@@@@@@@@@@@@@@@@....               ",
"           @@@@@@@@@@@@@@@@@@@@@@@@@@@@@@@@@@@@@@@@@@@@@@@@@@....               ",
"                                                                                ",
"                                                                                ",
"                                                                                ",
"                                                                                ",
"                                                                                "};
