/* XPM */
static char * present_xpm[] = {
"80 80 9 1",
" 	c #F2EDF1",
".	c #9FD2E5",
"+	c #2F2F2E",
"@	c #9E293B",
"#	c #741A33",
"$	c #F1F0FD",
"%	c #CAC9D4",
"&	c #4E7949",
"*	c #40613C",
"                                                                                ",
"                                                                                ",
"                                                                                ",
"                                                                                ",
"                                                                                ",
"               .....               .....                                        ",
"               .....               .....                                        ",
"               .....               .....                                        ",
"               .....               .....                                        ",
"               .....               .....                                        ",
"                    ...............                                             ",
"                    ...............                                             ",
"                    ...............                                             ",
"                    ...............                                             ",
"                    ...............                                             ",
"                                                                                ",
"                                                                                ",
"                                                                                ",
"                                                                                ",
"                                                                                ",
"                                                                                ",
"                                                                                ",
"                                                                                ",
"                                                                                ",
"                                                                                ",
"                                                                                ",
"                                                                                ",
"                                  +++++       +++++                             ",
"                                  +++++       +++++                             ",
"                                  +++++       +++++                             ",
"                               +++@@@@@++   ++@@@@@+++      .....               ",
"                               +++@@@@@++   ++@@@@@+++      .....               ",
"                                  ++#####+++#####++         .....               ",
"                                  ++#####+++#####++         .....               ",
"                                  ++#####+++#####++         .....               ",
"                             +++++++++++++++++++++++++++....                    ",
"                             +++++++++++++++++++++++++++....                    ",
"                             ++$$$$$$$$@@@@@@@$$$$$%%%++....                    ",
"                             ++$$$$$$$$@@@@@@@$$$$$%%%++....                    ",
"                             ++$$$$$$$$@@@@@@@$$$$$%%%++....                    ",
"          .....          ....++%%%%%%%%#######%%%%%%%%++                        ",
"          .....          ....++%%%%%%%%#######%%%%%%%%++                        ",
"          .....          ....+++++++++++++++++++++++++++                        ",
"          .....          ....+++++++++++++++++++++++++++                        ",
"          .....          ....+++++++++++++++++++++++++++                        ",
"               ..........      +++&&&&&@@@@@@@&&&**+++                          ",
"               ..........      +++&&&&&@@@@@@@&&&**+++                          ",
"               ..........      +++&&&&&@@@@@@@&&&**+++                          ",
"               ..........      +++&&&&&@@@@@@@&&&**+++                          ",
"               ..........      +++&&&&&@@@@@@@&&&**+++                          ",
"                               +++&&&&&@@@@@@@&&&**+++                          ",
"                               +++&&&&&@@@@@@@&&&**+++                          ",
"                               +++*****#######*****+++                          ",
"                               +++*****#######*****+++                          ",
"                               +++*****#######*****+++                          ",
"                                  +++++++++++++++++                             ",
"                                  +++++++++++++++++                             ",
"                                                                                ",
"                                                                                ",
"                                                                                ",
"                                        .....                              .....",
"                                        .....                              .....",
"                                        .....                              .....",
"                                        .....                              .....",
"                                        .....                              .....",
"                                             ..........          ..........     ",
"                                             ..........          ..........     ",
"                                             ..........          ..........     ",
"                                             ..........          ..........     ",
"                                             ..........          ..........     ",
"                                                       ..........               ",
"                                                       ..........               ",
"                                                       ..........               ",
"                                                       ..........               ",
"                                                       ..........               ",
"                                                                                ",
"                                                                                ",
"                                                                                ",
"                                                                                ",
"                                                                                "};
