/* XPM */
static char * santa_present_L2_xpm[] = {
"80 80 12 1",
" 	c #F2EDF1",
".	c #F1F0FD",
"+	c #2F2F2E",
"@	c #741A33",
"#	c #9E293B",
"$	c #9FD2E5",
"%	c #D4D3DE",
"&	c #2D6AC5",
"*	c #E59363",
"=	c #FFD19C",
"-	c #DAA935",
";	c #C0942D",
"                                                                                ",
"                                                                                ",
"                                                                                ",
"                           ........   .      ++++++++++++++                     ",
"                      ........            +++@@############+++                  ",
"               $$$$$  ........     $$$$$  +++@@############+++                  ",
"               $$$$$  ........     $$$$$  +++@@############+++                  ",
"               $$$.......          $$$$+++@@@#################+++               ",
"               $$$.......          $$$$+++@@@#################+++               ",
"             .........             $$$$+++#######################++             ",
"             .........$$$$$$$$$$$$$    +++#######################++             ",
"             .........$$$$$$$$$$$$$    +++#######################++             ",
"          ......... $$$$$$$$$$$$$$$   +@@@###########@@@@@####@@@@@+++          ",
"          ......... $$$$$$$$$$$$$$$   +@@@###########@@@@@####@@@@@+++          ",
"          ......... $$$$$$$$$$$$$$$   +@@@###########@@@@@####@@@@@+++          ",
"       ........                       +###################@@@@@@@@@+++          ",
"       ........                       +###################@@@@@@@@@+++          ",
"  +++........++                    +++....................@@@@@@@@@@@@+++       ",
"  +++........++                    +++....................@@@@@@@@@@@@+++       ",
"  +++........++                    +++....................@@@@@@@@@@@@+++       ",
"++.............+++++++++++++++++++++++%%%%%%%%%%%%%%%%%%%%....@@@@@@@@@@@++     ",
"++.............+++++++++++++++++++++++%%%%%%%%%%%%%%%%%%%%....@@@@@@@@@@@++     ",
"++.............+++++++++++++++++++++++%%%%%%%%%%%%%%%%%%%%....@@@@@@@@@@@++     ",
"++................###############@@@@@+&&&...**&&&.....***%%%%+++++@@@@@@..+++  ",
"++................###############@@@@@+&&&...**&&&.....***%%%%+++++@@@@@@..+++  ",
"  +++++......%%%%%###############@@@@@+========***********%%%%+++@@+++%%%.....+ ",
"  +++++......%%%%%###############@@@@@+========***********%%%%+++@@+++%%%.....+ ",
"     ++%%%%%%%%###############@@@@@+++=........%%%********%%%%+++@@@@@+++%%+++  ",
"     ++%%%%%%%%###############@@@@@+++=........%%%********%%%%+++@@@@@+++%%+++  ",
"       ++++++++++++########@@@@@@@@+++....%%%.....%%%**%%%%%%%+++++@@@@@@++     ",
"       ++++++++++++########@@@@@@@@+++....%%%.....%%%**%%%%%%%+++++@@@@@@++     ",
"       ++++++++++++########@@@@@@@@+++....%%%.....%%%**%%%%%%%+++++@@@@@@++     ",
"                   +++++++++++++++++++%%%%...%%%%%...%%%%%%+++.....+++@@@@@+++  ",
"                   +++++++++++++++++++%%%%...%%%%%...%%%%%%+++.....+++@@@@@+++  ",
"                   +++++++++++++++++++%%%%...%%%%%...%%%%%%+++.....+++@@@@@+++  ",
"                                   ++++...........%%%%%%%%+...........+++@@+++  ",
"                                   ++++...........%%%%%%%%+...........+++@@+++  ",
"                                   +++@+++.....%%%%%%++++++........%%%+++@@+++  ",
"                                   +++@+++.....%%%%%%++++++........%%%+++@@+++  ",
"                                   +++@+++.....%%%%%%++++++........%%%+++@@+++  ",
"          $$$$$          $$$$$   ++@@@#@@@+++++++++++@@###+...%%%%%@@@@@@@@@@@+ ",
"          $$$$$          $$$$$   ++@@@#@@@+++++++++++@@###+...%%%%%@@@@@@@@@@@+ ",
"          $$$$$          $$$$$   ++@@@#@@@+++++++++++@@###+...%%%%%@@@@@@@@@@@+ ",
"          $$$$$          $$$$$   ++##########..%%%@@@######+++@@@#####@@@@@@@@+ ",
"          $$$$$          $$$$$   ++##########..%%%@@@######+++@@@#####@@@@@@@@+ ",
"               $$$$$$$$$$        ++##########..%%%@@@#########+++########@@@@@+ ",
"               $$$$$$$$$$        ++##########..%%%@@@#########+++########@@@@@+ ",
"               $$$$$$$$$$        ++++++@@@@@@..%%%@@@@@@@@@@@@@@@++########@@@+ ",
"               $$$$$$$$$$        ++++++@@@@@@..%%%@@@@@@@@@@@@@@@++########@@@+ ",
"               $$$$$$$$$$          +++++++--------;;;+++++++++++++++++++++++++  ",
"                                   +++++++--------;;;+++++++++++++++++++++++++  ",
"                                   +++++++--------;;;+++++++++++++++++++++++++  ",
"                                 ++@@@++++--------;;;+++++++++++++++++@@@@@@@@+ ",
"                                 ++@@@++++--------;;;+++++++++++++++++@@@@@@@@+ ",
"                                 ++@@@++++--------;;;+++++++++++++++++@@@@@@@@+ ",
"                                 ++...#@@@@@@..%%%@@@@@@@@@@@@@@@@@@@@###..%%%+ ",
"                                 ++...#@@@@@@..%%%@@@@@@@@@@@@@@@@@@@@###..%%%+ ",
"                                 ++...%######..%%%#####@@@@@@@@@@@@###...%%+++  ",
"                                 ++...%######..%%%#####@@@@@@@@@@@@###...%%+++  ",
"                                 ++...%######..%%%#####@@@@@@@@@@@@###...%%+++  ",
"                                   +++%...............................%%%@@+++$$",
"                                   +++%...............................%%%@@+++$$",
"                                   +++%...............................%%%@@+++$$",
"                                   +++@%%%%%%%%%%%%%%%%%%%%%%%%%%%%%%%@@@@@+++$$",
"                                   +++@%%%%%%%%%%%%%%%%%%%%%%%%%%%%%%%@@@@@+++$$",
"                                   +++@@@@@@@@@@@@@@@++++++@@@@@@@@@@@@@@@@+++  ",
"                                   +++@@@@@@@@@@@@@@@++++++@@@@@@@@@@@@@@@@+++  ",
"                                   +++@@@@@@@@@@@@@@@++++++@@@@@@@@@@@@@@@@+++  ",
"                                   +++.@@@@@@@@@@@+++$$    +++@@@@@@@@@@@%%+++  ",
"                                      +......%%%%%+++$$    +++.....%%%%%%++     ",
"                                      +......%%%%%+++  $$$$+++.....%%%%%%++     ",
"                                      +......%%%%%+++  $$$$+++.....%%%%%%++     ",
"                                      +++++++++++++++  $$$$++++++++++++++++     ",
"                                      +++++++++++++++  $$$$++++++++++++++++     ",
"                                      +++++++++++++++  $$$$++++++++++++++++     ",
"                                                                                ",
"                                                                                ",
"                                                                                ",
"                                                                                ",
"                                                                                "};
