/* XPM */
static char * santa_T_xpm[] = {
"80 80 9 1",
" 	c #F2EDF1",
".	c #2F2F2E",
"+	c #9FD2E5",
"@	c #9E293B",
"#	c #741A33",
"$	c #F1F0FD",
"%	c #D4D3DE",
"&	c #E59363",
"*	c #2D6AC5",
"                                                                                ",
"                                                                                ",
"                                                                                ",
"                                     ...........                                ",
"                                     ...........                                ",
"               +++++             ....@@@@@@@@###.                               ",
"               +++++             ....@@@@@@@@###.                               ",
"               +++++             ....@@@@@@@@###.                               ",
"               +++++           ..@@@@@@@@@@@@@@@#...                            ",
"               +++++        ...@@@@@@@@@@@@@@@@@@...                            ",
"                    ++++++++...@@@@@@@@@@@@@@@@@@...                            ",
"                    ++++++++...@@@@@@@@@@@@@@@@@@...                            ",
"                    +++++...@@@@@@@@@###@@@@@@@@@###...                         ",
"                    +++++...@@@@@@@@@###@@@@@@@@@###...                         ",
"                    +++++...@@@@@@@@@###@@@@@@@@@###...                         ",
"                        .######@@@@@#@@@@@@@@@@@@@@@...                         ",
"                        .######@@@@@#@@@@@@@@@@@@@@@...                         ",
"                        .###########@$$$$$$$$$$$$$$$$$$..                       ",
"                        .###########@$$$$$$$$$$$$$$$$$$..                       ",
"                        .###########@$$$$$$$$$$$$$$$$$$..                       ",
"                     ...############.%%%%%%%%%%%%%%%%%%..                       ",
"                        .########...%&&&&&&&&&&&$***...                         ",
"                        .########...%&&&&&&&&&&&$***...                         ",
"                        .########...%&&&&&&&&&&&$***...                         ",
"                         ...#####...&..................                         ",
"                         ...#####...&..................                         ",
"                         ...#####...&..................                         ",
"                     .......$$$$$$$$.###########@@@@...                         ",
"                     .......$$$$$$$$.###########@@@@...                         ",
"                   ..#######...$$$$$.###########@@@@@@@..                       ",
"                   ..#######...$$$$$.###########@@@@@@@..   +++++               ",
"                   ..#######...$$$$$.###########@@@@@@@..   +++++               ",
"                ...############.....####...######@@@@@@@@.........              ",
"               .########################...#########@@@@@...%$$$$$...           ",
"               .########################...#########@@@@@...%$$$$$...           ",
"               .########################...#########@@@@@...%$$$$$...           ",
"               .########################...#########@@@@@@@@%$$$$$$$$...        ",
"               .########################...#########@@@@@@@@%$$$$$$$$...        ",
"               .########################...#########@@@@@@@@%$$$$$$$$...        ",
"               .###########################..###############%%%%$$$$$...        ",
"          +++++.###########################..###############%%%%$$$$$...        ",
"          +++++ ...##########################.......########%%%%%%$$$...        ",
"          +++++ ...##########################.......########%%%%%%$$$...        ",
"          +++++ ...##########################.......########%%%%%%$$$...        ",
"          +++++ ...#################################....................        ",
"               +...#################################....................        ",
"               +...#################################....................        ",
"               ++++..###############################.........                   ",
"               ++++..################....................####...                ",
"               ++++..################....................####...                ",
"                   ..################....................####...                ",
"                ....................................###@@...####..              ",
"                ....................................###@@...####..              ",
"               ....#####.............###############@@@$$...####..              ",
"               ....#####.............###############@@@$$...####..              ",
"               ....#####.............###############@@@$$...####..              ",
"               .%%%$$@@@#############@@@@@@@@@@@@@@@%%%$$...####..              ",
"               .%%%$$@@@#############@@@@@@@@@@@@@@@%%%$$...####..              ",
"               .%%%$$@@@#############@@@@@@@@@@@@@@@%%%$$...####..              ",
"                ...%%$$$@@@@@@@@@@@@@$$$$$$$$$$$$$$$%%%..####...                ",
"                ...##%%%$$$$$$$$$$$$$%%%%%%%%%%%%$$$...######...           +++++",
"                ...##%%%$$$$$$$$$$$$$%%%%%%%%%%%%$$$...######...           +++++",
"                ...##%%%$$$$$$$$$$$$$%%%%%%%%%%%%$$$...######...           +++++",
"               .########%%%%%%%%%%%%%...............$$$$$%%%%...           +++++",
"               .########%%%%%%%%%%%%%...............$$$$$%%%%...           +++++",
"               .############.........        ++++............... ++++++++++     ",
"               .############.........        ++++............... ++++++++++     ",
"               .############.........        ++++............... ++++++++++     ",
"               .%%%#########...              ++++++++++          ++++++++++     ",
"               .%%%#########...              ++++++++++          ++++++++++     ",
"               .%%%#########...                        ++++++++++               ",
"                ...%%%%%$$$$...                        ++++++++++               ",
"                ...............                        ++++++++++               ",
"                ...............                        ++++++++++               ",
"                ...............                        ++++++++++               ",
"                                                                                ",
"                                                                                ",
"                                                                                ",
"                                                                                ",
"                                                                                "};
