/* XPM */
static char * santa_present_L_xpm[] = {
"80 80 15 1",
" 	c #F2EDF1",
".	c #2F2F2E",
"+	c #9FD2E5",
"@	c #741A33",
"#	c #9E293B",
"$	c #CAC9D4",
"%	c #F1F0FD",
"&	c #D4D3DE",
"*	c #40613C",
"=	c #4E7949",
"-	c #2D6AC5",
";	c #E59363",
">	c #FFD19C",
",	c #DAA935",
"'	c #C0942D",
"                                                                                ",
"                                                                                ",
"                                     ...............                            ",
"                                     ...............                            ",
"                                     ...............                            ",
"     .....     ++.....             ..@@@############...                         ",
"     .....     ++.....             ..@@@############...                         ",
"  ...#####..   ..#####...       ...@@##################..                       ",
"  ...#####..   ..#####...       ...@@##################..                       ",
"  ...#####..   ..#####...       ...@@##################..                       ",
"     ..@@@@@...@@@@@..++++++++++...######################...                    ",
"     ..@@@@@...@@@@@..++++++++++...######################...                    ",
"...........................+++..@@@##########@@@@@#####@@@@@..                  ",
"...........................+++..@@@##########@@@@@#####@@@@@..                  ",
"...........................+++..@@@##########@@@@@#####@@@@@..                  ",
"..$$$%%%%%#######%%%%%%%%..   ..##################@@@@@@@@@@..                  ",
"..$$$%%%%%#######%%%%%%%%..   ..##################@@@@@@@@@@..                  ",
"..$$$$$$$$@@@@@@@$$$$$$$$.....%%%%%%%%%%%%%%%%%%%%@@@@@@@@@@@@...               ",
"..$$$$$$$$@@@@@@@$$$$$$$$.....%%%%%%%%%%%%%%%%%%%%@@@@@@@@@@@@...               ",
"..$$$$$$$$@@@@@@@$$$$$$$$.....%%%%%%%%%%%%%%%%%%%%@@@@@@@@@@@@...               ",
"..............................&&&&&&&&&&&&&&&&&&&&%%%%%@@@@@@@@@@..             ",
"..............................&&&&&&&&&&&&&&&&&&&&%%%%%@@@@@@@@@@..             ",
"  ...**===#######=====...     ..---%%;;;--%%%%%;;;&&&&&.....@@@@@%%...          ",
"  ...**===#######=====...     ..---%%;;;--%%%%%;;;&&&&&.....@@@@@%%...          ",
"  ...**===#######=====...     ..---%%;;;--%%%%%;;;&&&&&.....@@@@@%%...          ",
"  ...**===#######=====...     ..>>>>>>>>;;;;;;;;;;&&&&&..@@@..&&&%%%%%..        ",
"  ...**===#######=====...     ..>>>>>>>>;;;;;;;;;;&&&&&..@@@..&&&%%%%%..        ",
"  ...**===.......=====...  ...>>%%%%%%%%&&;;;;;;;;&&&&&..@@@@@...&&...          ",
"  ...**===.......=====...  ...>>%%%%%%%%&&;;;;;;;;&&&&&..@@@@@...&&...          ",
"  ...**===.......=====...  ...>>%%%%%%%%&&;;;;;;;;&&&&&..@@@@@...&&...          ",
"  ...**...%%%%%%%...**...  ...%%%%%&&%%%%%&&&;;&&&&&&&&.....@@@@@..             ",
"  ...**...%%%%%%%...**...  ...%%%%%&&%%%%%&&&;;&&&&&&&&.....@@@@@..             ",
"     .....%%%%%%%&&&..........&&&&&%%&&&&&%%%&&&&&&&...%%%%%..@@@@@...          ",
"     .....%%%%%%%&&&..........&&&&&%%&&&&&%%%&&&&&&&...%%%%%..@@@@@...          ",
"     .....%%%%%%%&&&..........&&&&&%%&&&&&%%%&&&&&&&...%%%%%..@@@@@...          ",
"       ...%%%%%&&&&&.....@@.....%%%%%%%%%%&&&&&&&&..%%%%%%%%%%...@@...          ",
"       ...%%%%%&&&&&.....@@.....%%%%%%%%%%&&&&&&&&..%%%%%%%%%%...@@...          ",
"       ...&&&&&&&@@@..###@@...@@...%%%%%&&&&&.......%%%%%%%%&&...@@...          ",
"       ...&&&&&&&@@@..###@@...@@...%%%%%&&&&&.......%%%%%%%%&&...@@...          ",
"       ...&&&&&&&@@@..###@@...@@...%%%%%&&&&&.......%%%%%%%%&&...@@...          ",
"          .....@@########..@@@##@@@..........@@###..%%%&&&&&@@@@@@@@@@..        ",
"          .....@@########..@@@##@@@..........@@###..%%%&&&&&@@@@@@@@@@..        ",
"          +++++..########..##########%%%&&@@@#######...@@#####@@@@@@@@..        ",
"          +++++..########..##########%%%&&@@@#######...@@#####@@@@@@@@..        ",
"          +++++..########..##########%%%&&@@@#######...@@#####@@@@@@@@..        ",
"               ++...#####..##########%%%&&@@@##########..########@@@@@..        ",
"               ++...#####..##########%%%&&@@@##########..########@@@@@..        ",
"               +++++............@@@@@%%%&&@@@@@@@@@@@@@@@...#######@@@..        ",
"               +++++............@@@@@%%%&&@@@@@@@@@@@@@@@...#######@@@..        ",
"               +++++............@@@@@%%%&&@@@@@@@@@@@@@@@...#######@@@..        ",
"                           ........,,,,,,,'''.........................          ",
"                           ........,,,,,,,'''.........................          ",
"                         ..@@@.....,,,,,,,'''.................@@@@@@@@..        ",
"                         ..@@@.....,,,,,,,'''.................@@@@@@@@..        ",
"                         ..@@@.....,,,,,,,'''.................@@@@@@@@..        ",
"                         ..%%%##@@@@@%%%&&@@@@@@@@@@@@@@@@@@@@###%%&&&..        ",
"                         ..%%%##@@@@@%%%&&@@@@@@@@@@@@@@@@@@@@###%%&&&..        ",
"                         ..%%%&&#####%%%&&#####@@@@@@@@@@@@@##%%%&&...          ",
"                         ..%%%&&#####%%%&&#####@@@@@@@@@@@@@##%%%&&...          ",
"                         ..%%%&&#####%%%&&#####@@@@@@@@@@@@@##%%%&&...          ",
"                           ...&&%%%%%%%%%%%%%%%%%%%%%%%%%%%%%%&&&@@...     +++++",
"                           ...&&%%%%%%%%%%%%%%%%%%%%%%%%%%%%%%&&&@@...     +++++",
"                           ...@@&&&&&&&&&&&&&&&&&&&&&&&&&&&&&&@@@@@...     +++++",
"                           ...@@&&&&&&&&&&&&&&&&&&&&&&&&&&&&&&@@@@@...     +++++",
"                           ...@@&&&&&&&&&&&&&&&&&&&&&&&&&&&&&&@@@@@...     +++++",
"                           ...@@@@@@@@@@@@@@@.......@@@@@@@@@@@@@@@...+++++     ",
"                           ...@@@@@@@@@@@@@@@.......@@@@@@@@@@@@@@@...+++++     ",
"                           ...%%@@@@@@@@@@...+++++++...@@@@@@@@@@&&...+++++     ",
"                           ...%%@@@@@@@@@@...+++++++...@@@@@@@@@@&&...+++++     ",
"                           ...%%@@@@@@@@@@...+++++++...@@@@@@@@@@&&...+++++     ",
"                              ..%%%%%&&&&&...       ...%%%%%&&&&&..             ",
"                              ..%%%%%&&&&&...       ...%%%%%&&&&&..             ",
"                              ...............       ...............             ",
"                              ...............       ...............             ",
"                              ...............       ...............             ",
"                                                                                ",
"                                                                                ",
"                                                                                ",
"                                                                                ",
"                                                                                "};
