/* XPM */
static char * snowman_xpm[] = {
"80 80 202 2",
"  	c #F2EDF1",
". 	c #9FD2E5",
"+ 	c #D9EBF2",
"@ 	c #FFFFFF",
"# 	c #F8F6F8",
"$ 	c #F1ECF0",
"% 	c #F2EEF1",
"& 	c #F2EEF2",
"* 	c #D6E9F2",
"= 	c #424242",
"- 	c #AAD6E7",
"; 	c #F1F1F1",
"> 	c #D1D1D1",
", 	c #000000",
"' 	c #ECEBF1",
") 	c #C0C0C0",
"! 	c #909090",
"~ 	c #C9E0F2",
"{ 	c #DFDFDF",
"] 	c #757575",
"^ 	c #484848",
"/ 	c #D8E9F6",
"( 	c #F3EEF2",
"_ 	c #929292",
": 	c #7F7F7F",
"< 	c #D6E8F6",
"[ 	c #E9EAF1",
"} 	c #F1DBDC",
"| 	c #E4B4B0",
"1 	c #D96B52",
"2 	c #D15328",
"3 	c #C8644F",
"4 	c #FAF9FA",
"5 	c #FEFEFE",
"6 	c #FAFDFF",
"7 	c #D9F1FF",
"8 	c #FCDDD1",
"9 	c #F6865F",
"0 	c #FD6532",
"a 	c #FE6532",
"b 	c #E75C2E",
"c 	c #D9572B",
"d 	c #CA4F26",
"e 	c #BF4A23",
"f 	c #CF847A",
"g 	c #E3F5FF",
"h 	c #FF6633",
"i 	c #F36130",
"j 	c #DC582B",
"k 	c #C74D25",
"l 	c #FFDEEF",
"m 	c #FFEBF5",
"n 	c #DEB0A2",
"o 	c #D9562A",
"p 	c #C34C24",
"q 	c #CD623F",
"r 	c #AFD1EC",
"s 	c #FBFBFB",
"t 	c #FFB2D9",
"u 	c #FF99CC",
"v 	c #FFF4FA",
"w 	c #D9A697",
"x 	c #D6552A",
"y 	c #D9EAF5",
"z 	c #C5DEED",
"A 	c #ACCEE9",
"B 	c #B4D4ED",
"C 	c #F0F0F4",
"D 	c #C14B24",
"E 	c #C24D26",
"F 	c #020303",
"G 	c #DEE7F2",
"H 	c #E2F5FF",
"I 	c #535454",
"J 	c #DCF2FF",
"K 	c #3F464A",
"L 	c #202528",
"M 	c #989898",
"N 	c #121416",
"O 	c #F5FCFF",
"P 	c #9CBAD2",
"Q 	c #D4E1F1",
"R 	c #C2DCF1",
"S 	c #53595D",
"T 	c #1B1E20",
"U 	c #1F2325",
"V 	c #D2E2F1",
"W 	c #C6DCE8",
"X 	c #9BB9D1",
"Y 	c #343A3E",
"Z 	c #D8F0FD",
"` 	c #272F35",
" .	c #E2E9F1",
"..	c #BDDCF2",
"+.	c #CAE0F4",
"@.	c #B3D5EE",
"#.	c #D3EDFD",
"$.	c #C8E4F8",
"%.	c #D4E7F6",
"&.	c #E2EEF8",
"*.	c #F1EDF0",
"=.	c #B8D7EF",
"-.	c #B7D6EE",
";.	c #B9D8F0",
">.	c #BFDAF0",
",.	c #F7FCFF",
"'.	c #F3FBFF",
").	c #E0E7F1",
"!.	c #C5DFF3",
"~.	c #C8E0F2",
"{.	c #D6E2F1",
"].	c #BED9EE",
"^.	c #C5E0F4",
"/.	c #F8FDFF",
"(.	c #181818",
"_.	c #DAF2FF",
":.	c #CCE7FA",
"<.	c #C3DAEF",
"[.	c #6F7C83",
"}.	c #121212",
"|.	c #D5E3F1",
"1.	c #CBE6F9",
"2.	c #F6FCFF",
"3.	c #FAFAFA",
"4.	c #EDF9FF",
"5.	c #F0ECF1",
"6.	c #B7D8F0",
"7.	c #B3D4EE",
"8.	c #FEFFFF",
"9.	c #030304",
"0.	c #B0D2ED",
"a.	c #ECF4FB",
"b.	c #B4D5EE",
"c.	c #EFECF1",
"d.	c #B4D4EE",
"e.	c #F5FAFD",
"f.	c #EBF8FF",
"g.	c #D1E8F5",
"h.	c #E0EEF4",
"i.	c #EEF6FB",
"j.	c #CCE7F9",
"k.	c #D5E7F5",
"l.	c #9FD2E4",
"m.	c #B5D5EF",
"n.	c #FDFEFE",
"o.	c #CFE4F4",
"p.	c #C6DEF2",
"q.	c #D7E8F6",
"r.	c #EFF6FC",
"s.	c #FBFAFB",
"t.	c #E5EEF6",
"u.	c #F2F8FA",
"v.	c #D5E4F1",
"w.	c #B4D9EA",
"x.	c #EBF4FB",
"y.	c #ECF8FF",
"z.	c #FCFEFF",
"A.	c #FAFEFF",
"B.	c #BBD9F0",
"C.	c #E5EAF2",
"D.	c #E5F6FF",
"E.	c #F4F9FD",
"F.	c #C0DBF0",
"G.	c #F4FBFF",
"H.	c #E6E9F1",
"I.	c #C7E4F7",
"J.	c #DBE7F4",
"K.	c #D6EFFE",
"L.	c #D2E5F5",
"M.	c #F7FAFD",
"N.	c #C3DBEF",
"O.	c #D7F0FF",
"P.	c #FBFEFF",
"Q.	c #EBECF3",
"R.	c #BFDEF4",
"S.	c #D5E5F3",
"T.	c #E6F6FF",
"U.	c #E4F5FF",
"V.	c #E0F4FF",
"W.	c #C9E0F3",
"X.	c #E9EBF2",
"Y.	c #C6DEF0",
"Z.	c #E6EBF3",
"`.	c #D1E3F2",
" +	c #F2FBFF",
".+	c #E6EAF3",
"++	c #BEDBF1",
"@+	c #BADAF2",
"#+	c #C5E2F6",
"$+	c #F1FAFF",
"%+	c #C4DEF2",
"&+	c #C4E1F6",
"*+	c #DCF2FE",
"=+	c #DCF1FC",
"-+	c #DFF4FF",
";+	c #E7F6FF",
">+	c #EEF0F6",
",+	c #ECEFF5",
"'+	c #B1D9EA",
")+	c #DBF2FF",
"!+	c #C7E4F1",
"~+	c #EBF2F8",
"                                                                                                                                                                ",
"                                                                                                                                                                ",
"                                                                                                                                                                ",
"                                                                                                                                                                ",
"                                                                                                                                                                ",
"                              . . . . .                               . . . . .                                                                                 ",
"                              . . . . .                               . . . . .                                                                                 ",
"                              . . . . .                               . . + @ @ @ @ @ #                                                                         ",
"                              . . . . .                             $ @ @ @ @ @ @ @ @ @ @ @ $                                                                   ",
"                              . . . . .                         % @ @ @ @ @ @ @ @ @ @ @ @ @ @ @ &                                                               ",
"                                        . . . . . . . . . . . * @ @ @ @ @ @ @ @ @ @ @ @ @ @ @ @ @                                                               ",
"                                        . . . . . . . . . . . @ @ @ @ @ @ @ @ @ @ @ @ @ @ @ @ @ @ @                                                             ",
"                                        . . . . . . . . . . @ @ @ @ @ @ @ @ @ @ @ @ @ @ @ @ @ @ @ @ @                                                           ",
"                                        . . . . . . . . . @ @ @ @ @ @ @ @ @ @ @ @ @ @ @ @ @ @ @ = @ @ @                                                         ",
"                                        . . . . . . . . - @ @ @ @ @ @ @ @ @ @ @ @ @ @ @ @ @ @ ; > , @ @ '                                                       ",
"                                                        @ @ @ @ @ @ @ @ @ ) ! , @ @ @ @ @ @ @ @ @ , @ @ ~                                                       ",
"                                                        @ @ @ @ @ @ @ @ @ @ @ , { @ @ @ @ @ @ ] ^ , @ @ /                                                       ",
"                                                      ( @ @ @ @ @ @ @ @ @ _ @ , : @ @ @ @ @ @ , , @ @ @ < [   } | 1 2 3                                         ",
"                                                      4 @ @ @ @ @ @ @ @ @ , , 5 @ 6 7 7 @ @ 8 9 0 a b c c c d e f                                               ",
"                                                      @ @ @ @ @ @ @ @ @ @ @ , , @ g 7 h h i j c c c c k e e                                                     ",
"                                                      @ @ @ @ @ @ @ @ @ l m @ @ @ @ n c c c c o p e e q r r                                                     ",
"                                                      s @ @ @ @ @ @ @ t u u v @ 7 7 w c x e e e e y 7 z A B                                                     ",
"                                                      C @ @ @ @ @ @ @ @ 7 7 @ @ 7 7 7 D e E @ @ 7 7 7 , F G                                                     ",
"                                                        @ @ @ H 7 6 @ , I @ @ 7 7 7 7 7 7 @ @ @ J K L r r                                                       ",
"                                                        r @ @ 6 7 @ @ , M > , N 7 7 7 7 7 7 O 7 7 , , P r                                                       ",
"                                                        Q R @ J 7 7 @ @ @ S , , 7 , , T 7 U , , 7 , , r V                                                       ",
"                                                          r r 7 7 7 7 7 7 7 7 7 W , , , 7 , , , X r r r                                                         ",
"                                                            r r 7 7 7 7 7 7 7 7 7 Y , Z 7 Z , ` r r r                                                           ",
"                                                             .r r ..7 7 7 7 7 7 7 7 7 7 7 r r r r r +.                                                          ",
"                                                            4 r r r r @.#.7 7 7 7 7 $.r r r r r r %.&.*.                                                        ",
"                                                            @ @ =.r r r r r r r r r r r r r r r -.@ @ r                 . . . . .                               ",
"                                                          @ @ @ @ @ ;.r r r r r r r r r r r >.@ @ ,.'.r ).              . . . . .                               ",
"                                                          @ @ @ @ @ @ @ !.r r r r r r r ~.@ @ 6 @ 7 7 r r               . . . . .                               ",
"                                                        *.@ @ 7 @ @ @ @ @ @ @ @ @ @ @ @ @ @ @ 7 @ 7 7 r r               . . . . .                               ",
"                                                        {.@ @ @ @ @ @ @ @ @ @ @ @ @ @ @ @ @ @ @ @ 7 7 r r               . . . . .                               ",
"                                                        ].^.7 /.6 @ @ @ @ @ @ @ @ @ @ @ (.@ _.7 7 7 :.r r . . . . . . .                                         ",
"                                                        <.r 7 7 7 7 @ @ @ @ @ @ @ @ @ [., }.7 7 7 7 r r r . . . . . . .                                         ",
"                                                        |.r 1.7 7 7 2.@ @ @ @ @ @ @ @ @ , 3.4.7 7 7 r r r . . . . . . .                                         ",
"                                                        5.r r 7 7 7 @ @ @ @ @ @ @ @ @ @ @ 7 7 7 7 6.r r r . . . . . . .                                         ",
"                                                        4 B r 7.7 7 @ 7 8.@ @ @ @ @ 7 7 9., 7 7 7 r r r 0.. . . . . . .                                         ",
"                    . . . . .                     . . @ @ @ a.r b.7 @ 7 @ @ @ @ @ @ 7 7 , , 7 7 r r r r c.                                                      ",
"                    . . . . .                     . . @ @ @ @ @ d.r e.@ @ @ @ @ @ @ f.7 g.W 7 r r r r r                                                         ",
"                    . . . . .                     . h.@ @ @ @ @ @ @ @ i.a.@ @ @ @ @ 7 7 7 j.r r r r k.@ @                                                       ",
"                    . . . . .                     l.@ @ @ @ @ @ @ @ @ @ @ @ @ @ @ @ 7 7 m.r r r B @ @ @ @ @ $                                                   ",
"                    . . . . .                     n.@ @ @ @ @ @ @ @ @ @ @ @ @ @ @ o.p.q.r.@ @ @ @ @ @ @ @ @ @ s.                                                ",
"                              . . . . . . . . . n.@ @ @ @ @ @ @ @ @ @ @ @ @ @ @ @ @ @ @ @ @ @ @ @ @ @ @ @ @ @ @ t.                                              ",
"                              . . . . . . . . u.@ @ @ @ @ @ @ @ @ @ @ @ @ @ @ @ @ @ @ @ @ @ @ @ @ @ @ @ @ @ @ @ @ v.                                            ",
"                              . . . . . . . w.@ @ @ @ @ @ @ @ @ @ @ @ @ @ @ @ @ @ @ @ @ @ @ @ @ @ @ @ @ @ @ @ @ @ x.                                            ",
"                              . . . . . . . y.@ z.A.@ @ @ @ @ @ @ @ @ @ @ @ @ @ @ @ @ @ @ @ @ @ @ @ @ @ @ @ @ @ @ @ r                                           ",
"                              . . . . . . B.7 @ @ @ @ @ @ @ @ @ @ @ @ @ @ @ @ @ @ @ @ @ @ @ @ @ @ @ @ @ @ @ @ @ @ @ r C.                                        ",
"                                          r 7 y.@ 7 D.@ @ @ @ @ @ @ @ @ @ @ @ @ @ @ @ @ @ @ @ @ @ @ @ @ @ @ @ @ @ @ E.r                                         ",
"                                        F.r 7 4.@ 7 G.@ @ @ @ @ @ @ @ @ @ @ @ @ @ @ @ @ @ @ @ @ @ @ @ @ @ @ @ @ @ @ @ r H.                                      ",
"                                        r I.7 @ @ @ @ @ @ @ @ @ @ @ @ @ @ @ @ @ @ @ @ @ @ @ @ @ @ @ @ @ @ @ @ @ @ @ @ r r                                       ",
"                                      J.r K.7 H @ @ @ @ @ @ @ 7 @ @ @ @ @ @ @ @ @ @ @ @ @ @ @ @ @ @ @ @ @ @ @ @ @ @ @ L.r                                       ",
"                                      r r 7 7 7 @ @ @ @ @ @ @ 7 @ @ @ @ @ @ @ @ @ @ @ @ @ @ @ @ @ @ @ @ @ @ @ @ @ @ @ M.r N.                                    ",
"                                      r r 7 7 7 @ @ 7 7 @ @ @ @ @ @ @ @ @ @ @ @ @ @ @ @ @ @ @ @ @ @ @ @ @ @ @ @ @ y.@ @ r r                                     ",
"                                      r r O.7 7 P.@ 7 7 @ @ @ 6 @ @ @ @ @ @ @ @ @ @ @ @ @ @ @ @ @ @ @ @ @ @ @ @ 7 7 7 @ r r                                     ",
"                                    Q.r r R.7 7 @ @ @ @ @ @ 7 7 7 A.@ @ @ @ @ @ @ @ @ @ @ @ @ @ @ @ @ @ @ @ @ @ 7 7 7 7 r r                                     ",
"                                    S.r r r 7 7 7 7 7 T./.7 7 7 7 U.@ @ @ V._.@ @ @ @ @ @ @ @ @ @ @ @ @ @ @ @ @ f.7 7 7 r r                                     ",
"                                    W.r r r 7 7 7 7 7 7 7 7 7 7 7 7 7 @ @ 7 7 @ @ @ @ @ @ @ @ @ @ @ @ @ @ @ @ @ @ 7 7 I.r r X.                                  ",
"                                    Y.r r r 7 7 7 7 7 7 7 7 7 7 7 7 7 7 @ @ @ @ @ @ @ @ @ @ @ @ @ @ @ @ @ @ @ @ @ 7 7 r r r Z.                        . . . . . ",
"                                    `.r r r r 7 7 7 7 7 7 7 7 7 7 7 7 7 7 @ ,. +@ @ @ @ @ @ @ @ @ @ @ @ @ @ @ @ @ @ 7 r r r $                         . . . . . ",
"                                    .+r r r r 6.7 7 7 7 7 7 7 7 7 7 7 7 7 7 7 7 _.@ @ @ @ @ @ @ @ @ @ @ @ @ @ 8.@ @ ++r r r                           . . . . . ",
"                                  _.7 7 @+r r r #+7 7 7 7 7 7 7 7 7 7 7 7 7 7 7 7 @ @ @ @ @ @ @ U.J @ @ @ @ 7 7 G.@ r r r r                           . . . . . ",
"                                7 7 7 7 7 7 7 7 7 7 7 7 7 7 7 7 7 7 7 7 7 7 7 7 7 @ @ @ @ @ @ @ 7 7 @ @ @ @ $+7 @ %+r r r r                           . . . . . ",
"                              7 7 7 7 7 7 7 7 7 7 7 7 7 7 7 7 7 7 7 7 7 7 7 7 7 f.@ @ @ @ @ @ @ z.G.@ @ @ @ ,.7 r r r r &+7       . . . . . . . . . .           ",
"                            *+7 7 7 7 7 7 7 7 7 7 7 7 7 7 7 7 7 7 7 7 7 7 7 @ @ @ @ @ @ @ @ @ @ @ @ @ @ @ z.7 7 7 7 7 7 7 7 7     . . . . . . . . . .           ",
"                          =+7 7 7 7 7 7 7 7 7 7 7 7 7 7 7 7 7 7 7 7 7 7 7 7 @ @ @ @ @ @ @ -+7 ;+@ 2.7 7 7 7 7 7 7 7 7 7 7 7 7 >+  . . . . . . . . . .           ",
"                      ,+7 7 7 7 7 7 7 7 7 7 7 7 7 7 7 7 7 7 7 7 7 7 7 7 7 7 7 @ @ @ @ @ _.7 7 7 7 7 7 7 7 7 7 7 7 7 7 7 7 7 7 7 7 7 7 '+. . . . . . .           ",
"                      7 7 7 7 7 7 7 7 7 7 7 7 7 7 7 7 7 7 7 7 7 7 7 7 7 7 7 7 )+@ @ @ @ 7 7 7 7 7 7 7 7 7 7 7 7 7 7 7 7 7 7 7 7 7 7 7 7 !+. . . . . .           ",
"                    7 7 7 7 7 7 7 7 7 7 7 7 7 7 7 7 7 7 7 7 7 7 7 7 7 7 7 7 7 7 7 7 7 7 7 7 7 7 7 7 7 7 7 7 7 7 7 7 7 7 7 7 7 7 7 7 7 7 7 ~+                    ",
"                    7 7 7 7 7 7 7 7 7 7 7 7 7 7 7 7 7 7 7 7 7 7 7 7 7 7 7 7 7 7 7 7 7 7 7 7 7 7 7 7 7 7 7 7 7 7 7 7 7 7 7 7 7 7 7 7 7 7 7 7                     ",
"                                                                                                              . . . . . . . . . .                               ",
"                                                                                                              . . . . . . . . . .                               ",
"                                                                                                              . . . . . . . . . .                               ",
"                                                                                                                                                                ",
"                                                                                                                                                                ",
"                                                                                                                                                                ",
"                                                                                                                                                                ",
"                                                                                                                                                                "};
