/* XPM */
static char * snowBG_xpm[] = {
"80 80 2 1",
" 	c #F2EDF1",
".	c #9FD2E5",
"                                                                                ",
"                                                                                ",
"                                                                                ",
"                                                                                ",
"                                                                                ",
"               .....               .....                                        ",
"               .....               .....                                        ",
"               .....               .....                                        ",
"               .....               .....                                        ",
"               .....               .....                                        ",
"                    ...............                                             ",
"                    ...............                                             ",
"                    ...............                                             ",
"                    ...............                                             ",
"                    ...............                                             ",
"                                                                                ",
"                                                                                ",
"                                                                                ",
"                                                                                ",
"                                                                                ",
"                                                                                ",
"                                                                                ",
"                                                                                ",
"                                                                                ",
"                                                                                ",
"                                                                                ",
"                                                                                ",
"                                                                                ",
"                                                                                ",
"                                                                                ",
"                                             .....          .....               ",
"                                             .....          .....               ",
"                                             .....          .....               ",
"                                             .....          .....               ",
"                                             .....          .....               ",
"                                                  ..........                    ",
"                                                  ..........                    ",
"                                                  ..........                    ",
"                                                  ..........                    ",
"                                                  ..........                    ",
"          .....          .....                                                  ",
"          .....          .....                                                  ",
"          .....          .....                                                  ",
"          .....          .....                                                  ",
"          .....          .....                                                  ",
"               ..........                                                       ",
"               ..........                                                       ",
"               ..........                                                       ",
"               ..........                                                       ",
"               ..........                                                       ",
"                                                                                ",
"                                                                                ",
"                                                                                ",
"                                                                                ",
"                                                                                ",
"                                                                                ",
"                                                                                ",
"                                                                                ",
"                                                                                ",
"                                                                                ",
"                                        .....                              .....",
"                                        .....                              .....",
"                                        .....                              .....",
"                                        .....                              .....",
"                                        .....                              .....",
"                                             ..........          ..........     ",
"                                             ..........          ..........     ",
"                                             ..........          ..........     ",
"                                             ..........          ..........     ",
"                                             ..........          ..........     ",
"                                                       ..........               ",
"                                                       ..........               ",
"                                                       ..........               ",
"                                                       ..........               ",
"                                                       ..........               ",
"                                                                                ",
"                                                                                ",
"                                                                                ",
"                                                                                ",
"                                                                                "};
