/* XPM */
static char * stone_xpm[] = {
"80 80 259 2",
"  	c #F2EDF1",
". 	c #9FD2E5",
"+ 	c #F3EEF2",
"@ 	c #F3EFF2",
"# 	c #F1ECF0",
"$ 	c #F4F1F4",
"% 	c #F9FAFB",
"& 	c #FFFFFF",
"* 	c #FEFEFE",
"= 	c #F4F1F5",
"- 	c #F4F2F6",
"; 	c #FDFEFF",
"> 	c #F8FCFF",
", 	c #F5FAFF",
"' 	c #F6FBFF",
") 	c #FBFDFF",
"! 	c #F6FAFC",
"~ 	c #F9FAFD",
"{ 	c #F9FCFF",
"] 	c #EEF5F8",
"^ 	c #F7F8FA",
"/ 	c #FEFFFF",
"( 	c #D5E9F2",
"_ 	c #FCFDFE",
": 	c #E9F3F7",
"< 	c #F8F9FA",
"[ 	c #F5F4F7",
"} 	c #FAFDFF",
"| 	c #F7FBFF",
"1 	c #FCFEFF",
"2 	c #F7F7F9",
"3 	c #F1EDF0",
"4 	c #FBFCFD",
"5 	c #E9F7FF",
"6 	c #DEF4FF",
"7 	c #D5F1FF",
"8 	c #FCFDFD",
"9 	c #E2F5FF",
"0 	c #D8F2FF",
"a 	c #F4FAFF",
"b 	c #D7F2FF",
"c 	c #DBF3FF",
"d 	c #F9FBFD",
"e 	c #F1F9FF",
"f 	c #E7F6FF",
"g 	c #F3F1F4",
"h 	c #D6F2FF",
"i 	c #EFF9FF",
"j 	c #EAF7FF",
"k 	c #E4F6FF",
"l 	c #E4F5FF",
"m 	c #D9F3FF",
"n 	c #F3FAFF",
"o 	c #F0F9FF",
"p 	c #D4F0FF",
"q 	c #AFD2ED",
"r 	c #AFD1EC",
"s 	c #D1EEFE",
"t 	c #FDFEFE",
"u 	c #ECF8FF",
"v 	c #B2D4EE",
"w 	c #B4D5EF",
"x 	c #B9B7B8",
"y 	c #98979B",
"z 	c #B7D7F0",
"A 	c #C7E5F8",
"B 	c #DDF4FF",
"C 	c #B7D8F0",
"D 	c #B0D2ED",
"E 	c #C5E4F7",
"F 	c #E8F7FF",
"G 	c #BCBCBE",
"H 	c #BDBBBC",
"I 	c #E6E4E5",
"J 	c #DEDCDD",
"K 	c #908F93",
"L 	c #BED7E9",
"M 	c #DAF3FF",
"N 	c #FBFBFB",
"O 	c #F7F6F8",
"P 	c #EEF8FF",
"Q 	c #BDDDF3",
"R 	c #B1D3ED",
"S 	c #C3D9EA",
"T 	c #C4D5E2",
"U 	c #C3D8E7",
"V 	c #B8D8F0",
"W 	c #BCDCF3",
"X 	c #CCE9FB",
"Y 	c #C2DCEF",
"Z 	c #C2C0C1",
"` 	c #E2E0E1",
" .	c #E7E5E6",
"..	c #939296",
"+.	c #96979C",
"@.	c #CCEAFB",
"#.	c #F4F3F6",
"$.	c #B9D9F1",
"%.	c #B0BCC6",
"&.	c #B3B1B2",
"*.	c #B7B5B6",
"=.	c #BBBABB",
"-.	c #BFC8D0",
";.	c #C1DBEF",
">.	c #D4F1FF",
",.	c #CDEAFB",
"'.	c #C3CED7",
").	c #CBC9CA",
"!.	c #B4B3B8",
"~.	c #BDDAEF",
"{.	c #DFF4FF",
"].	c #EBF8FF",
"^.	c #F2EEF1",
"/.	c #D3EFFE",
"(.	c #B3D5EE",
"_.	c #A7B0B8",
":.	c #9A999D",
"<.	c #DFDDDE",
"[.	c #C1BFC0",
"}.	c #B3B2B3",
"|.	c #C0C9D1",
"1.	c #B6D6EF",
"2.	c #B2D3EE",
"3.	c #C0DBEF",
"4.	c #D2D0D1",
"5.	c #E3E1E2",
"6.	c #D5D3D6",
"7.	c #BADBF2",
"8.	c #E5F6FF",
"9.	c #C0E0F5",
"0.	c #B5D6EF",
"a.	c #9E9DA2",
"b.	c #DBD9DB",
"c.	c #C0BEBF",
"d.	c #B8B6B7",
"e.	c #BEBDC0",
"f.	c #A7A7AB",
"g.	c #AFBBC5",
"h.	c #CBE9FA",
"i.	c #EDF8FF",
"j.	c #F8F8F9",
"k.	c #BEDEF4",
"l.	c #C9E7F9",
"m.	c #9B9DA3",
"n.	c #9C9BA0",
"o.	c #D2D0D2",
"p.	c #CFCDCE",
"q.	c #C3C2C2",
"r.	c #B6B4B5",
"s.	c #BBB9BA",
"t.	c #D1CFD0",
"u.	c #BFBEC2",
"v.	c #E6F6FF",
"w.	c #BADAF2",
"x.	c #C4CFD8",
"y.	c #C4D0D9",
"z.	c #C3DBED",
"A.	c #C4D8E8",
"B.	c #A9B2BB",
"C.	c #A2A1A5",
"D.	c #BEBDC1",
"E.	c #A2A2A6",
"F.	c #9B999E",
"G.	c #C3E2F6",
"H.	c #DCF3FF",
"I.	c #C2CCD3",
"J.	c #C1C0C0",
"K.	c #C9C8C9",
"L.	c #A8A7AA",
"M.	c #9B9B9F",
"N.	c #B3B2B7",
"O.	c #BDBCC0",
"P.	c #C4D5E3",
"Q.	c #CFECFC",
"R.	c #C0BFBF",
"S.	c #B7B6BA",
"T.	c #BCBBBF",
"U.	c #B8B7BB",
"V.	c #BEBCBD",
"W.	c #BAB8B9",
"X.	c #BAD9F0",
"Y.	c #E0F4FF",
"Z.	c #FAF9FA",
"`.	c #C8E6F9",
" +	c #C5D9E7",
".+	c #BBBABF",
"++	c #CBC9CC",
"@+	c #D0CFD0",
"#+	c #BFC6CD",
"$+	c #F3F9FC",
"%+	c #F2FAFD",
"&+	c #F3FBFF",
"*+	c #CAE8FA",
"=+	c #D3D1D4",
"-+	c #BAB9BE",
";+	c #B3D4EE",
">+	c #F0FAFF",
",+	c #C0BFC3",
"'+	c #B9B8BD",
")+	c #D4D2D4",
"!+	c #D7D6D7",
"~+	c #B5D7F0",
"{+	c #D2EEFE",
"]+	c #DBF4FF",
"^+	c #AFD1ED",
"/+	c #D9D7D8",
"(+	c #B8B7BC",
"_+	c #BBBEC3",
":+	c #B1D2ED",
"<+	c #D0CECF",
"[+	c #C6C4C8",
"}+	c #B7B6BB",
"|+	c #DCDADB",
"1+	c #B6D7F0",
"2+	c #C8E7F9",
"3+	c #E4E2E3",
"4+	c #B6B5BA",
"5+	c #CAC8CB",
"6+	c #CDEBFB",
"7+	c #C3DCED",
"8+	c #BCBABB",
"9+	c #B5B4B9",
"0+	c #C0CBD3",
"a+	c #BEDAF0",
"b+	c #E9E6E8",
"c+	c #D3D2D2",
"d+	c #E1DFE0",
"e+	c #D1CFD1",
"f+	c #D3D1D3",
"g+	c #DAD8D9",
"h+	c #C2C1C4",
"i+	c #E0DEDF",
"j+	c #D0CFD1",
"k+	c #C4C3C6",
"l+	c #D1CFD2",
"m+	c #DCDADC",
"n+	c #EFEBEE",
"o+	c #EBE7EA",
"p+	c #D9D7D9",
"q+	c #CECCCF",
"r+	c #E8E4E6",
"s+	c #CFCED0",
"t+	c #DAD8DA",
"u+	c #C7C6C9",
"v+	c #C9C8CB",
"w+	c #D8D7D8",
"x+	c #D6D4D6",
"y+	c #C9C7CA",
"z+	c #D5D3D5",
"A+	c #CCCBCD",
"B+	c #B9B8BC",
"C+	c #BBBABE",
"D+	c #D0CED1",
"E+	c #EEE9ED",
"F+	c #D6D5D7",
"G+	c #C8C6C9",
"H+	c #D0CED0",
"I+	c #C7C5CA",
"J+	c #C2C0C5",
"                                                                                                                                                                ",
"                                                                                                                                                                ",
"                                                                                                                                                                ",
"                                                                                                                                                                ",
"                                                                                                                                                                ",
"                              . . . . .                               . . . . .                                                                                 ",
"                              . . . . .                               . . . . .                                                                                 ",
"                              . . . . .                               . . . . .                                                                                 ",
"                              . . . . .                               . . . . .                                                                                 ",
"                              . . . . .                               . . . . .                                                                                 ",
"                                        . . . . . . . . . . . . . . .                                                                                           ",
"                                        . . . . . . . . . . . . . . .                                                                                           ",
"                                        . . . . . . . . . . . . . . .                                                                                           ",
"                                        . . . . . . . . . . . . . . .                                                                                           ",
"                                        . . . . . . . . . . . . . . .                                                                                           ",
"                                                                                                                                                                ",
"                                                                                                                                                                ",
"                                                                                                                                                                ",
"                                                                                                                                                                ",
"                                                                                                                                                                ",
"                                                                                                                                                                ",
"                                                                                                                                                                ",
"                                                                                                                                                                ",
"                                                                                                                                                                ",
"                                                                                                                                                                ",
"                                                                                                                                                                ",
"                                                                                                                                                                ",
"                                                                                                                                                                ",
"                                                                                                                                                                ",
"                                                                                                                                                                ",
"                                                                          + @ #           . . . . .                     . . . . .                               ",
"                                                            $ % & & & & & & & & & & * = = . . . . .                     . . . . .                               ",
"                                                    - & & & & ; > , , , , , , , , ' ) & & & ! . . .                     . . . . .                               ",
"                                                ~ & & { { , , , , , , , , , , , , , , , , , ; & ] .                     . . . . .                               ",
"                                                ~ & & { { , , , , , , , , , , , , , , , , , ; & ] .                     . . . . .                               ",
"                                              ^ & & > , , , , , , , , , , , , , , , , , , , , / & % ( . . . . . . . . .                                         ",
"                                            * & ' , , , , , , , , , , , , , , , , , , , , , , , ' ; & & & & & & & & _ : < [                                     ",
"                                      [ [ & } , , , , , , , , , , , , , , , , , , , , , , , , , , , , , , | { } } } 1 & & & & 2                                 ",
"                                    3 & & > , , , , , , , , , , , , , , , , , , , , , , , , , , , , , , , , , , , , , , , , ' & 4                               ",
"                                    & , , , , , , , , , , , , , , , , , , , , , , , , , , , , , , , , , , 5 , , , , , , , , , , ; &                             ",
"                    . . . . .     # / , , , , , , , , , , , , , , , , , , , , , , , , , , , , , , , , 6 6 7 , , , , , , , , , , ' 1 8                           ",
"                    . . . . .     & , , , , , , , , , , , , , , , , , , , , , , , , , , , , , , , , 9 7 7 7 0 a , , , , , , , , , , 1 & & #                     ",
"                    . . . . .     | , , , , , , , , , , , , , , , , , , , , , , , , , , , , , , , b 7 7 7 7 7 c , , , , , , , , , , , { { & d                   ",
"                    . . . . .     | , , , , , , , , , , , , , , , , , , , , , , , , , , , , , , , b 7 7 7 7 7 c , , , , , , , , , , , { { & d                   ",
"                    . . . . .   @ , , , , , , , , , , a a e , , , , , , , , , , , , , , , , , , f 7 7 7 7 7 7 7 , , , , , , , , , , , , , ' ; g                 ",
"                              . ( , , , , , , , , , e h h 7 b i , , , , , , , , , , , , , , , , h 7 7 7 7 7 7 7 , , , , , , , , , , , , , , ' %                 ",
"                              . / , , , , , , , , j 7 7 7 7 7 7 0 , , , , , , , , , , , , , , k 7 7 7 7 7 7 7 7 l , , , , , , , , , , , , , , ) 3               ",
"                            + _ ' , , , , , , , m 7 7 7 7 7 7 7 7 7 n , , , , , , , , , , , o 7 7 7 p q q r s 7 7 , , , , , , , , , , , , , , , t               ",
"                          # & } , , , , , , , u 7 7 7 7 7 7 7 7 7 7 7 h h , , , , , , , , n 7 7 7 v w x x y z A 7 a , , , , , , , , , , , , , , { #             ",
"                          & ' , B , , , , , , 7 7 7 7 C C r r r D E 7 7 7 7 F , , , , b b 7 7 7 D G H I I J K L 7 M , , , , , , , , , , , , , , , N             ",
"                      O O / , P 7 , , , , , P 7 7 7 Q R R S T U V r W X X 7 7 l u P c 7 7 7 7 W Y Z `  . . ...+.@.7 , , , , , , , , , , , , , , , /             ",
"                      O O / , P 7 , , , , , P 7 7 7 Q R R S T U V r W X X 7 7 l u P c 7 7 7 7 W Y Z `  . . ...+.@.7 , , , , , , , , , , , , , , , /             ",
"                    #.& & , 9 7 7 h , , , , 7 7 p $.%.&.&.*.=.x &.&.-.;.;.r Q >.7 7 7 7 7 ,.r '.). . . . . .!.y ~.7 {., , , , , , ].0 F F , , , , ' ^.          ",
"                  * & , , , 7 7 7 7 7 7 7 7 7 /.(._.:.<.<.<.<.<.<.<.[.}.}.&.|.1.r r r 2.2.3.&.4.5. . . . . .6.!.K 7.7 0 0 8.u c 7 7 7 7 7 , , , , , 4           ",
"                4 } , , , k 7 7 7 7 7 7 7 7 9.0.K a.!.b.b.<.<.<.<.<.<.<.<.J c.&.&.&.&.&.&.d.<.<.<.<.<.<.<.` I e.f.g.h.7 7 7 7 7 7 7 7 7 7 i., , , , } j.j.      ",
"                & , , , , b 7 7 k.k.l.E E W r m.n.!.!.o.o.<.<.<.<.<.<.<.<.<.<.p.q.r.s.t.t.J <.<.<.<.<.<.<.<.<.u.!.K D 7 7 7 7 7 7 7 7 7 7 v., , , , ' N N       ",
"              & ' , , a a 7 7 w.x.y.z.A.A.B.K C.!.!.!.u.u.<.<.<.<.<.<.<.<.<.<.<.<.<.<.<.<.<.<.<.<.<.<.<.<.<.<.D.!.E.F.D D r Q G.@.7 7 7 7 H., , , , , { {       ",
"            ~ | , , , h h 7 v I.J.K.H L.L.M.N.!.!.!.!.!.!.<.<.<.<.<.<.<.<.<.<.<.<.<.<.<.<.<.<.<.<.<.<.<.<.<.<.O.!.!.M.&.&.&.|.P.3.(.Q.7 7 7 i , , , , , ,       ",
"          @ 1 , , 9 h 7 7 D x R. . . .S.S.!.!.!.!.!.!.!.!.<.<.<.<.<.<.<.<.<.<.<.<.<.<.<.<.<.<.<.<.<.<.<.<.<.<.T.!.!.!.U.U.p.V.W.&.&.X.7 7 7 Y., , , , , , j.    ",
"          @ 1 , , 9 h 7 7 D x R. . . .S.S.!.!.!.!.!.!.!.!.<.<.<.<.<.<.<.<.<.<.<.<.<.<.<.<.<.<.<.<.<.<.<.<.<.<.T.!.!.!.U.U.p.V.W.&.&.X.7 7 7 Y., , , , , , j.    ",
"          Z.' i 6 7 7 `.`. +V.`  . . .!.!.!.!.!.!.!.!.!.!.<.<.<.<.<.<.<.<.<.<.<.<.<.<.<.<.<.<.<.<.<.<.<.<.<.<..+!.!.!.!.!.++<.<.@+d.#+p p 7 b , , , , , , $+. . ",
"      %+%+&+7 7 7 7 *+z.z.s. . . . . .!.!.!.!.!.!.!.!.!.!.=+<.<.<.<.<.<.<.<.<.<.<.<.<.<.<.<.<.<.<.<.<.<.<.<.<.-+!.!.!.!.!.!.<.<.<.<.&.;+;+7 7 a , , , , , >+. . ",
"      >+>+7 7 7 7 D Y W.W. . . . . . .!.!.!.!.!.!.!.!.!.!.,+<.<.<.<.<.<.<.<.<.<.<.<.<.<.<.<.<.<.<.<.<.<.<.<.<.'+!.!.!.!.!.!.)+<.<.<.!+&.&.~+{+7 , , , , , ]+. . ",
"      7 7 7 7 7 ^+x x  . . . . . . . .!.!.!.!.!.!.!.!.!.!.!./+<.<.<.<.<.<.<.<.<.<.<.<.<.<.<.<.<.<.<.<.<.<.<.<.(+!.!.!.!.!.!.!.<.<.<.<.x x _+z X 7 m 5 f f 7 . . ",
"      7 7 7 ,.:+x <+ . . . . . . .I <.!.!.!.!.!.!.!.!.!.!.!.[+<.<.<.<.<.<.<.<.<.<.<.<.<.<.<.<.<.<.<.<.<.<.<.<.}+!.!.!.!.!.!.!.|+<.<.<.<.<.}.&.3.1+7 7 7 7 7 . . ",
"      2+2+l.^+x.x  . . . . . . .3+<.<.!.!.!.!.!.!.!.!.!.!.!.T.<.<.<.<.<.<.<.<.<.<.<.<.<.<.<.<.<.<.<.<.<.<.<.<.4+!.!.!.!.!.!.!.5+<.<.<.<.<.@+}.&.;+W 7 7 7 6+    ",
"      7+7+z.x 8+ . . . . .3+<.<.<.<.<.4+4+!.!.!.!.!.!.!.!.!.!.<.<.<.<.<.<.<.<.<.<.<.<.<.<.<.<.<.<.<.<.<.<.<.<.9+!.!.!.!.!.!.!.!.<.<.<.<.<.<.<.H &.0+^+r r a+    ",
"    b+p.p.W.c+ . .3+d+<.<.<.<.<.<.<.<.e+e+!.!.!.!.!.!.!.!.!.!.<.<.<.<.<.<.<.<.<.<.<.<.<.<.<.<.<.<.<.<.<.<.<.<.!.!.!.!.!.!.!.!.!.f+<.<.<.<.<.<.<.g+&.&.&.&.J     ",
"    b+p.p.W.c+ . .3+d+<.<.<.<.<.<.<.<.e+e+!.!.!.!.!.!.!.!.!.!.<.<.<.<.<.<.<.<.<.<.<.<.<.<.<.<.<.<.<.<.<.<.<.<.!.!.!.!.!.!.!.!.!.f+<.<.<.<.<.<.<.g+&.&.&.&.J     ",
"     . . . . .d+<.<.<.<.<.<.<.<.<.<.<.<.<.h+!.!.!.!.!.!.!.!.!.g+<.<.<.<.<.<.<.<.<.<.<.<.<.<.<.<.<.<.<.<.<.<.J !.!.!.!.!.!.!.!.!.!.!+<.<.<.<.<.<.<.<.<.<.<.<.    ",
"     . . .I i+<.<.<.<.<.<.<.<.<.<.<.<.<.<.j+!.!.!.!.!.!.!.!.!.[+<.<.<.<.<.<.<.<.<.<.<.<.<.<.<.<.<.<.<.<.<.<.J !.!.!.!.!.!.!.!.!.!.k+<.<.<.<.<.<.<.<.<.<.<.<.    ",
"    i+<.<.<.<.<.<.<.<.<.<.<.<.<.<.<.<.<.<.<.!.!.!.!.!.!.!.!.!.!.l+<.<.<.<.<.<.<.<.<.<.<.<.<.<.<.<.<.<.<.<.<.m+!.!.!.!.!.!.!.!.!.!.!.<.<.<.<.<.<.<.<.<.<.<.<.n+  ",
"  o+<.<.<.<.<.<.<.<.<.<.<.<.<.<.<.<.<.<.<.<.9+!.!.!.!.!.!.!.!.!.!.p+<.<.<.<.<.<.<.<.<.<.<.<.<.<.<.<.<.<.<.<.b.!.!.!.!.!.!.!.!.!.!.!.q+<.<.<.<.<.<.<.<.<.<.<.r+  ",
"  ` <.<.<.<.<.<.<.<.<.<.<.<.<.<.<.<.<.<.<.<.s+!.!.!.!.!.!.!.!.!.!.!.J <.<.<.<.<.<.<.<.<.<.<.<.<.<.<.<.<.<.<.t+!.!.!.!.!.!.!.!.!.!.!.!.<.<.<.<.<.<.<.<.<.<.<.<.  ",
"  <.<.<.<.<.<.<.<.<.<.<.<.<.<.<.<.<.<.<.<.<.<.!.!.!.!.!.!.!.!.!.!.!.!.u+u+<.<.<.<.<.<.<.<.<.<.<.<.<.<.<.<.<.p+!.!.!.!.!.!.!.!.!.!.!.!.!.!.v+|+<.<.<.<.<.<.<.<.  ",
"  <.<.<.<.<.<.<.<.<.<.<.<.<.<.<.<.<.<.<.<.<.<.!.!.!.!.!.!.!.!.!.!.!.!.!.!.<.<.<.<.<.<.<.<.<.<.<.<.<.<.<.<.<.w+!.!.!.!.!.!.!.!.!.!.!.!.!.!.!.4+t+<.<.<.<.<.<.<.  ",
"  <.<.<.<.<.<.<.<.<.<.<.<.<.<.<.<.<.<.<.<.<.<.!.!.!.!.!.!.!.!.!.!.!.!.!.!.<.<.<.<.<.<.<.<.<.<.<.<.<.<.<.<.<.w+!.!.!.!.!.!.!.!.!.!.!.!.!.!.!.4+t+<.<.<.<.<.<.<.  ",
"  <.<.<.<.<.<.<.<.<.<.<.<.<.<.<.<.x+y+T.T.4+!.!.!.!.!.!.!.!.!.!.!.!.!.!.!.4+<.<.<.<.<.<.<.<.<.<.<.<.<.l+l+D.!.!.!.!.!.!.!.!.!.!.!.!.!.!.!.!.!.!.!.z+<.<.<.<.<.  ",
"3 <.<.<.<.<.<.<.p+A+[+B+B+!.!.!.!.!.!.!.!.!.!.!.!.!.!.!.!.!.!.!.!.!.!.!.!.!.C+<.<.<.<.<.<.<.D+O.!.!.!.!.!.!.!.!.!.!.!.!.!.!.!.!.!.!.!.!.!.!.!.!.!.!.!..+.+<.<.  ",
"E+F+G+,+,+,+,+,+,+,+,+,+,+,+,+,+,+,+,+,+,+,+,+,+,+,+,+,+,+,+,+,+,+,+,+,+,+,+,+H+m+I+,+,+,+,+,+,+,+,+,+,+,+,+,+,+,+,+,+,+,+,+,+,+,+,+,+,+,+,+,+,+,+,+,+,+,+,+J+# "};
