/* XPM */
static char * wall1_xpm[] = {
"80 80 302 2",
"  	c #F2EDF1",
". 	c #F2EEF1",
"+ 	c #F2EEF2",
"@ 	c #F3EEF2",
"# 	c #F3EFF2",
"$ 	c #F4EFF3",
"% 	c #F4F0F3",
"& 	c #F3EFF3",
"* 	c #F4F0F4",
"= 	c #F3F0F4",
"- 	c #F3F0F5",
"; 	c #F3F1F5",
"> 	c #F1F1F6",
", 	c #EFF0F6",
"' 	c #EEF0F5",
") 	c #EFF0F5",
"! 	c #F1F0F5",
"~ 	c #F4F1F4",
"{ 	c #F3F2F6",
"] 	c #F3F2F7",
"^ 	c #E6EFF7",
"/ 	c #E7EFF7",
"( 	c #E8EEF6",
"_ 	c #EAEFF6",
": 	c #EEF0F6",
"< 	c #F2F1F5",
"[ 	c #F3EFF4",
"} 	c #F2EFF3",
"| 	c #F2EEF3",
"1 	c #E7F0F8",
"2 	c #EDF2F8",
"3 	c #E2EFF9",
"4 	c #E3EFF9",
"5 	c #E3EFF8",
"6 	c #E4EFF8",
"7 	c #E5EFF8",
"8 	c #EBF0F7",
"9 	c #F2F2F7",
"0 	c #F3F1F6",
"a 	c #E1EFFA",
"b 	c #DFF0FA",
"c 	c #E0F0FA",
"d 	c #E1EFF9",
"e 	c #E4F0F8",
"f 	c #EBF1F8",
"g 	c #F2F3F7",
"h 	c #F3F3F7",
"i 	c #DEF0FB",
"j 	c #DCF0FC",
"k 	c #DDF0FC",
"l 	c #DDF0FB",
"m 	c #DFF0FB",
"n 	c #E4F0F9",
"o 	c #EDF3F9",
"p 	c #F4F4F8",
"q 	c #F3F3F8",
"r 	c #DBF0FC",
"s 	c #C5DEF3",
"t 	c #C3DDF1",
"u 	c #C5DDF2",
"v 	c #C9E1F3",
"w 	c #D0E8F8",
"x 	c #D9EFFC",
"y 	c #E5F2FA",
"z 	c #F1F4FA",
"A 	c #F4F5F9",
"B 	c #F4F4F9",
"C 	c #C9E3F5",
"D 	c #D0E9FA",
"E 	c #B5D3EC",
"F 	c #B6D4EC",
"G 	c #B7D4EC",
"H 	c #BAD6ED",
"I 	c #C5E0F4",
"J 	c #D5EDFC",
"K 	c #D9F0FD",
"L 	c #DAF0FD",
"M 	c #DBF0FD",
"N 	c #DEF1FB",
"O 	c #EAF3FB",
"P 	c #F4F6FA",
"Q 	c #F4F5FA",
"R 	c #F2EDF2",
"S 	c #B4D3EC",
"T 	c #ABACAE",
"U 	c #A39B98",
"V 	c #A6A2A1",
"W 	c #B5BEC6",
"X 	c #BED6E8",
"Y 	c #B6D5EE",
"Z 	c #B5D4ED",
"` 	c #C3E0F5",
" .	c #D6EFFD",
"..	c #D8F1FE",
"+.	c #E1F2FC",
"@.	c #F0F6FB",
"#.	c #F4F6FB",
"$.	c #B9C9D6",
"%.	c #BBD8EC",
"&.	c #6E4831",
"*.	c #6F4832",
"=.	c #6F4933",
"-.	c #6F4934",
";.	c #704A36",
">.	c #775644",
",.	c #B2BAC1",
"'.	c #B8D7EF",
").	c #B1D2EC",
"!.	c #B4D5EE",
"~.	c #C8E5F8",
"{.	c #D6F1FE",
"].	c #D7F1FE",
"^.	c #D9F1FD",
"/.	c #DBF1FD",
"(.	c #E9F4FC",
"_.	c #F4F7FC",
":.	c #F2F0F4",
"<.	c #6E4731",
"[.	c #6E4730",
"}.	c #6D452D",
"|.	c #6D452E",
"1.	c #6D462E",
"2.	c #6D462F",
"3.	c #6E462F",
"4.	c #704A33",
"5.	c #B2BDC5",
"6.	c #B4D4EE",
"7.	c #B0D1EC",
"8.	c #BAD9F1",
"9.	c #D1EDFD",
"0.	c #D6F1FF",
"a.	c #E0F2FD",
"b.	c #F0F7FC",
"c.	c #6F462E",
"d.	c #71472F",
"e.	c #70472F",
"f.	c #7C5F4C",
"g.	c #BBD2E3",
"h.	c #B0D2ED",
"i.	c #C4E3F7",
"j.	c #D5F1FF",
"k.	c #DAF1FD",
"l.	c #E9F5FD",
"m.	c #F4F8FC",
"n.	c #F4F7FB",
"o.	c #F4F3F8",
"p.	c #885639",
"q.	c #875538",
"r.	c #815136",
"s.	c #784C32",
"t.	c #6E462E",
"u.	c #9E9693",
"v.	c #B7D7EF",
"w.	c #AFD1EC",
"x.	c #B7D8F1",
"y.	c #CFECFC",
"z.	c #E0F3FD",
"A.	c #F2F7FD",
"B.	c #F4F8FD",
"C.	c #865438",
"D.	c #7F5035",
"E.	c #865538",
"F.	c #7B4D33",
"G.	c #734D38",
"H.	c #B9CDDB",
"I.	c #D9F2FE",
"J.	c #EAF6FE",
"K.	c #F5F8FD",
"L.	c #988D86",
"M.	c #B7D8F0",
"N.	c #E1F3FE",
"O.	c #F2F9FE",
"P.	c #F5F9FD",
"Q.	c #835236",
"R.	c #724830",
"S.	c #C3E2F7",
"T.	c #EBF6FE",
"U.	c #F5F9FE",
"V.	c #F5F7FC",
"W.	c #7B4E33",
"X.	c #6E452E",
"Y.	c #E0F4FE",
"Z.	c #845337",
"`.	c #734830",
" +	c #B9CCDA",
".+	c #C2E2F6",
"++	c #D7F2FF",
"@+	c #E5F6FF",
"#+	c #F2FAFF",
"$+	c #F5FAFF",
"%+	c #978A82",
"&+	c #B6D7F0",
"*+	c #CEEBFC",
"=+	c #D6F2FF",
"-+	c #DDF4FF",
";+	c #E3F5FF",
">+	c #E4F6FF",
",+	c #DFF4FF",
"'+	c #D8F2FF",
")+	c #714A33",
"!+	c #B8C9D6",
"~+	c #C2E1F6",
"{+	c #D4F0FF",
"]+	c #7C4E34",
"^+	c #94867E",
"/+	c #B8D7EE",
"(+	c #B4D5EF",
"_+	c #C7E5F8",
":+	c #D4F1FF",
"<+	c #734930",
"[+	c #6F4830",
"}+	c #B7C6D1",
"|+	c #B1D3ED",
"1+	c #B3D4EE",
"2+	c #C1E0F5",
"3+	c #CCEAFB",
"4+	c #876E61",
"5+	c #BBD3E4",
"6+	c #BCDCF3",
"7+	c #BEDEF4",
"8+	c #BFDFF4",
"9+	c #B9DAF1",
"0+	c #744930",
"a+	c #7F6453",
"b+	c #B5C2CC",
"c+	c #BAD7ED",
"d+	c #815134",
"e+	c #865437",
"f+	c #794B2F",
"g+	c #7D4F34",
"h+	c #93847B",
"i+	c #A9A9AB",
"j+	c #B0B9C0",
"k+	c #B2BCC3",
"l+	c #ABADB1",
"m+	c #6C4227",
"n+	c #704529",
"o+	c #784A2E",
"p+	c #855437",
"q+	c #764A31",
"r+	c #6F4429",
"s+	c #825236",
"t+	c #7E4F32",
"u+	c #845336",
"v+	c #7E5035",
"w+	c #825235",
"x+	c #71462A",
"y+	c #72462B",
"z+	c #805034",
"A+	c #805033",
"B+	c #74472C",
"C+	c #76492D",
"D+	c #6D4227",
"E+	c #885638",
"F+	c #7A4C30",
"G+	c #7F5033",
"H+	c #75482C",
"I+	c #72462A",
"J+	c #73472B",
"K+	c #7D4D31",
"L+	c #6C4226",
"M+	c #7D4E32",
"N+	c #6A4025",
"O+	c #714529",
"P+	c #7D4E31",
"Q+	c #835235",
"R+	c #6B4126",
"S+	c #77492D",
"T+	c #74482C",
"U+	c #76492C",
"V+	c #73462B",
"W+	c #825135",
"X+	c #7B4D30",
"Y+	c #6F4428",
"Z+	c #6F4328",
"`+	c #794A2E",
" @	c #673E23",
".@	c #694025",
"+@	c #6C4126",
"@@	c #7A4B2F",
"#@	c #6B4025",
"$@	c #583318",
"%@	c #573217",
"&@	c #61391E",
"*@	c #704528",
"=@	c #6B4125",
"-@	c #6E4328",
";@	c #5A3419",
">@	c #683F23",
",@	c #75482D",
"'@	c #6D4328",
")@	c #643C21",
"!@	c #6D4327",
"~@	c #7A4C2F",
"{@	c #683F24",
"]@	c #704429",
"^@	c #593418",
"/@	c #633B20",
"(@	c #693F24",
"_@	c #6E4428",
":@	c #7C4D31",
"<@	c #7F4F33",
"                                                                                                                                                                ",
"                                                                                                                                                                ",
"                                                                                                                                                                ",
"                                                                                                                                                                ",
"                                                                                                                                                                ",
"                                                                                                                                                                ",
"                                                                                                                                                                ",
"                                                                                                                                                                ",
"                                                                                                                                                                ",
"                                                                                                                                                                ",
"                                                                                                                                                                ",
"                                                                                                                                                                ",
"                                                                                                                                                                ",
"                                                                                                                                                                ",
"                                                                                                                                                                ",
"                                                                                                                                                                ",
"                                                                                                                                                                ",
"                                                                                                                                                                ",
".                                                                                                                                                         . + @ ",
"@ @ @ + . .                                                                                                                                     . . + @ @ @ @ # ",
"# # # @ @ @ @ @ @ + . .                                                                                                             . . + @ @ @ @ @ @ # # # $ % ",
"% % % $ $ & # # @ @ @ @ @ @ @ . .                                                                                         . . @ @ @ @ @ @ @ # # & $ $ % % % * = ",
"- = * * * % % % % $ $ & # # @ @ @ @ @ .                                                                             . @ @ @ @ @ # # & $ $ % % % % * * * = - ; ; ",
"> , ' ' ) ! ; ~ ~ * * = & & & & @ + + + + +                                                                     + + + + + @ & & & & = * * ~ ~ ; ! ) ' ' , > { ] ",
"^ ^ / / ( ( _ : < ; ; - - = = [ } } } | + + + +                                                             + + + + | } } } [ = = - - ; ; < : _ ( ( / / ^ ^ 1 2 ",
"3 4 5 6 7 7 7 ^ / 8 9 { { 0 ; ; - = = & } } + + + +                                                     + + + + } } & = = - ; ; 0 { { 9 8 / ^ 7 7 7 6 5 4 3 3 a ",
"b b c a a d 3 3 4 6 e f g h ] { { ; ; - = = } } | + + +                                             + + + | } } = = - ; ; { { ] h g f e 6 4 3 3 d a a c b b i i ",
"j k k l i i i m b c c d n o p q h h ] { ; ; = = & } | + + +                                     + + + | } & = = ; ; { ] h h q p o n d c c b m i i i l k k j j r ",
"s t u v w x r j j k l i i m y z A B p h ] { 0 ; - = & } | + + +                             + + + | } & = - ; 0 { ] h p B A z y m i i l k j j r x w v u t s C D ",
"E E F G G H I J K L L M r j k N O P Q B p q h ] { ; ; = [ & | + + + R                 R + + + | & [ = ; ; { ] h q p B Q P O N k j r M L L K J I H G G F E E S S ",
"T U V W X Y S Z `  .......K L L r +.@.#.Q A B p h ] { 0 ; = [ } } + + + + + R R + + + + + } } [ = ; 0 { ] h p B A Q #.@.+.r L L K ...... .` Z S Y X W V U T $.%.",
"&.*.=.-.;.>.,.'.).!.~.{.].].]...^.K /.(._.#.P Q A p q h { 0 ; - = :.} } } + + + + } } } :.= - ; 0 { h q p A Q P #._.(./.K ^...].].].{.~.!.).'.,.>.;.-.=.*.&.<.[.",
"}.|.|.|.1.2.3.4.5.6.7.8.9.0.0.0.].]...^.a.b._.#.P Q A B p h ] { 0 ; - = = = [ [ = = = - ; 0 { ] h p B A Q P #._.b.a.^...].].0.0.0.9.8.7.6.5.4.3.2.1.|.|.|.}.}.}.",
"c.d.e.|.}.}.}.}.}.f.g.h.h.i.j.j.j.0.{.]...k.l.m._.n.#.P Q A B o.o.] ] 0 0 ; ; ; ; 0 0 ] ] o.o.B A Q P #.n._.m.l.k...].{.0.j.j.j.i.h.h.g.f.}.}.}.}.}.|.e.d.c.}.}.",
"p.p.p.q.r.s.t.}.}.}.}.u.v.w.x.y.j.j.j.0.{.]...z.A.B._._.n.#.P Q A B B o.q h h h h q o.B B A Q P #.n._._.B.A.z...].{.0.j.j.j.y.x.w.v.u.}.}.}.}.t.s.r.q.p.p.p.C.D.",
"p.p.p.p.p.p.E.F.t.}.}.}.G.H.h.h.i.j.j.j.j.0.{.].I.J.K.K.m._._.n.n.P Q Q Q B B B B Q Q Q P n.n._._.m.K.K.J.I.].{.0.j.j.j.j.i.h.h.H.G.}.}.}.t.F.E.p.p.p.p.p.p.p.p.",
"p.p.p.p.p.p.p.p.C.s.|.}.}.}.L.v.w.M.y.j.j.j.j.0.{.].N.O.P.K.K.B.B._._.#.#.#.#.#.#.#.#._._.B.B.K.K.P.O.N.].{.0.j.j.j.j.y.M.w.v.L.}.}.}.|.s.C.p.p.p.p.p.p.p.p.p.p.",
"p.p.p.p.p.p.p.p.p.p.Q.R.}.}.}.G.H.h.h.S.j.j.j.j.0.0.0.I.T.U.U.U.P.K.K.K.K.K.V.V.K.K.K.K.K.P.U.U.U.T.I.0.0.0.j.j.j.j.S.h.h.H.G.}.}.}.R.Q.p.p.p.p.p.p.p.p.p.p.p.p.",
"p.p.p.p.p.p.p.p.p.p.p.q.W.X.}.}.}.L.v.w.M.y.j.j.j.j.j.0.0.Y.O.U.U.U.U.U.U.U.U.U.U.U.U.U.U.U.U.O.Y.0.0.j.j.j.j.j.y.M.w.v.L.}.}.}.X.W.q.p.p.p.p.p.p.p.p.p.p.p.p.p.",
"p.p.p.p.p.p.p.p.p.p.p.p.p.Z.`.}.}.}.G. +h.h..+j.j.j.j.j.j.j.++@+#+$+$+$+$+$+$+$+$+$+$+$+$+#+@+++j.j.j.j.j.j.j..+h.h. +G.}.}.}.`.Z.p.p.p.p.p.p.p.p.p.p.p.p.p.p.p.",
"p.p.p.p.p.p.p.p.p.p.p.p.p.p.p.W.X.}.}.}.%+v.w.&+*+j.j.j.j.j.j.j.=+-+;+@+>+,+'+'+,+>+@+;+-+=+j.j.j.j.j.j.j.*+&+w.v.%+}.}.}.X.W.p.p.p.p.p.p.p.p.p.p.p.p.p.p.p.p.p.",
"p.p.p.p.p.p.p.p.p.p.p.p.p.p.p.p.Z.`.}.}.}.)+!+h.h.~+{+j.j.j.j.j.j.j.j.j.j.j.j.j.j.j.j.j.j.j.j.j.j.j.j.{+~+h.h.!+)+}.}.}.`.Z.p.p.p.p.p.p.p.p.p.p.p.p.p.p.p.p.p.p.",
"p.p.p.p.p.p.p.p.p.p.p.p.p.p.p.p.p.p.]+X.}.}.}.^+/+w.(+_+:+j.j.j.j.j.j.j.j.j.j.j.j.j.j.j.j.j.j.j.j.:+_+(+w./+^+}.}.}.X.]+p.p.p.p.p.p.p.p.p.p.p.p.p.p.p.p.p.p.p.p.",
"p.p.p.p.p.p.p.p.p.p.p.p.p.p.p.p.p.p.p.Z.<+}.}.}.[+}+|+w.1+2+3+:+j.j.j.j.j.j.j.j.j.j.j.j.j.j.:+3+2+1+w.|+}+[+}.}.}.<+Z.p.p.p.p.p.p.p.p.p.p.p.p.p.p.p.p.p.p.p.p.p.",
"p.p.p.p.p.p.p.p.p.p.p.p.p.p.p.p.p.p.p.p.p.]+X.}.}.}.4+5+|+w.w.h.M.6+7+8+8+6+9+9+6+8+8+7+6+M.h.w.w.|+5+4+}.}.}.X.]+p.p.p.p.p.p.p.p.p.p.p.p.p.p.p.p.p.p.p.p.p.p.p.",
"p.p.p.p.p.p.p.p.p.p.p.p.p.p.p.p.p.p.p.p.p.p.Z.0+}.}.}.}.a+b+c+|+w.w.w.w.w.w.w.w.w.w.w.w.w.w.|+c+b+a+}.}.}.}.0+Z.p.p.p.p.p.p.p.p.p.p.p.p.p.p.p.p.p.p.p.p.p.p.d+e+",
"f+p.p.p.p.p.p.p.p.p.p.p.p.p.p.p.p.p.p.p.p.p.p.p.g+t.}.}.}.}.}.[+h+i+j+k+k+l+u.u.l+k+k+j+i+h+[+}.}.}.}.}.t.g+p.p.p.p.p.p.p.p.p.p.p.p.p.p.p.p.p.p.p.p.p.p.p.f+m+n+",
"o+p.p.p.p.p.p.p.p.p.p.p.p.p.p.p.p.p.p.p.p.p.p.p.p.p+q+}.}.}.}.}.}.}.}.}.}.}.}.}.}.}.}.}.}.}.}.}.}.}.}.q+p+p.p.p.p.p.p.p.p.p.p.p.p.p.p.p.p.p.p.p.p.p.p.p.p.o+m+r+",
"q.p.p.p.p.p.p.p.p.p.p.p.p.p.p.p.p.p.p.p.p.p.p.p.p.p.p.s+q+X.}.}.}.}.}.}.}.}.}.}.}.}.}.}.}.}.}.}.X.q+s+p.p.p.p.p.p.p.p.p.p.p.p.p.p.p.p.p.p.p.p.p.p.p.p.p.p.q.t+u+",
"p.p.p.p.p.p.p.p.p.p.p.p.p.p.p.p.p.p.p.p.p.p.p.p.p.p.p.p.p.E.v+s.`.c.|.}.}.t.d.d.t.}.}.|.c.`.s.v+E.p.p.p.p.p.p.p.p.p.p.p.p.p.p.p.p.p.p.p.p.p.p.p.p.p.p.p.p.p.p.p.",
"p.p.p.p.p.p.p.p.p.p.p.p.p.p.p.p.p.p.p.p.p.p.p.p.p.p.p.p.p.p.p.p.p.p.p.p.q.p.p.p.p.q.p.p.p.p.p.p.p.p.p.p.p.p.p.p.p.p.p.p.p.p.p.p.p.p.p.p.p.p.p.p.p.p.p.p.p.p.p.p.",
"p.p.p.p.p.p.p.p.p.p.p.p.p.p.p.p.p.p.p.p.p.p.p.p.p.p.p.p.p.p.p.p.p.p.p.p.p.p.p.p.p.p.p.p.p.p.p.p.p.p.p.p.p.p.p.p.p.p.p.p.p.p.p.p.p.p.p.p.p.p.p.p.p.p.p.p.p.p.p.p.",
"p.p.p.p.p.p.p.p.p.p.p.p.p.p.p.p.p.p.p.p.p.p.p.p.p.p.p.p.p.p.p.p.p.p.p.p.p.p.p.p.p.p.p.p.p.p.p.p.p.p.p.p.p.p.p.p.p.p.p.p.p.p.p.p.p.p.p.p.p.p.p.p.p.p.p.p.p.p.p.p.",
"p.p.p.p.p.p.p.p.p.p.p.p.p.p.p.p.p.p.p.p.p.p.p.p.p.p.p.p.p.p.p.p.p.p.p.p.p.p.p.p.p.p.p.p.p.p.p.p.p.p.p.p.p.p.p.p.p.p.p.p.p.p.p.p.p.p.p.p.p.p.p.p.p.p.p.p.p.p.p.p.",
"p.p.p.p.p.p.p.p.p.p.p.p.p.p.p.p.p.p.p.p.p.p.p.p.p.p.p.p.p.p.p.p.p.p.p.p.p.p.p.p.p.p.p.p.p.p.p.p.p.p.p.p.p.p.p.p.p.p.p.p.p.p.p.p.p.p.p.p.p.p.p.p.p.p.p.p.p.p.p.p.",
"p.p.p.p.p.p.p.p.p.p.p.p.p.p.p.p.p.p.p.p.p.p.p.p.p.p.p.p.p.p.p.p.p.p.p.p.p.p.p.p.p.p.p.p.p.p.p.p.p.p.p.p.p.p.p.p.p.p.p.p.p.p.p.p.p.p.p.p.p.p.p.p.p.p.p.p.p.p.p.p.",
"p.p.p.p.p.p.p.p.p.p.p.p.p.p.p.p.p.p.p.p.p.p.p.p.p.p.p.p.p.p.p.p.p.p.p.w+x+y+u+u+y+x+w+p.p.p.p.p.p.p.p.p.p.p.p.p.p.p.p.p.p.p.p.p.p.p.p.p.p.p.p.p.p.p.p.p.p.p.p.p.",
"p.p.p.p.p.p.p.p.p.p.p.p.p.p.p.p.C.z+A+e+p.p.p.p.p.p.p.p.p.p.p.p.p.p.p.B+m+m+C+C+m+m+B+p.p.p.p.p.p.p.p.p.p.p.p.p.p.p.e+A+z+C.p.p.p.p.p.p.p.p.p.p.p.p.p.p.p.p.p.p.",
"p.p.p.p.p.p.p.p.p.p.p.p.p.p.p.f+D+m+m+D+f+E+p.p.p.p.p.p.p.p.p.p.p.p.p.C+m+m+o+o+m+m+C+p.p.p.p.p.p.p.p.p.p.p.p.p.E+f+D+m+m+D+f+p.p.p.p.p.p.p.p.p.p.p.p.p.p.p.p.p.",
"p.p.p.p.p.p.p.p.p.p.p.p.p.p.f+m+m+m+m+m+m+o+p.p.p.p.p.p.p.p.p.p.p.p.p.C.f+F+q.q.F+f+C.p.p.p.p.p.p.p.p.p.p.p.p.p.o+m+m+m+m+m+m+f+p.p.p.p.p.p.p.p.p.p.p.p.p.p.p.p.",
"G+H+I+J+K+p.p.p.p.p.p.p.p.p+m+m+m+m+m+m+m+m+u+p.p.p.p.p.p.p.p.p.p.p.p.p.p.p.p.p.p.p.p.p.p.p.p.p.p.p.p.p.p.p.p.u+m+m+m+m+m+m+m+m+p+p.p.p.p.p.p.p.p.K+J+I+H+G+p.p.",
"m+m+m+m+m+L+p.p.p.p.p.p.p.t+m+m+m+m+m+m+m+m+M+p.p.p.p.p.p.p.p.p.p.p.p.p.p.p.p.p.p.p.p.p.p.p.p.p.p.p.p.p.p.p.p.M+m+m+m+m+m+m+m+m+t+p.p.p.p.p.p.p.L+m+m+m+m+m+N+F+",
"m+m+m+m+m+m+O+p.p.p.p.p.p.t+m+m+m+m+m+m+m+m+P+p.p.p.p.p.p.p.p.p.p.p.p.p.p.p.p.p.p.p.p.p.p.p.p.p.p.p.p.p.p.p.p.P+m+m+m+m+m+m+m+m+t+p.p.p.p.p.p.O+m+m+m+m+m+m+m+L+",
"m+m+m+m+m+m+L+H+p.p.p.p.p.u+m+m+m+m+m+m+m+m+Q+p.p.p.p.p.p.p.p.p.p.p.p.p.p.p.p.p.p.p.p.p.p.p.p.p.p.p.p.p.p.p.p.Q+m+m+m+m+m+m+m+m+u+p.p.p.p.p.H+L+m+m+m+m+m+m+m+m+",
"m+m+m+m+m+n+n+R+S+p.p.p.p.p.C+m+m+m+m+m+m+T+p.p.p.p.p.p.p.p.p.p.p.p.p.p.p.p.p.p.p.p.p.p.p.p.p.p.p.p.p.p.p.p.p.p.T+m+m+m+m+m+m+C+p.p.p.p.p.S+R+n+n+m+m+m+m+m+m+m+",
"m+m+m+m+m+e+E.m+R+U+p.p.p.p.q.T+m+m+m+m+B+E.p.p.p.p.p.p.p.p.p.p.p.p.p.p.p.p.p.p.p.p.p.p.p.p.p.p.p.p.p.p.p.p.p.p.E.B+m+m+m+m+T+q.p.p.p.p.U+R+m+E.e+m+m+m+m+m+m+m+",
"m+m+m+m+m+f+F+m+m+R+V+p.p.p.p.p.W+X+X+d+p.p.p.p.p.p.p.p.p.p.p.p.p.p.p.p.p.p.p.p.p.p.p.p.p.p.p.p.p.p.p.p.p.p.p.p.p.p.d+X+X+W+p.p.p.p.p.V+R+m+m+F+f+m+m+m+m+m+m+m+",
"m+m+m+m+m+m+m+m+m+m+m+Y+p.p.p.p.p.p.p.p.p.p.p.p.p.p.p.p.p.p.p.p.p.p.p.p.p.p.p.p.p.p.p.p.p.p.p.p.p.p.p.p.p.p.p.p.p.p.p.p.p.p.p.p.p.p.Y+m+m+m+m+m+m+m+m+m+m+m+m+m+",
"m+m+m+m+m+m+m+m+m+m+m+m+L+q.p.p.p.p.p.p.p.p.p.p.p.p.p.p.p.p.p.p.p.p.p.p.p.p.p.p.p.p.p.p.p.p.p.p.p.p.p.p.p.p.p.p.p.p.p.p.p.p.p.p.q.L+m+m+m+m+m+m+m+m+m+m+m+m+m+m+",
"m+m+m+m+m+m+m+m+m+m+m+m+m+N+u+p.p.p.p.p.p.p.p.p.p.p.p.p.p.p.o+Z+Y+`+E+p.p.p.p.p.p.p.p.E+`+Y+Z+o+p.p.p.p.p.p.p.p.p.p.p.p.p.p.p.u+N+m+m+m+m+m+m+m+m+m+m+m+m+m+m+m+",
"m+m+m+m+m+m+m+m+m+m+m+m+m+m+N+f+p.p.p.p.p.p.p.p.p.p.p.p.V+N+m+m+m+m+N+H+p.p.p.p.p.p.H+N+m+m+m+m+N+V+p.p.p.p.p.p.p.p.p.p.p.p.f+N+m+m+m+m+m+m+m+m+m+m+m+m+m+m+m+m+",
"m+m+m+m+m+R+ @.@m+m+m+m+m+m+m++@D+p+p.p.p.p.p.p.p.p.@@N+m+m+m+m+m+m+m+m+#@u+p.p.u+#@m+m+m+m+m+m+m+m+N+@@p.p.p.p.p.p.p.p.p+D++@m+m+m+m+m+m+m+.@ @R+m+m+m+m+m+m+m+",
"m+m+m+m+ @$@%@%@&@m+m+m+m+m+m+m+m+N+*@u+p.p.p.p.G+=@m+m+-@m+m+m+m+m+m+m+m+N+F+F+N+m+m+m+m+m+m+m+m+-@m+m+=@G+p.p.p.p.u+*@N+m+m+m+m+m+m+m+m+&@%@%@$@ @m+m+m+m+m+m+",
"m+m+m+m+;@%@%@%@%@>@m+m+m+m+m+m+m+m+m+R+N++@+@N+L+m+,@e+p.A+'@m+m+m+m+m+m+m+R+R+m+m+m+m+m+m+m+'@A+p.e+,@m+L+N++@+@N+R+m+m+m+m+m+m+m+m+m+>@%@%@%@%@;@m+m+m+m+m+m+",
"m+m+m+R+%@%@%@%@%@)@m+m+m+m+m+m+m+m+m+m+m+m+m+m+m+!@q.p.p.p.~@m+m+m+m+m+m+m+m+m+m+m+m+m+m+m+m+~@p.p.p.q.!@m+m+m+m+m+m+m+m+m+m+m+m+m+m+m+)@%@%@%@%@%@R+m+m+m+m+m+",
"m+m+m+m+;@%@%@%@%@{@m+m+m+m+m+m+m+m+m+m+m+m+m+m+m+]@p.p.p.p.M+m+m+m+m+m+m+m+m+m+m+m+m+m+m+m+m+M+p.p.p.p.]@m+m+m+m+m+m+m+m+m+m+m+m+m+m+m+{@%@%@%@%@;@m+m+m+m+m+m+",
"m+m+m+m+{@^@%@%@/@m+m+m+m+m+m+m+m+m+m+m+m+m+m+m+m+m+Q+p.p.p.H+m+m+m+m+m+m+m+m+m+m+m+m+m+m+m+m+H+p.p.p.Q+m+m+m+m+m+m+m+m+m+m+m+m+m+m+m+m+m+/@%@%@^@{@m+m+m+m+m+m+",
"m+m+m+m+m++@(@R+m+m+m+m+m+m+m+m+m+m+m+m+m+m+m+m+m+m+_@:@<@,@m+m+m+m+m+m+m+m+m+m+m+m+m+m+m+m+m+m+,@<@:@_@m+m+m+m+m+m+m+m+m+m+m+m+m+m+m+m+m+m+R+(@+@m+m+m+m+m+m+m+",
"m+m+m+m+m+m+m+m+m+m+m+m+m+m+m+m+m+m+m+m+m+m+m+m+m+m+m+m+m+m+m+m+m+m+m+m+m+m+m+m+m+m+m+m+m+m+m+m+m+m+m+m+m+m+m+m+m+m+m+m+m+m+m+m+m+m+m+m+m+m+m+m+m+m+m+m+m+m+m+m+",
"m+m+m+m+m+m+m+m+m+m+m+m+m+m+m+m+m+m+m+m+m+m+m+m+m+m+m+m+m+m+m+m+m+m+m+m+m+m+m+m+m+m+m+m+m+m+m+m+m+m+m+m+m+m+m+m+m+m+m+m+m+m+m+m+m+m+m+m+m+m+m+m+m+m+m+m+m+m+m+m+"};
