/* XPM */
static char * wallbis1_xpm[] = {
"82 82 108 2",
"  	c #573217",
". 	c #583217",
"+ 	c #593318",
"@ 	c #593419",
"# 	c #5B351A",
"$ 	c #663D23",
"% 	c #663F23",
"& 	c #5F381D",
"* 	c #583318",
"= 	c #613A1F",
"- 	c #694025",
"; 	c #633B20",
"> 	c #5D371C",
", 	c #5E381D",
"' 	c #583218",
") 	c #5A351A",
"! 	c #5D361B",
"~ 	c #663E23",
"{ 	c #5B361A",
"] 	c #683F24",
"^ 	c #643C21",
"/ 	c #563117",
"( 	c #563217",
"_ 	c #522F16",
": 	c #4E2C15",
"< 	c #4E2D15",
"[ 	c #543016",
"} 	c #412611",
"| 	c #3F2411",
"1 	c #442612",
"2 	c #533016",
"3 	c #422611",
"4 	c #482913",
"5 	c #522F15",
"6 	c #412511",
"7 	c #432612",
"8 	c #583319",
"9 	c #4D2C15",
"0 	c #422612",
"a 	c #402511",
"b 	c #60391E",
"c 	c #5F391E",
"d 	c #5C361B",
"e 	c #512E15",
"f 	c #4A2A14",
"g 	c #4C2B14",
"h 	c #5F381E",
"i 	c #623A20",
"j 	c #5D361C",
"k 	c #462812",
"l 	c #593319",
"m 	c #653D23",
"n 	c #6C4227",
"o 	c #6A4025",
"p 	c #653C22",
"q 	c #543017",
"r 	c #553117",
"s 	c #5A3319",
"t 	c #4A2A13",
"u 	c #482912",
"v 	c #4A2B13",
"w 	c #553016",
"x 	c #563116",
"y 	c #683E23",
"z 	c #5C351A",
"A 	c #5A3419",
"B 	c #553116",
"C 	c #543116",
"D 	c #4E2D14",
"E 	c #462813",
"F 	c #442712",
"G 	c #663D22",
"H 	c #492A13",
"I 	c #5E371C",
"J 	c #6B4126",
"K 	c #653D22",
"L 	c #502E14",
"M 	c #402411",
"N 	c #683F25",
"O 	c #422512",
"P 	c #532F16",
"Q 	c #673D23",
"R 	c #472813",
"S 	c #5E371D",
"T 	c #4F2D14",
"U 	c #492913",
"V 	c #4B2B14",
"W 	c #452812",
"X 	c #472812",
"Y 	c #4E2C14",
"Z 	c #553017",
"` 	c #452813",
" .	c #4B2A14",
"..	c #4C2C14",
"+.	c #533015",
"@.	c #482A13",
"#.	c #502E15",
"$.	c #4A2B14",
"%.	c #4F2D15",
"&.	c #452713",
"*.	c #452712",
"=.	c #412512",
"-.	c #472913",
";.	c #4B2B13",
">.	c #432611",
",.	c #523016",
"'.	c #4B2A13",
").	c #452612",
"                                                                                                                                                                    ",
"                                                                                                                                                                    ",
"                                                                                                                                                                    ",
"                                                                                                  .                                                                 ",
"                                                                                        + @                                                                         ",
"                                                                                      # $ % & *                                                                     ",
"                                                                                      = - - ; *                                                                     ",
"                                                                                      & - - = *                                                                     ",
"                                                                                        > , +                                                                       ",
"                                                                                                                                                                    ",
"                                                                                                                                                                    ",
"                                                                                                                                                                    ",
"                                                                                                                            ' '                                     ",
"                                                                                                                            . * .                                   ",
"                                                                                                                              .                                     ",
"                                                                                          * *                               * *                                     ",
"                                                                                  ) +     @ *                               . *                                     ",
"                                                                                ! - ~ @   @ *                                                                       ",
"                                                                                { ] ^ +   + *                                                                       ",
"                                                                                  *         *                                                                       ",
"                                                                                            * *                                                                     ",
"                                                                                              *                                                                     ",
"                                / (                                                                                                                                 ",
"                            ( _ : < [                                                                                                                               ",
"                            < } | | 1 2                                                                                                                             ",
"                          [ 3 | | | | 4 /                                                                                                                           ",
"                          5 6 | | | | 7 /                                                                                                                           ",
"                          [ 7 | | | | 4 /                                                             8 # *                                                         ",
"                            9 0 a a 1 2                                                               b c d                                                         ",
"                              e f g [                                                                 h i j                                                         ",
"                                                                                                      * ) *                                                         ",
"                                                                                    2 /                                                                             ",
"                                                                                  ( k _                                                                             ",
"                                                                                                                                        .                           ",
"                                                                                                                                                                    ",
"                                                                                                                                                                    ",
"                                                                                          + h c l                                                                   ",
"                                                                                        . m n n $                                                                   ",
"                                                                                        + - n n o *                                                                 ",
"                                          (                                             . $ n n p                                                                   ",
"                                        q < r                                             + h c s                                                                   ",
"                                      ( k | t                                                                                                                       ",
"                                      ( u 6 v                                                                                                                       ",
"                                        w e x                                                                                                                       ",
"                                                                                                                                                                    ",
"                                                                                                                                                                    ",
"                                                                                                                                                                    ",
"                                                                                                                                                          . * *     ",
"                                                                                                                                                                    ",
"                                                                                                    # l                                                 .           ",
"                                                                                                  @ y ^                                                 *           ",
"                                                                                                    z A                                                             ",
"                                                                                                                                                                    ",
"                                                                                                                                                                    ",
"                      / B [ C /                                                                                                             ' A @ +                 ",
"                    B D E F k g B                                                                                                         @ ^ - - G @               ",
"                  B H | | | | | k [                                                                                                     . I J n n J K               ",
"                  L M | | | | | M H                                                                                                     * ; n n n n N +             ",
"                / E | | | | | | | O B                                                                                                   ' h n n n n $               ",
"                r 7 | | | | | | | O P                                                                                                     A Q J J ] d               ",
"                / R | | | | | | | 7 w                               (                                                                       A I S #                 ",
"                ( T a | | | | | a U                           ( P V W X Y r                                                                   ' '                   ",
"                  Z 4 6 | | | 6 W [                           5 0 | | | M E r                                                                                       ",
"                    B g ` 7 F  .2                           r E | | | | | 6 ..                                                                                      ",
"                        ( x (                               +.| | | | | | M E (                                                                                     ",
"                                                            5 | | | | | | | F (                                                                                     ",
"                                                            B 6 | | | | | a @.                                                                                      ",
"                                                            / g M | | | | 7 #.                                                                                      ",
"                                                              r $.6 M M 7 %.                                                                                        ",
"                                                                  C #.5 x                                                                 B w B (                   ",
"                                                                                                                                      [ H &.1 W V C                 ",
"                                                                                                                                    2 *.a | | | =.-.B               ",
"                                                                                                                                  B v | | | | | | 6 ;.              ",
"                                                                                                                                  [ >.| | | | | | | W B             ",
"                                                                                                                                  [ M | | | | | | | *.[             ",
"                                                                                                                                  [ O | | | | | | | &.B             ",
"                                                                                                                                  B t | | | | | | 6 f               ",
"                                                                                                                                    _ F | | | | M R [               ",
"                                                                                                                                    ( ,.'.).0 *.g 2                 ",
"                                                                                                                                        ( B [ B /                   ",
"                                                                                                                                                                    ",
"                                                                                                                                                                    "};
