/* XPM */
static char * wallR_xpm[] = {
"80 80 302 2",
"  	c #F2EDF1",
". 	c #F3EEF2",
"+ 	c #F3EFF2",
"@ 	c #F4F0F3",
"# 	c #F3F0F4",
"$ 	c #F3F1F5",
"% 	c #F3F2F7",
"& 	c #EDF2F8",
"* 	c #E1EFFA",
"= 	c #DEF0FB",
"- 	c #DBF0FC",
"; 	c #D0E9FA",
"> 	c #B4D3EC",
", 	c #BBD8EC",
"' 	c #6E4730",
") 	c #6D452D",
"! 	c #7F5035",
"~ 	c #885639",
"{ 	c #865437",
"] 	c #704529",
"^ 	c #6F4429",
"/ 	c #845336",
"( 	c #7A4C30",
"_ 	c #6C4226",
": 	c #6C4227",
"< 	c #F2EEF2",
"[ 	c #F4EFF3",
"} 	c #F4F0F4",
"| 	c #F3F2F6",
"1 	c #E7F0F8",
"2 	c #E2EFF9",
"3 	c #DCF0FC",
"4 	c #C9E3F5",
"5 	c #B9C9D6",
"6 	c #6E4731",
"7 	c #865438",
"8 	c #815134",
"9 	c #7E4F32",
"0 	c #6A4025",
"a 	c #F2EEF1",
"b 	c #F3F0F5",
"c 	c #F1F1F6",
"d 	c #E6EFF7",
"e 	c #DFF0FA",
"f 	c #C5DEF3",
"g 	c #B5D3EC",
"h 	c #ABACAE",
"i 	c #6E4831",
"j 	c #6F462E",
"k 	c #794B2F",
"l 	c #784A2E",
"m 	c #875538",
"n 	c #7F5033",
"o 	c #EFF0F6",
"p 	c #E3EFF9",
"q 	c #DDF0FC",
"r 	c #C3DDF1",
"s 	c #A39B98",
"t 	c #6F4832",
"u 	c #6D452E",
"v 	c #71472F",
"w 	c #75482C",
"x 	c #EEF0F5",
"y 	c #E7EFF7",
"z 	c #E3EFF8",
"A 	c #E0F0FA",
"B 	c #C5DDF2",
"C 	c #B6D4EC",
"D 	c #A6A2A1",
"E 	c #6F4933",
"F 	c #70472F",
"G 	c #72462A",
"H 	c #E4EFF8",
"I 	c #DDF0FB",
"J 	c #C9E1F3",
"K 	c #B7D4EC",
"L 	c #B5BEC6",
"M 	c #6F4934",
"N 	c #73472B",
"O 	c #6B4126",
"P 	c #EFF0F5",
"Q 	c #E8EEF6",
"R 	c #E5EFF8",
"S 	c #D0E8F8",
"T 	c #BED6E8",
"U 	c #704A36",
"V 	c #6D462E",
"W 	c #815136",
"X 	c #7D4D31",
"Y 	c #673E23",
"Z 	c #5A3419",
"` 	c #573217",
" .	c #683F24",
"..	c #F3EFF3",
"+.	c #F1F0F5",
"@.	c #E1EFF9",
"#.	c #D9EFFC",
"$.	c #BAD6ED",
"%.	c #B6D5EE",
"&.	c #775644",
"*.	c #6D462F",
"=.	c #784C32",
"-.	c #583318",
";.	c #593418",
">.	c #6C4126",
",.	c #EAEFF6",
"'.	c #C5E0F4",
").	c #B2BAC1",
"!.	c #6E462F",
"~.	c #6E462E",
"{.	c #865538",
"].	c #714529",
"^.	c #693F24",
"/.	c #F4F1F4",
"(.	c #EEF0F6",
"_.	c #DFF0FB",
":.	c #D5EDFC",
"<.	c #B5D4ED",
"[.	c #B8D7EF",
"}.	c #704A33",
"|.	c #7B4D33",
"1.	c #694025",
"2.	c #F2F1F5",
"3.	c #D9F0FD",
"4.	c #C3E0F5",
"5.	c #B1D2EC",
"6.	c #B2BDC5",
"7.	c #77492D",
"8.	c #61391E",
"9.	c #633B20",
"0.	c #EBF0F7",
"a.	c #DAF0FD",
"b.	c #D6EFFD",
"c.	c #B4D5EE",
"d.	c #B4D4EE",
"e.	c #7C5F4C",
"f.	c #76492C",
"g.	c #683F23",
"h.	c #643C21",
"i.	c #F2F2F7",
"j.	c #E4F0F8",
"k.	c #D8F1FE",
"l.	c #C8E5F8",
"m.	c #B0D1EC",
"n.	c #BBD2E3",
"o.	c #835236",
"p.	c #73462B",
"q.	c #EBF1F8",
"r.	c #DBF0FD",
"s.	c #D6F1FE",
"t.	c #BAD9F1",
"u.	c #B0D2ED",
"v.	c #9E9693",
"w.	c #724830",
"x.	c #6F4428",
"y.	c #F2F3F7",
"z.	c #E4F0F9",
"A.	c #D7F1FE",
"B.	c #D1EDFD",
"C.	c #B7D7EF",
"D.	c #734D38",
"E.	c #7B4E33",
"F.	c #F3F1F6",
"G.	c #F3F3F7",
"H.	c #EDF3F9",
"I.	c #D6F1FF",
"J.	c #C4E3F7",
"K.	c #AFD1EC",
"L.	c #B9CDDB",
"M.	c #6E452E",
"N.	c #845337",
"O.	c #855437",
"P.	c #F4F4F8",
"Q.	c #E5F2FA",
"R.	c #D5F1FF",
"S.	c #B7D8F1",
"T.	c #988D86",
"U.	c #734830",
"V.	c #76492D",
"W.	c #F3EFF4",
"X.	c #F3F3F8",
"Y.	c #F1F4FA",
"Z.	c #DEF1FB",
"`.	c #CFECFC",
" +	c #74482C",
".+	c #F2EFF3",
"++	c #F4F5F9",
"@+	c #EAF3FB",
"#+	c #D9F1FD",
"$+	c #6D4227",
"%+	c #825135",
"&+	c #F4F4F9",
"*+	c #F4F6FA",
"=+	c #E1F2FC",
"-+	c #B7D8F0",
";+	c #805034",
">+	c #7B4D30",
",+	c #F4F5FA",
"'+	c #F0F6FB",
")+	c #DBF1FD",
"!+	c #7C4E34",
"~+	c #805033",
"{+	c #704528",
"]+	c #F2EEF3",
"^+	c #F4F6FB",
"/+	c #E9F4FC",
"(+	c #C3E2F7",
"_+	c #B9CCDA",
":+	c #F4F7FC",
"<+	c #E0F2FD",
"[+	c #978A82",
"}+	c #734930",
"|+	c #74472C",
"1+	c #F0F7FC",
"2+	c #DAF1FD",
"3+	c #714A33",
"4+	c #885638",
"5+	c #E9F5FD",
"6+	c #C2E2F6",
"7+	c #B8C9D6",
"8+	c #7D4E32",
"9+	c #7D4E31",
"0+	c #835235",
"a+	c #F4F8FC",
"b+	c #E0F3FD",
"c+	c #B6D7F0",
"d+	c #94867E",
"e+	c #744930",
"f+	c #F2F7FD",
"g+	c #D9F2FE",
"h+	c #CEEBFC",
"i+	c #B8D7EE",
"j+	c #6F4830",
"k+	c #7D4F34",
"l+	c #F4F7FB",
"m+	c #F4F8FD",
"n+	c #EAF6FE",
"o+	c #C2E1F6",
"p+	c #B7C6D1",
"q+	c #6B4125",
"r+	c #6D4327",
"s+	c #704429",
"t+	c #F5F8FD",
"u+	c #E1F3FE",
"v+	c #D4F0FF",
"w+	c #B4D5EF",
"x+	c #B1D3ED",
"y+	c #876E61",
"z+	c #764A31",
"A+	c #7A4B2F",
"B+	c #75482D",
"C+	c #6E4428",
"D+	c #F2F9FE",
"E+	c #C7E5F8",
"F+	c #BBD3E4",
"G+	c #825236",
"H+	c #7C4D31",
"I+	c #F5F9FD",
"J+	c #EBF6FE",
"K+	c #D4F1FF",
"L+	c #B3D4EE",
"M+	c #7F6453",
"N+	c #6E4328",
"O+	c #7F4F33",
"P+	c #F5F9FE",
"Q+	c #E0F4FE",
"R+	c #C1E0F5",
"S+	c #B5C2CC",
"T+	c #D7F2FF",
"U+	c #CCEAFB",
"V+	c #BAD7ED",
"W+	c #7E5035",
"X+	c #6D4328",
"Y+	c #7A4C2F",
"Z+	c #F4F3F8",
"`+	c #E5F6FF",
" @	c #6F4328",
".@	c #F2FAFF",
"+@	c #D6F2FF",
"@@	c #93847B",
"#@	c #F2F0F4",
"$@	c #F5FAFF",
"%@	c #DDF4FF",
"&@	c #BCDCF3",
"*@	c #A9A9AB",
"=@	c #794A2E",
"-@	c #F2EDF2",
";@	c #E3F5FF",
">@	c #BEDEF4",
",@	c #B0B9C0",
"'@	c #BFDFF4",
")@	c #B2BCC3",
"!@	c #825235",
"~@	c #E4F6FF",
"{@	c #71462A",
"]@	c #6B4025",
"^@	c #DFF4FF",
"/@	c #ABADB1",
"(@	c #72462B",
"_@	c #F5F7FC",
":@	c #D8F2FF",
"<@	c #B9DAF1",
"                                    . + @ # $ % & * = - ; > , ' ) ) ! ~ ~ ~ ~ ~ ~ ~ ~ ~ ~ { ] ^ / ~ ~ ~ ~ ~ ~ ~ ~ ~ ~ ~ ~ ( _ : : : : : : : : : : : : : : : : : ",
"                                    < . [ } $ | 1 2 = 3 4 > 5 6 ) ) 7 ~ ~ ~ ~ ~ ~ ~ ~ ~ ~ 8 : : 9 ~ ~ ~ ~ ~ ~ ~ ~ ~ ~ ~ ~ 0 : : : : : : : : : : : : : : : : : : ",
"                                    a . + @ b c d 2 e 3 f g h i ) j ~ ~ ~ ~ ~ ~ ~ ~ ~ ~ ~ ~ k l m ~ ~ ~ ~ ~ ~ ~ ~ ~ ~ ~ n : : : : : : : : : : : : : : : : : : : ",
"                                      . + @ # o d p e q r g s t u v ~ ~ ~ ~ ~ ~ ~ ~ ~ ~ ~ ~ ~ ~ ~ ~ ~ ~ ~ ~ ~ ~ ~ ~ ~ ~ w : : : : : : : : : : : : : : : : : : : ",
"                                      . + @ } x y z A q B C D E u F ~ ~ ~ ~ ~ ~ ~ ~ ~ ~ ~ ~ ~ ~ ~ ~ ~ ~ ~ ~ ~ ~ ~ ~ ~ ~ G : : : : : : : : : : : : : : : : : : : ",
"                                      < . [ } x y H * I J K L M u u m ~ ~ ~ ~ ~ ~ ~ ~ ~ ~ ~ ~ ~ ~ ~ ~ ~ ~ ~ ~ ~ ~ ~ ~ ~ N : : : : : : : : : : : : : O : : : : : ",
"                                      a . [ } P Q R * = S K T U V ) W ~ ~ ~ ~ ~ ~ ~ ~ ~ ~ ~ ~ ~ ~ ~ ~ ~ ~ ~ ~ ~ ~ ~ ~ ~ X : : : : : : : : : : : Y Z ` Z  .: : : ",
"                                      a . ..@ +.Q R @.= #.$.%.&.*.) =.~ ~ ~ ~ ~ ~ ~ ~ ~ ~ ~ ~ ~ ~ ~ ~ ~ ~ ~ ~ ~ ~ ~ ~ ~ ~ _ : : ] { k : : : : O -.` ` ` ;.>.: : ",
"                                        . + @ $ ,.R 2 = - '.> ).!.) ~.{.~ ~ ~ ~ ~ ~ ~ ~ ~ ~ ~ ~ ~ ~ ~ ~ ~ ~ ~ ~ ~ ~ ~ ~ ~ ~ ]._ ] {.( : : : : Y ` ` ` ` ` ^.: : ",
"                                        . + @ /.(.d 2 _.3 :.<.[.}.) ) |.~ ~ ~ ~ ~ ~ ~ ~ ~ ~ ~ ~ ~ ~ ~ ~ ~ ~ ~ ~ ~ ~ ~ ~ ~ ~ ~ w O : : : : : : 1.` ` ` ` ` O : : ",
"                                        . . @ /.2.y p e 3 3.4.5.6.) ) ~.7 ~ ~ ~ ~ ~ ~ ~ ~ ~ ~ ~ ~ ~ ~ ~ ~ ~ ~ ~ ~ ~ ~ ~ ~ ~ ~ ~ 7.O : : : : : : 8.` ` ` 9.: : : ",
"                                        < . [ } $ 0.H A q a.b.c.d.e.) ) =.~ ~ ~ ~ ~ ~ ~ ~ ~ ~ ~ ~ ~ ~ ~ ~ ~ ~ ~ ~ ~ ~ ~ ~ ~ ~ ~ ~ f.O : : : : : : g.h. .: : : : ",
"                                        a . [ } $ i.j.A I a.k.l.m.n.) ) u o.~ ~ ~ ~ ~ ~ ~ ~ ~ ~ ~ ~ ~ ~ ~ ~ ~ ~ ~ ~ ~ ~ ~ ~ ~ ~ ~ ~ p.: : : : : : : : : : : : : ",
"                                        a . ..# b | q.@.= r.k.s.t.u.v.) ) w.m ~ ~ ~ ~ ~ ~ ~ ~ ~ ~ ~ ~ ~ ~ ~ ~ ~ ~ ~ ~ ~ ~ ~ ~ ~ ~ ~ ~ x.: : : : : : : : : : : : ",
"                                          . + ..b | y.z.= - k.A.B.u.C.D.) ) E.~ ~ ~ ~ ~ ~ ~ ~ ~ ~ ~ ~ ~ ~ ~ ~ ~ ~ ~ ~ ~ ~ ~ ~ ~ ~ ~ ~ ~ _ : : : : : : : : : : : ",
"                                          . + ..# F.G.H._.3 3.A.I.J.K.L.) ) M.N.~ ~ ~ ~ ~ ~ ~ ~ ~ ~ ~ ~ ~ ~ ~ ~ ~ ~ ~ ~ O.9 9 / ~ ~ ~ ~ m 0 : : : : : : : : : : ",
"                                          . . ..# $ % P.Q.q a.A.I.R.S.u.T.) ) U.~ ~ ~ ~ ~ ~ ~ ~ ~ ~ ~ ~ ~ ~ ~ ~ ~ ~ ~ k : : : : V.m ~ ~ ~ / 0 : : : : : : : : : ",
"                                          a . ..W.$ | X.Y.Z.a.k.I.R.`.u.C.D.) ) E.~ ~ ~ ~ ~ ~ ~ ~ ~ ~ ~ ~ ~ ~ ~ ~ ~ k : : : : : :  +~ ~ ~ ~ k >.: : : : : : : : ",
"                                          a . . .+b | G.++@+- #+A.R.R.J.K.L.) ) M.N.~ ~ ~ ~ ~ ~ ~ ~ ~ ~ ~ ~ ~ ~ ~ 7 $+: : : : : : : %+~ ~ ~ ~ $+: : : : : : : : ",
"                                            . < .+# $ G.&+*+=+3.A.I.R.R.-+u.T.) ) U.~ ~ ~ ~ ~ ~ ~ ~ ~ ~ ~ ~ ~ ~ ~ ;+: : : : : : : : >+~ ~ ~ ~ O.0 : : : : : : : ",
"                                            . < .+# $ % P.,+'+)+k.s.R.R.`.u.C.D.) ) !+~ ~ ~ ~ ~ ~ ~ ~ ~ ~ ~ ~ ~ ~ ~+: : : : : : : : >+~ ~ ~ ~ ~ {+: : : : : : : ",
"                                            a < ]+..b | G.&+^+/+#+A.I.R.R.(+K._+) ) M.N.~ ~ ~ ~ ~ ~ ~ ~ ~ ~ ~ ~ ~ { $+: : : : : : : 8 ~ ~ ~ ~ ~ / O : : : : : : ",
"                                              < < .+# $ % P.,+:+<+k.s.R.R.R.-+u.[+) ) }+~ ~ ~ ~ ~ ~ ~ ~ ~ ~ ~ ~ ~ ~ k : : : : : : |+~ ~ ~ ~ ~ ~ ~ 0 : : : : : : ",
"                                              < < .+# $ | X.++^+1+2+A.I.R.R.`.u.C.3+) ) !+~ ~ ~ ~ ~ ~ ~ ~ ~ ~ ~ ~ ~ 4+l : : : :  +{.~ ~ ~ ~ ~ ~ ~ >.: : : : : : ",
"                                                < < .+# F.G.&+*+:+5+k.s.R.R.R.6+K.7+) ) M.N.~ ~ ~ ~ ~ ~ ~ ~ ~ ~ ~ ~ ~ ~ / 8+9+0+~ ~ ~ ~ ~ ~ ~ ~ ~ >.: : : : : : ",
"                                                < < .+# $ % P.,+^+a+b+A.I.R.R.R.c+u.d+) ) e+~ ~ ~ ~ ~ ~ ~ ~ ~ ~ ~ ~ ~ ~ ~ ~ ~ ~ ~ ~ ~ ~ ~ ~ ~ ~ ~ 0 : : : : : : ",
"                                                  < ]+..b | G.++*+:+f+g+s.I.R.R.h+u.i+j+) ) k+~ ~ ~ ~ ~ ~ ~ ~ ~ ~ ~ ~ ~ ~ ~ ~ ~ ~ ~ ~ ~ ~ ~ ~ ~ n _ : : : : : : ",
"                                                  < < .+# $ % P.,+l+m+n+A.I.R.R.R.o+K.p+) ) ~.O.~ ~ ~ ~ ~ ~ ~ ~ ~ ~ ~ ~ ~ ~ ~ ~ ~ ~ ~ ~ ~ ~ ~ ~ q+: r+s+: : : : ",
"                                                    < ]+..$ | X.++^+:+t+u+I.R.R.R.v+w+x+y+) ) z+~ ~ ~ ~ ~ ~ ~ ~ ~ ~ ~ ~ ~ ~ ~ ~ ~ ~ ~ ~ ~ ~ ~ A+: B+m ~ 0+C+: : ",
"                                                    < < .+# F.G.&+*+:+t+D+g+I.R.R.R.E+K.F+) ) ) G+~ ~ ~ ~ ~ ~ ~ ~ ~ ~ ~ ~ ~ ~ ~ ~ ~ ~ ~ ~ ~ ~ 0 : { ~ ~ ~ H+: : ",
"                                                      < ]+W.$ | P.,+l+a+I+J+I.R.R.R.K+L+x+M+) ) z+~ ~ ~ ~ ~ ~ ~ ~ ~ ~ ~ ~ ~ ~ ~ ~ ~ ~ ~ ~ ~ p.: N+~ ~ ~ ~ O+: : ",
"                                                      < < ..# F.G.++^+:+t+P+Q+R.R.R.R.R+K.S+) ) M.{.~ ~ ~ ~ ~ ~ ~ ~ ~ ~ ~ ~ ~ ~ ~ ~ ~ ~ ~ ~ 0 : : ~+~ ~ ~ B+: : ",
"                                                        < ]+W.$ % &+*+:+t+P+D+T+R.R.R.U+K.V+) ) ) W+~ ~ ~ ~ ~ ~ ~ ~ ~ ~ ~ ~ ~ ~ ~ ~ ~ ~ ~ l : : : X+Y+8+w : : : ",
"                                                        < < .+b | Z+,+l+m+P+P+`+R.R.R.K+u.x+j+) ) =.~ ~ ~ ~ ~ ~ ~ ~ ~ ~ ~ ~ ~ ~ ~ ~ ~ ~ ~  @: : : : : : : : : : ",
"                                                          < .+# F.Z+++l+m+I+P+.@+@R.R.R.-+K.@@) ) U.~ ~ ~ ~ ~ ~ ~ ~ ~ ~ ~ ~ ~ ~ ~ ~ ~ ~ ~ x.: : : : : : : : : : ",
"                                                          < < #@$ % &+*+:+t+P+$@%@R.R.R.&@K.*@) ) j ~ ~ ~ ~ ~ ~ ~ ~ ~ ~ ~ ~ ~ ~ ~ ~ ~ ~ ~ =@: : : : : : : : : : ",
"                                                          -@< .+b % &+,+:+t+P+$@;@R.R.R.>@K.,@) ) u ~ ~ ~ ~ ~ ~ ~ ~ ~ ~ ~ ~ ~ ~ ~ ~ ~ ~ ~ 4+0 : : : : : : : : : ",
"                                                            < .+# F.Z+,+^+t+P+$@`+R.R.R.'@K.)@) ) ) ~ ~ ~ ~ ~ ~ !@|+V.7 ~ ~ ~ ~ ~ ~ ~ ~ ~ ~ w : : : : : : : : : ",
"                                                            < .+# F.X.,+^+t+P+$@~@R.R.R.'@K.)@) ) ) m ~ ~ ~ ~ ~ {@: : k ~ ~ ~ ~ ~ ~ ~ ~ ~ ~ ~ ]@: : : : : : : : ",
"                                                            < < # $ G.&+^+t+P+$@^@R.R.R.&@K./@) ) ~.~ ~ ~ ~ ~ ~ (@: : ( ~ ~ ~ ~ ~ ~ ~ ~ ~ ~ ~ / 0 : : : : : : : ",
"                                                            -@< W.$ G.&+^+_@P+$@:@R.R.R.<@K.v.) ) v ~ ~ ~ ~ ~ ~ / V.l m ~ ~ ~ ~ ~ ~ ~ ~ ~ ~ ~ ~ ( O : : : : : : ",
"                                                            -@< W.$ G.&+^+_@P+$@:@R.R.R.<@K.v.) ) v ~ ~ ~ ~ ~ ~ / V.l m ~ ~ ~ ~ ~ ~ ~ ~ ~ ~ ~ ~ ( O : : : : : : ",
"                                                            < < # $ G.&+^+t+P+$@^@R.R.R.&@K./@) ) ~.~ ~ ~ ~ ~ ~ (@: : ( ~ ~ ~ ~ ~ ~ ~ ~ ~ ~ ~ / 0 : : : : : : : ",
"                                                            < .+# F.X.,+^+t+P+$@~@R.R.R.'@K.)@) ) ) m ~ ~ ~ ~ ~ {@: : k ~ ~ ~ ~ ~ ~ ~ ~ ~ ~ ~ ]@: : : : : : : : ",
"                                                            < .+# F.Z+,+^+t+P+$@`+R.R.R.'@K.)@) ) ) ~ ~ ~ ~ ~ ~ !@|+V.7 ~ ~ ~ ~ ~ ~ ~ ~ ~ ~ w : : : : : : : : : ",
"                                                          -@< .+b % &+,+:+t+P+$@;@R.R.R.>@K.,@) ) u ~ ~ ~ ~ ~ ~ ~ ~ ~ ~ ~ ~ ~ ~ ~ ~ ~ ~ ~ 4+0 : : : : : : : : : ",
"                                                          < < #@$ % &+*+:+t+P+$@%@R.R.R.&@K.*@) ) j ~ ~ ~ ~ ~ ~ ~ ~ ~ ~ ~ ~ ~ ~ ~ ~ ~ ~ ~ =@: : : : : : : : : : ",
"                                                          < .+# F.Z+++l+m+I+P+.@+@R.R.R.-+K.@@) ) U.~ ~ ~ ~ ~ ~ ~ ~ ~ ~ ~ ~ ~ ~ ~ ~ ~ ~ ~ x.: : : : : : : : : : ",
"                                                        < < .+b | Z+,+l+m+P+P+`+R.R.R.K+u.x+j+) ) =.~ ~ ~ ~ ~ ~ ~ ~ ~ ~ ~ ~ ~ ~ ~ ~ ~ ~ ~  @: : : : : : : : : : ",
"                                                        < ]+W.$ % &+*+:+t+P+D+T+R.R.R.U+K.V+) ) ) W+~ ~ ~ ~ ~ ~ ~ ~ ~ ~ ~ ~ ~ ~ ~ ~ ~ ~ ~ l : : : X+Y+8+w : : : ",
"                                                      < < ..# F.G.++^+:+t+P+Q+R.R.R.R.R+K.S+) ) M.{.~ ~ ~ ~ ~ ~ ~ ~ ~ ~ ~ ~ ~ ~ ~ ~ ~ ~ ~ ~ 0 : : ~+~ ~ ~ B+: : ",
"                                                      < ]+W.$ | P.,+l+a+I+J+I.R.R.R.K+L+x+M+) ) z+~ ~ ~ ~ ~ ~ ~ ~ ~ ~ ~ ~ ~ ~ ~ ~ ~ ~ ~ ~ ~ p.: N+~ ~ ~ ~ O+: : ",
"                                                    < < .+# F.G.&+*+:+t+D+g+I.R.R.R.E+K.F+) ) ) G+~ ~ ~ ~ ~ ~ ~ ~ ~ ~ ~ ~ ~ ~ ~ ~ ~ ~ ~ ~ ~ ~ 0 : { ~ ~ ~ H+: : ",
"                                                    < ]+..$ | X.++^+:+t+u+I.R.R.R.v+w+x+y+) ) z+~ ~ ~ ~ ~ ~ ~ ~ ~ ~ ~ ~ ~ ~ ~ ~ ~ ~ ~ ~ ~ ~ ~ A+: B+m ~ 0+C+: : ",
"                                                  < < .+# $ % P.,+l+m+n+A.I.R.R.R.o+K.p+) ) ~.O.~ ~ ~ ~ ~ ~ ~ ~ ~ ~ ~ ~ ~ ~ ~ ~ ~ ~ ~ ~ ~ ~ ~ ~ q+: r+s+: : : : ",
"                                                  < ]+..b | G.++*+:+f+g+s.I.R.R.h+u.i+j+) ) k+~ ~ ~ ~ ~ ~ ~ ~ ~ ~ ~ ~ ~ ~ ~ ~ ~ ~ ~ ~ ~ ~ ~ ~ ~ n _ : : : : : : ",
"                                                < < .+# $ % P.,+^+a+b+A.I.R.R.R.c+u.d+) ) e+~ ~ ~ ~ ~ ~ ~ ~ ~ ~ ~ ~ ~ ~ ~ ~ ~ ~ ~ ~ ~ ~ ~ ~ ~ ~ ~ 0 : : : : : : ",
"                                                < < .+# F.G.&+*+:+5+k.s.R.R.R.6+K.7+) ) M.N.~ ~ ~ ~ ~ ~ ~ ~ ~ ~ ~ ~ ~ ~ / 8+9+0+~ ~ ~ ~ ~ ~ ~ ~ ~ >.: : : : : : ",
"                                              < < .+# $ | X.++^+1+2+A.I.R.R.`.u.C.3+) ) !+~ ~ ~ ~ ~ ~ ~ ~ ~ ~ ~ ~ ~ 4+l : : : :  +{.~ ~ ~ ~ ~ ~ ~ >.: : : : : : ",
"                                              < < .+# $ % P.,+:+<+k.s.R.R.R.-+u.[+) ) }+~ ~ ~ ~ ~ ~ ~ ~ ~ ~ ~ ~ ~ ~ k : : : : : : |+~ ~ ~ ~ ~ ~ ~ 0 : : : : : : ",
"                                            a < ]+..b | G.&+^+/+#+A.I.R.R.(+K._+) ) M.N.~ ~ ~ ~ ~ ~ ~ ~ ~ ~ ~ ~ ~ { $+: : : : : : : 8 ~ ~ ~ ~ ~ / O : : : : : : ",
"                                            . < .+# $ % P.,+'+)+k.s.R.R.`.u.C.D.) ) !+~ ~ ~ ~ ~ ~ ~ ~ ~ ~ ~ ~ ~ ~ ~+: : : : : : : : >+~ ~ ~ ~ ~ {+: : : : : : : ",
"                                            . < .+# $ G.&+*+=+3.A.I.R.R.-+u.T.) ) U.~ ~ ~ ~ ~ ~ ~ ~ ~ ~ ~ ~ ~ ~ ~ ;+: : : : : : : : >+~ ~ ~ ~ O.0 : : : : : : : ",
"                                          a . . .+b | G.++@+- #+A.R.R.J.K.L.) ) M.N.~ ~ ~ ~ ~ ~ ~ ~ ~ ~ ~ ~ ~ ~ ~ 7 $+: : : : : : : %+~ ~ ~ ~ $+: : : : : : : : ",
"                                          a . ..W.$ | X.Y.Z.a.k.I.R.`.u.C.D.) ) E.~ ~ ~ ~ ~ ~ ~ ~ ~ ~ ~ ~ ~ ~ ~ ~ ~ k : : : : : :  +~ ~ ~ ~ k >.: : : : : : : : ",
"                                          . . ..# $ % P.Q.q a.A.I.R.S.u.T.) ) U.~ ~ ~ ~ ~ ~ ~ ~ ~ ~ ~ ~ ~ ~ ~ ~ ~ ~ ~ k : : : : V.m ~ ~ ~ / 0 : : : : : : : : : ",
"                                          . + ..# F.G.H._.3 3.A.I.J.K.L.) ) M.N.~ ~ ~ ~ ~ ~ ~ ~ ~ ~ ~ ~ ~ ~ ~ ~ ~ ~ ~ ~ O.9 9 / ~ ~ ~ ~ m 0 : : : : : : : : : : ",
"                                          . + ..b | y.z.= - k.A.B.u.C.D.) ) E.~ ~ ~ ~ ~ ~ ~ ~ ~ ~ ~ ~ ~ ~ ~ ~ ~ ~ ~ ~ ~ ~ ~ ~ ~ ~ ~ ~ ~ _ : : : : : : : : : : : ",
"                                        a . ..# b | q.@.= r.k.s.t.u.v.) ) w.m ~ ~ ~ ~ ~ ~ ~ ~ ~ ~ ~ ~ ~ ~ ~ ~ ~ ~ ~ ~ ~ ~ ~ ~ ~ ~ ~ ~ x.: : : : : : : : : : : : ",
"                                        a . [ } $ i.j.A I a.k.l.m.n.) ) u o.~ ~ ~ ~ ~ ~ ~ ~ ~ ~ ~ ~ ~ ~ ~ ~ ~ ~ ~ ~ ~ ~ ~ ~ ~ ~ ~ ~ p.: : : : : : : : : : : : : ",
"                                        < . [ } $ 0.H A q a.b.c.d.e.) ) =.~ ~ ~ ~ ~ ~ ~ ~ ~ ~ ~ ~ ~ ~ ~ ~ ~ ~ ~ ~ ~ ~ ~ ~ ~ ~ ~ ~ f.O : : : : : : g.h. .: : : : ",
"                                        . . @ /.2.y p e 3 3.4.5.6.) ) ~.7 ~ ~ ~ ~ ~ ~ ~ ~ ~ ~ ~ ~ ~ ~ ~ ~ ~ ~ ~ ~ ~ ~ ~ ~ ~ ~ ~ 7.O : : : : : : 8.` ` ` 9.: : : ",
"                                        . + @ /.(.d 2 _.3 :.<.[.}.) ) |.~ ~ ~ ~ ~ ~ ~ ~ ~ ~ ~ ~ ~ ~ ~ ~ ~ ~ ~ ~ ~ ~ ~ ~ ~ ~ ~ w O : : : : : : 1.` ` ` ` ` O : : ",
"                                        . + @ $ ,.R 2 = - '.> ).!.) ~.{.~ ~ ~ ~ ~ ~ ~ ~ ~ ~ ~ ~ ~ ~ ~ ~ ~ ~ ~ ~ ~ ~ ~ ~ ~ ~ ]._ ] {.( : : : : Y ` ` ` ` ` ^.: : ",
"                                      a . ..@ +.Q R @.= #.$.%.&.*.) =.~ ~ ~ ~ ~ ~ ~ ~ ~ ~ ~ ~ ~ ~ ~ ~ ~ ~ ~ ~ ~ ~ ~ ~ ~ ~ _ : : ] { k : : : : O -.` ` ` ;.>.: : ",
"                                      a . [ } P Q R * = S K T U V ) W ~ ~ ~ ~ ~ ~ ~ ~ ~ ~ ~ ~ ~ ~ ~ ~ ~ ~ ~ ~ ~ ~ ~ ~ ~ X : : : : : : : : : : : Y Z ` Z  .: : : ",
"                                      < . [ } x y H * I J K L M u u m ~ ~ ~ ~ ~ ~ ~ ~ ~ ~ ~ ~ ~ ~ ~ ~ ~ ~ ~ ~ ~ ~ ~ ~ ~ N : : : : : : : : : : : : : O : : : : : ",
"                                      . + @ } x y z A q B C D E u F ~ ~ ~ ~ ~ ~ ~ ~ ~ ~ ~ ~ ~ ~ ~ ~ ~ ~ ~ ~ ~ ~ ~ ~ ~ ~ G : : : : : : : : : : : : : : : : : : : ",
"                                      . + @ # o d p e q r g s t u v ~ ~ ~ ~ ~ ~ ~ ~ ~ ~ ~ ~ ~ ~ ~ ~ ~ ~ ~ ~ ~ ~ ~ ~ ~ ~ w : : : : : : : : : : : : : : : : : : : ",
"                                    a . + @ b c d 2 e 3 f g h i ) j ~ ~ ~ ~ ~ ~ ~ ~ ~ ~ ~ ~ k l m ~ ~ ~ ~ ~ ~ ~ ~ ~ ~ ~ n : : : : : : : : : : : : : : : : : : : "};
