/* XPM */
static char * wallL_xpm[] = {
"80 80 302 2",
"  	c #6C4227",
". 	c #7F5033",
"+ 	c #885639",
"@ 	c #875538",
"# 	c #784A2E",
"$ 	c #794B2F",
"% 	c #6F462E",
"& 	c #6D452D",
"* 	c #6E4831",
"= 	c #ABACAE",
"- 	c #B5D3EC",
"; 	c #C5DEF3",
"> 	c #DCF0FC",
", 	c #DFF0FA",
"' 	c #E2EFF9",
") 	c #E6EFF7",
"! 	c #F1F1F6",
"~ 	c #F3F0F5",
"{ 	c #F4F0F3",
"] 	c #F3EFF2",
"^ 	c #F3EEF2",
"/ 	c #F2EEF1",
"( 	c #F2EDF1",
"_ 	c #75482C",
": 	c #71472F",
"< 	c #6D452E",
"[ 	c #6F4832",
"} 	c #A39B98",
"| 	c #C3DDF1",
"1 	c #DDF0FC",
"2 	c #E3EFF9",
"3 	c #EFF0F6",
"4 	c #F3F0F4",
"5 	c #72462A",
"6 	c #70472F",
"7 	c #6F4933",
"8 	c #A6A2A1",
"9 	c #B6D4EC",
"0 	c #C5DDF2",
"a 	c #E0F0FA",
"b 	c #E3EFF8",
"c 	c #E7EFF7",
"d 	c #EEF0F5",
"e 	c #F4F0F4",
"f 	c #6B4126",
"g 	c #73472B",
"h 	c #6F4934",
"i 	c #B5BEC6",
"j 	c #B7D4EC",
"k 	c #C9E1F3",
"l 	c #DDF0FB",
"m 	c #E1EFFA",
"n 	c #E4EFF8",
"o 	c #F4EFF3",
"p 	c #F2EEF2",
"q 	c #683F24",
"r 	c #5A3419",
"s 	c #573217",
"t 	c #673E23",
"u 	c #7D4D31",
"v 	c #815136",
"w 	c #6D462E",
"x 	c #704A36",
"y 	c #BED6E8",
"z 	c #D0E8F8",
"A 	c #DEF0FB",
"B 	c #E5EFF8",
"C 	c #E8EEF6",
"D 	c #EFF0F5",
"E 	c #6C4126",
"F 	c #593418",
"G 	c #583318",
"H 	c #865437",
"I 	c #704529",
"J 	c #6C4226",
"K 	c #784C32",
"L 	c #6D462F",
"M 	c #775644",
"N 	c #B6D5EE",
"O 	c #BAD6ED",
"P 	c #D9EFFC",
"Q 	c #E1EFF9",
"R 	c #F1F0F5",
"S 	c #F3EFF3",
"T 	c #693F24",
"U 	c #7A4C30",
"V 	c #865538",
"W 	c #714529",
"X 	c #6E462E",
"Y 	c #6E462F",
"Z 	c #B2BAC1",
"` 	c #B4D3EC",
" .	c #C5E0F4",
"..	c #DBF0FC",
"+.	c #EAEFF6",
"@.	c #F3F1F5",
"#.	c #694025",
"$.	c #7B4D33",
"%.	c #704A33",
"&.	c #B8D7EF",
"*.	c #B5D4ED",
"=.	c #D5EDFC",
"-.	c #DFF0FB",
";.	c #EEF0F6",
">.	c #F4F1F4",
",.	c #633B20",
"'.	c #61391E",
").	c #77492D",
"!.	c #865438",
"~.	c #B2BDC5",
"{.	c #B1D2EC",
"].	c #C3E0F5",
"^.	c #D9F0FD",
"/.	c #F2F1F5",
"(.	c #643C21",
"_.	c #683F23",
":.	c #76492C",
"<.	c #7C5F4C",
"[.	c #B4D4EE",
"}.	c #B4D5EE",
"|.	c #D6EFFD",
"1.	c #DAF0FD",
"2.	c #EBF0F7",
"3.	c #73462B",
"4.	c #835236",
"5.	c #BBD2E3",
"6.	c #B0D1EC",
"7.	c #C8E5F8",
"8.	c #D8F1FE",
"9.	c #E4F0F8",
"0.	c #F2F2F7",
"a.	c #6F4428",
"b.	c #724830",
"c.	c #9E9693",
"d.	c #B0D2ED",
"e.	c #BAD9F1",
"f.	c #D6F1FE",
"g.	c #DBF0FD",
"h.	c #EBF1F8",
"i.	c #F3F2F6",
"j.	c #7B4E33",
"k.	c #734D38",
"l.	c #B7D7EF",
"m.	c #D1EDFD",
"n.	c #D7F1FE",
"o.	c #E4F0F9",
"p.	c #F2F3F7",
"q.	c #6A4025",
"r.	c #845336",
"s.	c #7E4F32",
"t.	c #855437",
"u.	c #845337",
"v.	c #6E452E",
"w.	c #B9CDDB",
"x.	c #AFD1EC",
"y.	c #C4E3F7",
"z.	c #D6F1FF",
"A.	c #EDF3F9",
"B.	c #F3F3F7",
"C.	c #F3F1F6",
"D.	c #76492D",
"E.	c #734830",
"F.	c #988D86",
"G.	c #B7D8F1",
"H.	c #D5F1FF",
"I.	c #E5F2FA",
"J.	c #F4F4F8",
"K.	c #F3F2F7",
"L.	c #74482C",
"M.	c #CFECFC",
"N.	c #DEF1FB",
"O.	c #F1F4FA",
"P.	c #F3F3F8",
"Q.	c #F3EFF4",
"R.	c #6D4227",
"S.	c #825135",
"T.	c #D9F1FD",
"U.	c #EAF3FB",
"V.	c #F4F5F9",
"W.	c #F2EFF3",
"X.	c #7B4D30",
"Y.	c #805034",
"Z.	c #B7D8F0",
"`.	c #E1F2FC",
" +	c #F4F6FA",
".+	c #F4F4F9",
"++	c #704528",
"@+	c #805033",
"#+	c #7C4E34",
"$+	c #DBF1FD",
"%+	c #F0F6FB",
"&+	c #F4F5FA",
"*+	c #815134",
"=+	c #B9CCDA",
"-+	c #C3E2F7",
";+	c #E9F4FC",
">+	c #F4F6FB",
",+	c #F2EEF3",
"'+	c #74472C",
")+	c #734930",
"!+	c #978A82",
"~+	c #E0F2FD",
"{+	c #F4F7FC",
"]+	c #885638",
"^+	c #714A33",
"/+	c #DAF1FD",
"(+	c #F0F7FC",
"_+	c #835235",
":+	c #7D4E31",
"<+	c #7D4E32",
"[+	c #B8C9D6",
"}+	c #C2E2F6",
"|+	c #E9F5FD",
"1+	c #744930",
"2+	c #94867E",
"3+	c #B6D7F0",
"4+	c #E0F3FD",
"5+	c #F4F8FC",
"6+	c #7D4F34",
"7+	c #6F4830",
"8+	c #B8D7EE",
"9+	c #CEEBFC",
"0+	c #D9F2FE",
"a+	c #F2F7FD",
"b+	c #704429",
"c+	c #6D4327",
"d+	c #6B4125",
"e+	c #B7C6D1",
"f+	c #C2E1F6",
"g+	c #EAF6FE",
"h+	c #F4F8FD",
"i+	c #F4F7FB",
"j+	c #6E4428",
"k+	c #75482D",
"l+	c #7A4B2F",
"m+	c #764A31",
"n+	c #876E61",
"o+	c #B1D3ED",
"p+	c #B4D5EF",
"q+	c #D4F0FF",
"r+	c #E1F3FE",
"s+	c #F5F8FD",
"t+	c #7C4D31",
"u+	c #825236",
"v+	c #BBD3E4",
"w+	c #C7E5F8",
"x+	c #F2F9FE",
"y+	c #7F4F33",
"z+	c #6E4328",
"A+	c #7F6453",
"B+	c #B3D4EE",
"C+	c #D4F1FF",
"D+	c #EBF6FE",
"E+	c #F5F9FD",
"F+	c #B5C2CC",
"G+	c #C1E0F5",
"H+	c #E0F4FE",
"I+	c #F5F9FE",
"J+	c #7A4C2F",
"K+	c #6D4328",
"L+	c #7E5035",
"M+	c #BAD7ED",
"N+	c #CCEAFB",
"O+	c #D7F2FF",
"P+	c #6F4328",
"Q+	c #E5F6FF",
"R+	c #F4F3F8",
"S+	c #93847B",
"T+	c #D6F2FF",
"U+	c #F2FAFF",
"V+	c #794A2E",
"W+	c #A9A9AB",
"X+	c #BCDCF3",
"Y+	c #DDF4FF",
"Z+	c #F5FAFF",
"`+	c #F2F0F4",
" @	c #B0B9C0",
".@	c #BEDEF4",
"+@	c #E3F5FF",
"@@	c #F2EDF2",
"#@	c #825235",
"$@	c #B2BCC3",
"%@	c #BFDFF4",
"&@	c #6B4025",
"*@	c #71462A",
"=@	c #E4F6FF",
"-@	c #72462B",
";@	c #ABADB1",
">@	c #DFF4FF",
",@	c #B9DAF1",
"'@	c #D8F2FF",
")@	c #F5F7FC",
"!@	c #6E4731",
"~@	c #B9C9D6",
"{@	c #C9E3F5",
"]@	c #E7F0F8",
"^@	c #6F4429",
"/@	c #7F5035",
"(@	c #6E4730",
"_@	c #BBD8EC",
":@	c #D0E9FA",
"<@	c #EDF2F8",
"                                      . + + + + + + + + + + + @ # $ + + + + + + + + + + + + % & * = - ; > , ' ) ! ~ { ] ^ / ( ( ( ( ( ( ( ( ( ( ( ( ( ( ( ( ( ( ",
"                                      _ + + + + + + + + + + + + + + + + + + + + + + + + + + : < [ } - | 1 , 2 ) 3 4 { ] ^ ( ( ( ( ( ( ( ( ( ( ( ( ( ( ( ( ( ( ( ",
"                                      5 + + + + + + + + + + + + + + + + + + + + + + + + + + 6 < 7 8 9 0 1 a b c d e { ] ^ ( ( ( ( ( ( ( ( ( ( ( ( ( ( ( ( ( ( ( ",
"          f                           g + + + + + + + + + + + + + + + + + + + + + + + + + @ < < h i j k l m n c d e o ^ p ( ( ( ( ( ( ( ( ( ( ( ( ( ( ( ( ( ( ( ",
"      q r s r t                       u + + + + + + + + + + + + + + + + + + + + + + + + + v & w x y j z A m B C D e o ^ / ( ( ( ( ( ( ( ( ( ( ( ( ( ( ( ( ( ( ( ",
"    E F s s s G f         $ H I     J + + + + + + + + + + + + + + + + + + + + + + + + + + K & L M N O P A Q B C R { S ^ / ( ( ( ( ( ( ( ( ( ( ( ( ( ( ( ( ( ( ( ",
"    T s s s s s t         U V I J W + + + + + + + + + + + + + + + + + + + + + + + + + + V X & Y Z `  ...A ' B +.@.{ ] ^ ( ( ( ( ( ( ( ( ( ( ( ( ( ( ( ( ( ( ( ( ",
"    f s s s s s #.            f _ + + + + + + + + + + + + + + + + + + + + + + + + + + + $.& & %.&.*.=.> -.' ) ;.>.{ ] ^ ( ( ( ( ( ( ( ( ( ( ( ( ( ( ( ( ( ( ( ( ",
"      ,.s s s '.            f ).+ + + + + + + + + + + + + + + + + + + + + + + + + + + !.X & & ~.{.].^.> , 2 c /.>.{ ^ ^ ( ( ( ( ( ( ( ( ( ( ( ( ( ( ( ( ( ( ( ( ",
"        q (._.            f :.+ + + + + + + + + + + + + + + + + + + + + + + + + + + + K & & <.[.}.|.1.1 a n 2.@.e o ^ p ( ( ( ( ( ( ( ( ( ( ( ( ( ( ( ( ( ( ( ( ",
"                          3.+ + + + + + + + + + + + + + + + + + + + + + + + + + + + 4.< & & 5.6.7.8.1.l a 9.0.@.e o ^ / ( ( ( ( ( ( ( ( ( ( ( ( ( ( ( ( ( ( ( ( ",
"                        a.+ + + + + + + + + + + + + + + + + + + + + + + + + + + + @ b.& & c.d.e.f.8.g.A Q h.i.~ 4 S ^ / ( ( ( ( ( ( ( ( ( ( ( ( ( ( ( ( ( ( ( ( ",
"                      J + + + + + + + + + + + + + + + + + + + + + + + + + + + + + j.& & k.l.d.m.n.8...A o.p.i.~ S ] ^ ( ( ( ( ( ( ( ( ( ( ( ( ( ( ( ( ( ( ( ( ( ",
"                    q.@ + + + + r.s.s.t.+ + + + + + + + + + + + + + + + + + + + u.v.& & w.x.y.z.n.^.> -.A.B.C.4 S ] ^ ( ( ( ( ( ( ( ( ( ( ( ( ( ( ( ( ( ( ( ( ( ",
"                  q.r.+ + + @ D.        $ + + + + + + + + + + + + + + + + + + + E.& & F.d.G.H.z.n.1.1 I.J.K.@.4 S ^ ^ ( ( ( ( ( ( ( ( ( ( ( ( ( ( ( ( ( ( ( ( ( ",
"                E $ + + + + L.            $ + + + + + + + + + + + + + + + + + j.& & k.l.d.M.H.z.8.1.N.O.P.i.@.Q.S ^ / ( ( ( ( ( ( ( ( ( ( ( ( ( ( ( ( ( ( ( ( ( ",
"                R.+ + + + S.              R.!.+ + + + + + + + + + + + + + + u.v.& & w.x.y.H.H.n.T...U.V.B.i.~ W.^ ^ / ( ( ( ( ( ( ( ( ( ( ( ( ( ( ( ( ( ( ( ( ( ",
"              q.t.+ + + + X.                Y.+ + + + + + + + + + + + + + + E.& & F.d.Z.H.H.z.n.^.`. +.+B.@.4 W.p ^ ( ( ( ( ( ( ( ( ( ( ( ( ( ( ( ( ( ( ( ( ( ( ",
"              +++ + + + + X.                @++ + + + + + + + + + + + + + #+& & k.l.d.M.H.H.f.8.$+%+&+J.K.@.4 W.p ^ ( ( ( ( ( ( ( ( ( ( ( ( ( ( ( ( ( ( ( ( ( ( ",
"            f r.+ + + + + *+              R.H + + + + + + + + + + + + + u.v.& & =+x.-+H.H.z.n.T.;+>+.+B.i.~ S ,+p / ( ( ( ( ( ( ( ( ( ( ( ( ( ( ( ( ( ( ( ( ( ( ",
"            q.+ + + + + + + '+            $ + + + + + + + + + + + + + + )+& & !+d.Z.H.H.H.f.8.~+{+&+J.K.@.4 W.p p ( ( ( ( ( ( ( ( ( ( ( ( ( ( ( ( ( ( ( ( ( ( ( ",
"            E + + + + + + + V L.        # ]++ + + + + + + + + + + + + #+& & ^+l.d.M.H.H.z.n./+(+>+V.P.i.@.4 W.p p ( ( ( ( ( ( ( ( ( ( ( ( ( ( ( ( ( ( ( ( ( ( ( ",
"            E + + + + + + + + + _+:+<+r.+ + + + + + + + + + + + + + u.v.& & [+x.}+H.H.H.f.8.|+{+ +.+B.C.4 W.p p ( ( ( ( ( ( ( ( ( ( ( ( ( ( ( ( ( ( ( ( ( ( ( ( ",
"            q.+ + + + + + + + + + + + + + + + + + + + + + + + + + + 1+& & 2+d.3+H.H.H.z.n.4+5+>+&+J.K.@.4 W.p p ( ( ( ( ( ( ( ( ( ( ( ( ( ( ( ( ( ( ( ( ( ( ( ( ",
"            J . + + + + + + + + + + + + + + + + + + + + + + + + + 6+& & 7+8+d.9+H.H.z.f.0+a+{+ +V.B.i.~ S ,+p ( ( ( ( ( ( ( ( ( ( ( ( ( ( ( ( ( ( ( ( ( ( ( ( ( ",
"        b+c+  d++ + + + + + + + + + + + + + + + + + + + + + + + t.X & & e+x.f+H.H.H.z.n.g+h+i+&+J.K.@.4 W.p p ( ( ( ( ( ( ( ( ( ( ( ( ( ( ( ( ( ( ( ( ( ( ( ( ( ",
"    j+_++ @ k+  l++ + + + + + + + + + + + + + + + + + + + + + + m+& & n+o+p+q+H.H.H.z.r+s+{+>+V.P.i.@.S ,+p ( ( ( ( ( ( ( ( ( ( ( ( ( ( ( ( ( ( ( ( ( ( ( ( ( ( ",
"    t++ + + H   q.+ + + + + + + + + + + + + + + + + + + + + + u+& & & v+x.w+H.H.H.z.0+x+s+{+ +.+B.C.4 W.p p ( ( ( ( ( ( ( ( ( ( ( ( ( ( ( ( ( ( ( ( ( ( ( ( ( ( ",
"    y++ + + + z+  3.+ + + + + + + + + + + + + + + + + + + + + m+& & A+o+B+C+H.H.H.z.D+E+5+i+&+J.i.@.Q.,+p ( ( ( ( ( ( ( ( ( ( ( ( ( ( ( ( ( ( ( ( ( ( ( ( ( ( ( ",
"    k++ + + @+    q.+ + + + + + + + + + + + + + + + + + + + V v.& & F+x.G+H.H.H.H.H+I+s+{+>+V.B.C.4 S p p ( ( ( ( ( ( ( ( ( ( ( ( ( ( ( ( ( ( ( ( ( ( ( ( ( ( ( ",
"      _ <+J+K+      # + + + + + + + + + + + + + + + + + + + L+& & & M+x.N+H.H.H.O+x+I+s+{+ +.+K.@.Q.,+p ( ( ( ( ( ( ( ( ( ( ( ( ( ( ( ( ( ( ( ( ( ( ( ( ( ( ( ( ",
"                    P++ + + + + + + + + + + + + + + + + + + K & & 7+o+d.C+H.H.H.Q+I+I+h+i+&+R+i.~ W.p p ( ( ( ( ( ( ( ( ( ( ( ( ( ( ( ( ( ( ( ( ( ( ( ( ( ( ( ( ",
"                    a.+ + + + + + + + + + + + + + + + + + + E.& & S+x.Z.H.H.H.T+U+I+E+h+i+V.R+C.4 W.p ( ( ( ( ( ( ( ( ( ( ( ( ( ( ( ( ( ( ( ( ( ( ( ( ( ( ( ( ( ",
"                    V++ + + + + + + + + + + + + + + + + + + % & & W+x.X+H.H.H.Y+Z+I+s+{+ +.+K.@.`+p p ( ( ( ( ( ( ( ( ( ( ( ( ( ( ( ( ( ( ( ( ( ( ( ( ( ( ( ( ( ",
"                  q.]++ + + + + + + + + + + + + + + + + + + < & &  @x..@H.H.H.+@Z+I+s+{+&+.+K.~ W.p @@( ( ( ( ( ( ( ( ( ( ( ( ( ( ( ( ( ( ( ( ( ( ( ( ( ( ( ( ( ",
"                  _ + + + + + + + + + + !.D.'+#@+ + + + + + & & & $@x.%@H.H.H.Q+Z+I+s+>+&+R+C.4 W.p ( ( ( ( ( ( ( ( ( ( ( ( ( ( ( ( ( ( ( ( ( ( ( ( ( ( ( ( ( ( ",
"                &@+ + + + + + + + + + + $     *@+ + + + + @ & & & $@x.%@H.H.H.=@Z+I+s+>+&+P.C.4 W.p ( ( ( ( ( ( ( ( ( ( ( ( ( ( ( ( ( ( ( ( ( ( ( ( ( ( ( ( ( ( ",
"              q.r.+ + + + + + + + + + + U     -@+ + + + + + X & & ;@x.X+H.H.H.>@Z+I+s+>+.+B.@.4 p p ( ( ( ( ( ( ( ( ( ( ( ( ( ( ( ( ( ( ( ( ( ( ( ( ( ( ( ( ( ( ",
"            f U + + + + + + + + + + + + @ # D.r.+ + + + + + : & & c.x.,@H.H.H.'@Z+I+)@>+.+B.@.Q.p @@( ( ( ( ( ( ( ( ( ( ( ( ( ( ( ( ( ( ( ( ( ( ( ( ( ( ( ( ( ( ",
"            f U + + + + + + + + + + + + @ # D.r.+ + + + + + : & & c.x.,@H.H.H.'@Z+I+)@>+.+B.@.Q.p @@( ( ( ( ( ( ( ( ( ( ( ( ( ( ( ( ( ( ( ( ( ( ( ( ( ( ( ( ( ( ",
"              q.r.+ + + + + + + + + + + U     -@+ + + + + + X & & ;@x.X+H.H.H.>@Z+I+s+>+.+B.@.4 p p ( ( ( ( ( ( ( ( ( ( ( ( ( ( ( ( ( ( ( ( ( ( ( ( ( ( ( ( ( ( ",
"                &@+ + + + + + + + + + + $     *@+ + + + + @ & & & $@x.%@H.H.H.=@Z+I+s+>+&+P.C.4 W.p ( ( ( ( ( ( ( ( ( ( ( ( ( ( ( ( ( ( ( ( ( ( ( ( ( ( ( ( ( ( ",
"                  _ + + + + + + + + + + !.D.'+#@+ + + + + + & & & $@x.%@H.H.H.Q+Z+I+s+>+&+R+C.4 W.p ( ( ( ( ( ( ( ( ( ( ( ( ( ( ( ( ( ( ( ( ( ( ( ( ( ( ( ( ( ( ",
"                  q.]++ + + + + + + + + + + + + + + + + + + < & &  @x..@H.H.H.+@Z+I+s+{+&+.+K.~ W.p @@( ( ( ( ( ( ( ( ( ( ( ( ( ( ( ( ( ( ( ( ( ( ( ( ( ( ( ( ( ",
"                    V++ + + + + + + + + + + + + + + + + + + % & & W+x.X+H.H.H.Y+Z+I+s+{+ +.+K.@.`+p p ( ( ( ( ( ( ( ( ( ( ( ( ( ( ( ( ( ( ( ( ( ( ( ( ( ( ( ( ( ",
"                    a.+ + + + + + + + + + + + + + + + + + + E.& & S+x.Z.H.H.H.T+U+I+E+h+i+V.R+C.4 W.p ( ( ( ( ( ( ( ( ( ( ( ( ( ( ( ( ( ( ( ( ( ( ( ( ( ( ( ( ( ",
"                    P++ + + + + + + + + + + + + + + + + + + K & & 7+o+d.C+H.H.H.Q+I+I+h+i+&+R+i.~ W.p p ( ( ( ( ( ( ( ( ( ( ( ( ( ( ( ( ( ( ( ( ( ( ( ( ( ( ( ( ",
"      _ <+J+K+      # + + + + + + + + + + + + + + + + + + + L+& & & M+x.N+H.H.H.O+x+I+s+{+ +.+K.@.Q.,+p ( ( ( ( ( ( ( ( ( ( ( ( ( ( ( ( ( ( ( ( ( ( ( ( ( ( ( ( ",
"    k++ + + @+    q.+ + + + + + + + + + + + + + + + + + + + V v.& & F+x.G+H.H.H.H.H+I+s+{+>+V.B.C.4 S p p ( ( ( ( ( ( ( ( ( ( ( ( ( ( ( ( ( ( ( ( ( ( ( ( ( ( ( ",
"    y++ + + + z+  3.+ + + + + + + + + + + + + + + + + + + + + m+& & A+o+B+C+H.H.H.z.D+E+5+i+&+J.i.@.Q.,+p ( ( ( ( ( ( ( ( ( ( ( ( ( ( ( ( ( ( ( ( ( ( ( ( ( ( ( ",
"    t++ + + H   q.+ + + + + + + + + + + + + + + + + + + + + + u+& & & v+x.w+H.H.H.z.0+x+s+{+ +.+B.C.4 W.p p ( ( ( ( ( ( ( ( ( ( ( ( ( ( ( ( ( ( ( ( ( ( ( ( ( ( ",
"    j+_++ @ k+  l++ + + + + + + + + + + + + + + + + + + + + + + m+& & n+o+p+q+H.H.H.z.r+s+{+>+V.P.i.@.S ,+p ( ( ( ( ( ( ( ( ( ( ( ( ( ( ( ( ( ( ( ( ( ( ( ( ( ( ",
"        b+c+  d++ + + + + + + + + + + + + + + + + + + + + + + + t.X & & e+x.f+H.H.H.z.n.g+h+i+&+J.K.@.4 W.p p ( ( ( ( ( ( ( ( ( ( ( ( ( ( ( ( ( ( ( ( ( ( ( ( ( ",
"            J . + + + + + + + + + + + + + + + + + + + + + + + + + 6+& & 7+8+d.9+H.H.z.f.0+a+{+ +V.B.i.~ S ,+p ( ( ( ( ( ( ( ( ( ( ( ( ( ( ( ( ( ( ( ( ( ( ( ( ( ",
"            q.+ + + + + + + + + + + + + + + + + + + + + + + + + + + 1+& & 2+d.3+H.H.H.z.n.4+5+>+&+J.K.@.4 W.p p ( ( ( ( ( ( ( ( ( ( ( ( ( ( ( ( ( ( ( ( ( ( ( ( ",
"            E + + + + + + + + + _+:+<+r.+ + + + + + + + + + + + + + u.v.& & [+x.}+H.H.H.f.8.|+{+ +.+B.C.4 W.p p ( ( ( ( ( ( ( ( ( ( ( ( ( ( ( ( ( ( ( ( ( ( ( ( ",
"            E + + + + + + + V L.        # ]++ + + + + + + + + + + + + #+& & ^+l.d.M.H.H.z.n./+(+>+V.P.i.@.4 W.p p ( ( ( ( ( ( ( ( ( ( ( ( ( ( ( ( ( ( ( ( ( ( ( ",
"            q.+ + + + + + + '+            $ + + + + + + + + + + + + + + )+& & !+d.Z.H.H.H.f.8.~+{+&+J.K.@.4 W.p p ( ( ( ( ( ( ( ( ( ( ( ( ( ( ( ( ( ( ( ( ( ( ( ",
"            f r.+ + + + + *+              R.H + + + + + + + + + + + + + u.v.& & =+x.-+H.H.z.n.T.;+>+.+B.i.~ S ,+p / ( ( ( ( ( ( ( ( ( ( ( ( ( ( ( ( ( ( ( ( ( ( ",
"              +++ + + + + X.                @++ + + + + + + + + + + + + + #+& & k.l.d.M.H.H.f.8.$+%+&+J.K.@.4 W.p ^ ( ( ( ( ( ( ( ( ( ( ( ( ( ( ( ( ( ( ( ( ( ( ",
"              q.t.+ + + + X.                Y.+ + + + + + + + + + + + + + + E.& & F.d.Z.H.H.z.n.^.`. +.+B.@.4 W.p ^ ( ( ( ( ( ( ( ( ( ( ( ( ( ( ( ( ( ( ( ( ( ( ",
"                R.+ + + + S.              R.!.+ + + + + + + + + + + + + + + u.v.& & w.x.y.H.H.n.T...U.V.B.i.~ W.^ ^ / ( ( ( ( ( ( ( ( ( ( ( ( ( ( ( ( ( ( ( ( ( ",
"                E $ + + + + L.            $ + + + + + + + + + + + + + + + + + j.& & k.l.d.M.H.z.8.1.N.O.P.i.@.Q.S ^ / ( ( ( ( ( ( ( ( ( ( ( ( ( ( ( ( ( ( ( ( ( ",
"                  q.r.+ + + @ D.        $ + + + + + + + + + + + + + + + + + + + E.& & F.d.G.H.z.n.1.1 I.J.K.@.4 S ^ ^ ( ( ( ( ( ( ( ( ( ( ( ( ( ( ( ( ( ( ( ( ( ",
"                    q.@ + + + + r.s.s.t.+ + + + + + + + + + + + + + + + + + + + u.v.& & w.x.y.z.n.^.> -.A.B.C.4 S ] ^ ( ( ( ( ( ( ( ( ( ( ( ( ( ( ( ( ( ( ( ( ( ",
"                      J + + + + + + + + + + + + + + + + + + + + + + + + + + + + + j.& & k.l.d.m.n.8...A o.p.i.~ S ] ^ ( ( ( ( ( ( ( ( ( ( ( ( ( ( ( ( ( ( ( ( ( ",
"                        a.+ + + + + + + + + + + + + + + + + + + + + + + + + + + + @ b.& & c.d.e.f.8.g.A Q h.i.~ 4 S ^ / ( ( ( ( ( ( ( ( ( ( ( ( ( ( ( ( ( ( ( ( ",
"                          3.+ + + + + + + + + + + + + + + + + + + + + + + + + + + + 4.< & & 5.6.7.8.1.l a 9.0.@.e o ^ / ( ( ( ( ( ( ( ( ( ( ( ( ( ( ( ( ( ( ( ( ",
"        q (._.            f :.+ + + + + + + + + + + + + + + + + + + + + + + + + + + + K & & <.[.}.|.1.1 a n 2.@.e o ^ p ( ( ( ( ( ( ( ( ( ( ( ( ( ( ( ( ( ( ( ( ",
"      ,.s s s '.            f ).+ + + + + + + + + + + + + + + + + + + + + + + + + + + !.X & & ~.{.].^.> , 2 c /.>.{ ^ ^ ( ( ( ( ( ( ( ( ( ( ( ( ( ( ( ( ( ( ( ( ",
"    f s s s s s #.            f _ + + + + + + + + + + + + + + + + + + + + + + + + + + + $.& & %.&.*.=.> -.' ) ;.>.{ ] ^ ( ( ( ( ( ( ( ( ( ( ( ( ( ( ( ( ( ( ( ( ",
"    T s s s s s t         U V I J W + + + + + + + + + + + + + + + + + + + + + + + + + + V X & Y Z `  ...A ' B +.@.{ ] ^ ( ( ( ( ( ( ( ( ( ( ( ( ( ( ( ( ( ( ( ( ",
"    E F s s s G f         $ H I     J + + + + + + + + + + + + + + + + + + + + + + + + + + K & L M N O P A Q B C R { S ^ / ( ( ( ( ( ( ( ( ( ( ( ( ( ( ( ( ( ( ( ",
"      q r s r t                       u + + + + + + + + + + + + + + + + + + + + + + + + + v & w x y j z A m B C D e o ^ / ( ( ( ( ( ( ( ( ( ( ( ( ( ( ( ( ( ( ( ",
"          f                           g + + + + + + + + + + + + + + + + + + + + + + + + + @ < < h i j k l m n c d e o ^ p ( ( ( ( ( ( ( ( ( ( ( ( ( ( ( ( ( ( ( ",
"                                      5 + + + + + + + + + + + + + + + + + + + + + + + + + + 6 < 7 8 9 0 1 a b c d e { ] ^ ( ( ( ( ( ( ( ( ( ( ( ( ( ( ( ( ( ( ( ",
"                                      _ + + + + + + + + + + + + + + + + + + + + + + + + + + : < [ } - | 1 , 2 ) 3 4 { ] ^ ( ( ( ( ( ( ( ( ( ( ( ( ( ( ( ( ( ( ( ",
"                                      . + + + + + + + + + + + @ # $ + + + + + + + + + + + + % & * = - ; > , ' ) ! ~ { ] ^ / ( ( ( ( ( ( ( ( ( ( ( ( ( ( ( ( ( ( ",
"                                    q.+ + + + + + + + + + + + s.    *++ + + + + + + + + + !.& & !@~@` {@> A ' ]@i.@.e o ^ p ( ( ( ( ( ( ( ( ( ( ( ( ( ( ( ( ( ( ",
"                                  J U + + + + + + + + + + + + r.^@I H + + + + + + + + + + /@& & (@_@` :@..A m <@K.@.4 { ] ^ ( ( ( ( ( ( ( ( ( ( ( ( ( ( ( ( ( ( "};
