/* XPM */
static char * wallbis4_xpm[] = {
"82 82 108 2",
"  	c #573217",
". 	c #583318",
"+ 	c #583217",
"@ 	c #593318",
"# 	c #553116",
"$ 	c #543016",
"% 	c #593419",
"& 	c #653D22",
"* 	c #683F25",
"= 	c #663D23",
"- 	c #5C361B",
"; 	c #4B2B13",
"> 	c #452812",
", 	c #452712",
"' 	c #452713",
") 	c #4A2A14",
"! 	c #663D22",
"~ 	c #6B4126",
"{ 	c #6C4227",
"] 	c #683F24",
"^ 	c #5B351A",
"/ 	c #543116",
"( 	c #472913",
"_ 	c #412511",
": 	c #3F2411",
"< 	c #472813",
"[ 	c #533016",
"} 	c #694025",
"| 	c #5E371D",
"1 	c #583218",
"2 	c #563217",
"3 	c #4B2B14",
"4 	c #412512",
"5 	c #402411",
"6 	c #4C2B14",
"7 	c #563117",
"8 	c #5A3419",
"9 	c #5E371C",
"0 	c #643C21",
"a 	c #673D23",
"b 	c #553016",
"c 	c #442612",
"d 	c #422612",
"e 	c #633B20",
"f 	c #5F381E",
"g 	c #452612",
"h 	c #492A13",
"i 	c #402511",
"j 	c #4B2A13",
"k 	c #442712",
"l 	c #523016",
"m 	c #4A2B13",
"n 	c #432611",
"o 	c #422512",
"p 	c #4A2A13",
"q 	c #522F16",
"r 	c #5D361C",
"s 	c #5F391E",
"t 	c #623A20",
"u 	c #5A351A",
"v 	c #583319",
"w 	c #60391E",
"x 	c #593319",
"y 	c #683E23",
"z 	c #5C351A",
"A 	c #6A4025",
"B 	c #653C22",
"C 	c #5A3319",
"D 	c #5F381D",
"E 	c #613A1F",
"F 	c #663F23",
"G 	c #5E381D",
"H 	c #653D23",
"I 	c #5D371C",
"J 	c #663E23",
"K 	c #462812",
"L 	c #5D361B",
"M 	c #5B361A",
"N 	c #553117",
"O 	c #4C2C14",
"P 	c #462813",
"Q 	c #482A13",
"R 	c #502E15",
"S 	c #432612",
"T 	c #4F2D15",
"U 	c #4E2C14",
"V 	c #563116",
"W 	c #472812",
"X 	c #522F15",
"Y 	c #532F16",
"Z 	c #4A2B14",
"` 	c #533015",
" .	c #4E2D15",
"..	c #512E15",
"+.	c #543017",
"@.	c #482912",
"#.	c #482913",
"$.	c #492913",
"%.	c #4E2C15",
"&.	c #412611",
"*.	c #4B2A14",
"=.	c #422611",
"-.	c #4D2C15",
";.	c #452813",
">.	c #4E2D14",
",.	c #502E14",
"'.	c #4F2D14",
").	c #553017",
"                                                                                                                                                                    ",
"                                                                                                                                                                    ",
"                                                                                              .                                                                     ",
"                                                                                              .                                                                     ",
"                                                                                              +                                                                     ",
"                                                                                                  + .                                                               ",
"                                                                                                                  @                               # $ #             ",
"                                                                                                              % & * = -                       # ; > , ' ) $         ",
"                                                                                                            @ ! ~ { { ] ^                   / ( _ : : : _ < [       ",
"                                                                                                            % } { { { ~ | 1               2 3 4 : : : : : 5 6 7     ",
"                                                                                                            8 } { { { ~ 9 1               # > : : : : : : : , #     ",
"                                                                                                            1 0 ~ { { a 8                 b c : : : : : : : d $     ",
"                                                                                                              % 9 e f 8                   # ' : : : : : : : g #     ",
"                                                                  +                                             + . 1                       h i : : : : : : j 2     ",
"                                                                                                                                            $ , : : : : : k l       ",
"                                                                                                                                              [ m n 5 o p q 2       ",
"                                                                                                                                                # $ $ $ #           ",
"                          +                                                                                                                                         ",
"                        1 . + . .                                                                                                                                   ",
"                        1 +   . +                                                                                                                                   ",
"                                                                                                                                                                    ",
"                                                                                                                                                                    ",
"                                                                                                                                                                    ",
"                                                                                                                                                                    ",
"                                                                                                                                                                    ",
"                                                                                                                                                                    ",
"                                                                                                                                                                    ",
"                                                                                                                                                                    ",
"                                                      . - r .                                                                                                       ",
"                                                      ^ s t u                                                                                                       ",
"                                                      v w f .                                     x 0 8                                                             ",
"                                                                                                  ^ y z                                                             ",
"      +                                                                     .                       %                                                               ",
"                                                                        x = A B C                                                                                   ",
"          . . .                         . .                             s { { { s                                                                                   ",
"          D e E @             . . . . . .                               f { { { f                                                                                   ",
"        % F } } G             . % % @                                   @ H } = @                                                                                   ",
"        @ = } } I                                                         + @ +                                                                                     ",
"          ^ E D                   % @                         7 q                                                                                                   ",
"                                @ J 0                         [ K                                                                                                   ",
"                                u } ] .                         2                                                                                                   ",
"                                  L M                                                                                                                               ",
"                                                                                                                                2 2                                 ",
"                                                                                                                            N O P k Q R                             ",
"                                                                                                                          N P _ 5 : i S T                           ",
"                                                                                                                          U 5 : : : : : S V                         ",
"                                                                                                                          W : : : : : : 5 X                         ",
"                                                                                                                        2 > : : : : : : 5 R                         ",
"                                                                                                                          3 : : : : : : _ /                         ",
"                                                                                                                          Y d : : : : 5 Z                           ",
"                                                                                                                          2 X P : : _ 6 N                           ",
"                                                                                                                              N ` X # 7                             ",
"                                                                                                                                                                    ",
"                                                                                                                                                                    ",
"                                                                                                                                                                    ",
"                                                                                                                                                                    ",
"                                                                                                                                                                    ",
"                                                                                                                                                                    ",
"                                                                                                                                                                    ",
"                                                                                N p m V                                                                             ",
"                                                                              2  .: _ ..                                                                            ",
"                                                  7 7 7                         +.K @.b                                                                             ",
"                                                [ #.S #.[                         2 2                                                                               ",
"                                              $ c : : : c $                                                         # Y b                                           ",
"                                            2  .: : : : i 6                                                     $ h o o S $.$                                       ",
"                                            7 %.: : : : i )                                                   # K 5 : : : i > [                                     ",
"                                              q &.: : : d ..                                                7 6 : : : : : : _ *.                                    ",
"                                              2  .=._ S -.                                                  / K : : : : : : : k 2                                   ",
"                                                  $ X $                                                     $ k : : : : : : : S V                                   ",
"                                                                                                            # P : : : : : : : ;.2                                   ",
"                                                                                                            7 >.: : : : : : _ 6                                     ",
"                                                                                                              # h 5 : : : i #.#                                     ",
"                                                                                                                # ,.P S < '.).                                      ",
"                                                                                                                    7 N 7 2                                         ",
"                                                                                                                                                                    ",
"                                                                                                                                                                    ",
"                                                                                                                                                                    ",
"                                                                                                                                                                    ",
"                                                                                                                                                                    ",
"                                                                                                                                                                    ",
"                                                                                                                                                                    ",
"                                                                                                                                                                    "};
