/* XPM */
static char * wallbis2_xpm[] = {
"82 82 108 2",
"  	c #573217",
". 	c #563217",
"+ 	c #563117",
"@ 	c #553117",
"# 	c #553017",
"$ 	c #4F2D14",
"% 	c #472813",
"& 	c #432612",
"* 	c #462813",
"= 	c #502E14",
"- 	c #553116",
"; 	c #482913",
"> 	c #402511",
", 	c #3F2411",
"' 	c #402411",
") 	c #492A13",
"! 	c #4C2B14",
"~ 	c #412511",
"{ 	c #4E2D14",
"] 	c #452813",
"^ 	c #563116",
"/ 	c #442712",
"( 	c #543016",
"_ 	c #522F15",
": 	c #462812",
"< 	c #543116",
"[ 	c #4D2C15",
"} 	c #422611",
"| 	c #4E2D15",
"1 	c #4B2A14",
"2 	c #512E15",
"3 	c #422612",
"4 	c #412611",
"5 	c #522F16",
"6 	c #533016",
"7 	c #452812",
"8 	c #4A2A14",
"9 	c #4E2C15",
"0 	c #492913",
"a 	c #422512",
"b 	c #553016",
"c 	c #532F16",
"d 	c #442612",
"e 	c #482912",
"f 	c #543017",
"g 	c #4A2B13",
"h 	c #4A2A13",
"i 	c #533015",
"j 	c #4A2B14",
"k 	c #4B2B14",
"l 	c #502E15",
"m 	c #472812",
"n 	c #4E2C14",
"o 	c #4F2D15",
"p 	c #482A13",
"q 	c #4C2C14",
"r 	c #5B361A",
"s 	c #5D361B",
"t 	c #583318",
"u 	c #683F24",
"v 	c #694025",
"w 	c #5A351A",
"x 	c #643C21",
"y 	c #663E23",
"z 	c #593318",
"A 	c #593419",
"B 	c #5F381D",
"C 	c #613A1F",
"D 	c #5B351A",
"E 	c #583217",
"F 	c #5D371C",
"G 	c #663D23",
"H 	c #653D23",
"I 	c #5E381D",
"J 	c #663F23",
"K 	c #5F381E",
"L 	c #6C4227",
"M 	c #633B20",
"N 	c #5F391E",
"O 	c #5A3319",
"P 	c #653C22",
"Q 	c #6A4025",
"R 	c #593319",
"S 	c #5C351A",
"T 	c #683E23",
"U 	c #5A3419",
"V 	c #60391E",
"W 	c #583319",
"X 	c #623A20",
"Y 	c #5D361C",
"Z 	c #5C361B",
"` 	c #583218",
" .	c #432611",
"..	c #523016",
"+.	c #452712",
"@.	c #4B2A13",
"#.	c #452612",
"$.	c #452713",
"%.	c #5E371C",
"&.	c #673D23",
"*.	c #6B4126",
"=.	c #412512",
"-.	c #5E371D",
";.	c #472913",
">.	c #663D22",
",.	c #4B2B13",
"'.	c #683F25",
").	c #653D22",
"                                                                                                                                                                    ",
"                                                                                                                                                                    ",
"                                                                                                                                                                    ",
"                                                                                                                                                                    ",
"                                                                                                                                                                    ",
"                                                                                                                                                                    ",
"                                                                                                                                                                    ",
"                                                                                                                                                                    ",
"                                        . + @ +                                                                                                                     ",
"                                      # $ % & * = -                                                                                                                 ",
"                                    - ; > , , , ' ) -                                                                                                               ",
"                                    ! ~ , , , , , , { +                                                                                                             ",
"                                  . ] , , , , , , , * -                                                                                                             ",
"                                  ^ & , , , , , , , / (                                                     ( _ (                                                   ",
"                                  . / , , , , , , , : <                                                   [ & ~ } | .                                               ",
"                                    1 ~ , , , , , , ! +                                                 2 3 , , , 4 5                                               ",
"                                    6 7 > , , , ' : -                                                   8 > , , , , 9 +                                             ",
"                                      ( 0 & a a ) (                                                     ! > , , , , | .                                             ",
"                                          b c -                                                         ( d , , , d (                                               ",
"                                                                              . .                         6 ; & ; 6                                                 ",
"                                                                            b e : f                         + + +                                                   ",
"                                                                            2 ~ , | .                                                                               ",
"                                                                            ^ g h @                                                                                 ",
"                                                                                                                                                                    ",
"                                                                                                                                                                    ",
"                                                                                                                                                                    ",
"                                                                                                                                                                    ",
"                                                                                                                                                                    ",
"                                                                                                                                                                    ",
"                                                                                                                                                                    ",
"                            + - _ i @                                                                                                                               ",
"                          @ ! ~ , , * _ .                                                                                                                           ",
"                          j ' , , , , 3 c                                                                                                                           ",
"                        < ~ , , , , , , k                                                                                                                           ",
"                        l ' , , , , , , 7 .                                                                                                                         ",
"                        _ ' , , , , , , m                                                                                                                           ",
"                        ^ & , , , , , ' n                                                                                                                           ",
"                          o & > , ' ~ * @                                                                                                                           ",
"                            l p / * q @                                                                                                                             ",
"                                . .                                                                                                                                 ",
"                                                                                                                              r s                                   ",
"                                                                                                  .                         t u v w                                 ",
"                                                                                                  : 6                         x y z                                 ",
"                                                                                                  5 +                         z A                   B C D           ",
"                                                                                    E z E                                                         F v v G z         ",
"                                                                                  z G v H z                                   z A A t             I v v J A         ",
"                                                                                  K L L L K                               t t t t t t             z C M B           ",
"                                                                                  N L L L N                             t t                         t t t           ",
"                                                                                  O P Q G R                                                                         ",
"                                                              A                       t                                                                     E       ",
"                                                            S T D                                                                                                   ",
"                                                            U x R                                     t K V W                                                       ",
"                                                                                                      w X N D                                                       ",
"                                                                                                      t Y Z t                                                       ",
"                                                                                                                                                                    ",
"                                                                                                                                                                    ",
"                                                                                                                                                                    ",
"                                                                                                                                                                    ",
"                                                                                                                                                                    ",
"                                                                                                                                                                    ",
"                                                                                                                                                                    ",
"                                                                                                                                                                    ",
"                                                                                                                                  E t   E `                         ",
"                                                                                                                                  t t E t `                         ",
"                                                                                                                                        E                           ",
"          - ( ( ( -                                                                                                                                                 ",
"      . 5 h a '  .g 6                                                                                                                                               ",
"      ../ , , , , , +.(                                                                                                                                             ",
"    . @., , , , , , > )                       ` t E                                             E                                                                   ",
"    - #., , , , , , , $.-                   U K M %.A                                                                                                               ",
"    ( 3 , , , , , , , d b                 U &.L L *.x `                                                                                                             ",
"    - +., , , , , , , 7 -               ` %.*.L L L v U                                                                                                             ",
"    + ! ' , , , , , =.k .               ` -.*.L L L v A                                                                                                             ",
"      6 % ~ , , , ~ ;.<                   D u L L *.>.z                                                                                                             ",
"        ( 8 $.+.7 ,.-                       Z G '.).A                                                                                                               ",
"            - ( -                               z                                                                                                                   ",
"                                                              t E                                                                                                   ",
"                                                                    E                                                                                               ",
"                                                                    t                                                                                               ",
"                                                                    t                                                                                               ",
"                                                                                                                                                                    ",
"                                                                                                                                                                    "};
