/* XPM */
static char * wall_xpm[] = {
"80 80 255 2",
"  	c #F2EDF1",
". 	c #F1EDF1",
"+ 	c #F1ECF1",
"@ 	c #F3EFF2",
"# 	c #F1ECF0",
"$ 	c #F7F8FA",
"% 	c #F9FAFB",
"& 	c #FFFFFF",
"* 	c #F9F9FA",
"= 	c #F4F1F5",
"- 	c #FDFEFE",
"; 	c #FDFEFF",
"> 	c #FBFDFF",
", 	c #FAFDFF",
"' 	c #F9FCFF",
") 	c #FCFEFF",
"! 	c #F4F2F6",
"~ 	c #F5F3F6",
"{ 	c #F6FBFF",
"] 	c #F5FAFF",
"^ 	c #F8FCFF",
"/ 	c #FAF9FA",
"( 	c #FEFFFF",
"_ 	c #F6F4F7",
": 	c #F3F0F3",
"< 	c #F9F8FB",
"[ 	c #F6F5F7",
"} 	c #F3EFF3",
"| 	c #F2EEF1",
"1 	c #F1EDF0",
"2 	c #F7FBFF",
"3 	c #FEFEFE",
"4 	c #F8F9FB",
"5 	c #F5F4F7",
"6 	c #F7F7F9",
"7 	c #FBFBFC",
"8 	c #F9FAFD",
"9 	c #FBFBFB",
"0 	c #F4FAFF",
"a 	c #D5F1FF",
"b 	c #FCFDFD",
"c 	c #F3EEF2",
"d 	c #DEF4FF",
"e 	c #E8F7FF",
"f 	c #EFF9FF",
"g 	c #F0F9FF",
"h 	c #F1F9FF",
"i 	c #E7F6FF",
"j 	c #E4F6FF",
"k 	c #F3F1F4",
"l 	c #FAFAFB",
"m 	c #D7F2FF",
"n 	c #F3FAFF",
"o 	c #EEF8FF",
"p 	c #EAF7FF",
"q 	c #D8F2FF",
"r 	c #EDF8FF",
"s 	c #E4F5FF",
"t 	c #DFF4FF",
"u 	c #D4F0FF",
"v 	c #BFDFF4",
"w 	c #AFD1EC",
"x 	c #D1EEFE",
"y 	c #E1F5FF",
"z 	c #B6D7F0",
"A 	c #AFD1ED",
"B 	c #C5D8E7",
"C 	c #BCD3E3",
"D 	c #B9DAF1",
"E 	c #D9F2FF",
"F 	c #D0EDFD",
"G 	c #C7E5F8",
"H 	c #C2E1F6",
"I 	c #C5E4F7",
"J 	c #D3F0FF",
"K 	c #CAE8FA",
"L 	c #B1D3ED",
"M 	c #BFC2C6",
"N 	c #B9B7B8",
"O 	c #C1C0C0",
"P 	c #ABAAAC",
"Q 	c #AAB3BD",
"R 	c #D2EFFE",
"S 	c #E9F7FF",
"T 	c #DDF4FF",
"U 	c #B0D2ED",
"V 	c #B8D9F1",
"W 	c #BEDBF0",
"X 	c #BDBBBC",
"Y 	c #D5D3D4",
"Z 	c #E7E5E6",
"` 	c #DEDCDD",
" .	c #908F93",
"..	c #BEDEF4",
"+.	c #DAF3FF",
"@.	c #E6F6FF",
"#.	c #D9F3FF",
"$.	c #C2DBED",
"%.	c #B3B1B2",
"&.	c #B9BEC2",
"*.	c #BAD9F0",
"=.	c #B5D6EF",
"-.	c #B1D2ED",
";.	c #C8C6C7",
">.	c #A6A5AA",
",.	c #B4C4D0",
"'.	c #D6F2FF",
").	c #D4F1FF",
"!.	c #B4D5EF",
"~.	c #A6A5A7",
"{.	c #D8D6D7",
"].	c #DFDDDE",
"^.	c #D3D1D2",
"/.	c #C7C5C6",
"(.	c #B7B7BA",
"_.	c #B9D8F0",
":.	c #BADAF2",
"<.	c #C8E6F9",
"[.	c #B4D6EF",
"}.	c #BCBCBF",
"|.	c #BAB8B9",
"1.	c #BEBDC1",
"2.	c #919094",
"3.	c #A1A5AC",
"4.	c #E0F4FF",
"5.	c #ECF8FF",
"6.	c #D3EFFE",
"7.	c #B9D9F1",
"8.	c #A7B0B8",
"9.	c #9A999D",
"0.	c #BFBEC1",
"a.	c #B3B2B3",
"b.	c #C0C9D1",
"c.	c #B6D6EF",
"d.	c #B2D3EE",
"e.	c #BEC5CC",
"f.	c #B5B4B4",
"g.	c #D2D0D1",
"h.	c #E3E1E2",
"i.	c #E5E3E4",
"j.	c #D5D3D6",
"k.	c #A09FA3",
"l.	c #BADBF2",
"m.	c #DBF3FF",
"n.	c #FBFCFD",
"o.	c #C0E0F5",
"p.	c #A6ADB5",
"q.	c #9E9DA2",
"r.	c #B4B3B8",
"s.	c #D1CFD0",
"t.	c #C0BEBF",
"u.	c #CECCCD",
"v.	c #E0DEDF",
"w.	c #E2E0E1",
"x.	c #E6E4E5",
"y.	c #A7A7AB",
"z.	c #AFBBC5",
"A.	c #C4E3F7",
"B.	c #9B9DA3",
"C.	c #CFCDCE",
"D.	c #C3C2C2",
"E.	c #B6B4B5",
"F.	c #C4C2C3",
"G.	c #C0D7E9",
"H.	c #C4CFD8",
"I.	c #C4D0D9",
"J.	c #C5D9E7",
"K.	c #C3DCEE",
"L.	c #C4D8E8",
"M.	c #A2A1A5",
"N.	c #A2A2A6",
"O.	c #C3DAEB",
"P.	c #BDDDF3",
"Q.	c #C3E2F6",
"R.	c #DCF3FF",
"S.	c #C1C7CC",
"T.	c #ABAAAB",
"U.	c #969599",
"V.	c #9B9B9F",
"W.	c #AAA8AA",
"X.	c #BEC6CE",
"Y.	c #C4D1DB",
"Z.	c #C2C1C5",
"`.	c #CECCCF",
" +	c #A5A4A8",
".+	c #A9A7AA",
"++	c #BEBCBD",
"@+	c #BBBABE",
"#+	c #B8B6B7",
"$+	c #BFC6CD",
"%+	c #C9E7F9",
"&+	c #C4DBEB",
"*+	c #E2E0E2",
"=+	c #DCDADC",
"-+	c #DBD9DA",
";+	c #C1DBEF",
">+	c #C2DCEE",
",+	c #D9D7D8",
"'+	c #D6D4D6",
")+	c #CAC8CB",
"!+	c #BCBBBF",
"~+	c #BFBDBE",
"{+	c #B3D5EE",
"]+	c #D1EEFD",
"^+	c #E3F5FF",
"/+	c #C2DCEF",
"(+	c #CDCBCF",
"_+	c #C0BFC3",
":+	c #D4D2D4",
"<+	c #D7D6D7",
"[+	c #B5D7F0",
"}+	c #C3DBED",
"|+	c #B7B6BA",
"1+	c #DDDBDC",
"2+	c #BBBEC3",
"3+	c #B2D4EE",
"4+	c #CCE9FB",
"5+	c #C4DAEB",
"6+	c #B4B3B4",
"7+	c #E4E2E3",
"8+	c #C3C2C5",
"9+	c #D0CFD0",
"0+	c #D1CFD2",
"a+	c #DDDBDD",
"b+	c #B8B7BB",
"c+	c #CBCACC",
"d+	c #BBBABF",
"e+	c #B8B7BC",
"f+	c #DAD8D9",
"g+	c #B6B5B9",
"h+	c #B5B4B9",
"i+	c #C2C0C4",
"j+	c #B7B6BB",
"k+	c #DBD9DB",
"l+	c #C1C0C4",
"m+	c #DCDADB",
"n+	c #BBB9BE",
"o+	c #DCDBDC",
"p+	c #C7C6C9",
"q+	c #D9D7D9",
"r+	c #C9C8CB",
"s+	c #DAD8DA",
"t+	c #D7D5D7",
"u+	c #CAC9CC",
"v+	c #BEBCC1",
"w+	c #D5D3D5",
"x+	c #CCCACD",
"y+	c #B9B8BC",
"z+	c #D3D1D3",
"A+	c #C6C4C8",
"B+	c #BFBEC2",
"C+	c #C6C5C8",
"D+	c #BDBCC0",
"E+	c #D0CED0",
"F+	c #C7C5CA",
"                                                                                                                                                                ",
"                                                                                                                                                                ",
"                                                                                                                                                                ",
"                                                                                                                                                                ",
"                                                                                                                                                                ",
"                              . . . .                                                                                                                           ",
"                              .                                                                                                                                 ",
"                              .                                                                                                                                 ",
"                              . .                                                                                                                               ",
"                              + +                                                                                                                               ",
"                                                                                                                                                                ",
"                                                                                                                                                                ",
"                                                                                                                                                                ",
"                                                                                                                                                                ",
"                                                                                                                                                                ",
"                                                                                                                                                                ",
"                                                                                                                                                                ",
"                                                                        @ @ @ #                                                                                 ",
"                                                      $ $ % & & & & & & & & & & & & & & * =                                                                     ",
"                                                      $ $ % & & & & & & & & & & & & & & * =                                                                     ",
"                                                  $ - & & & & & ; ; > , ' ' ' , ) & & & & & !                                                                   ",
"                                          ~ & & & & ) { { ] ] ] ] ] ] ] ] ] ] ] ] ] ] ] { ^ & & & /                                                             ",
"                                      $ & & ^ ^ ] ] ] ] ] ] ] ] ] ] ] ] ] ] ] ] ] ] ] ] ] ] ] ' ' ( & & _ _                                                     ",
"                                  : : & & ^ ] ] ] ] ] ] ] ] ] ] ] ] ] ] ] ] ] ] ] ] ] ] ] ] ] ] ] { ( & & & & < [ } } | | 1                                     ",
"                                  : : & & ^ ] ] ] ] ] ] ] ] ] ] ] ] ] ] ] ] ] ] ] ] ] ] ] ] ] ] ] { ( & & & & < [ } } | | 1                                     ",
"                                & & & { ] ] ] ] ] ] ] ] ] ] ] ] ] ] ] ] ] ] ] ] ] ] ] ] ] ] ] ] ] ] ] ] 2 2 , & & & & & & & & & & & 3 4 4                       ",
"                              5 & , , ] ] ] ] ] ] ] ] ] ] ] ] ] ] ] ] ] ] ] ] ] ] ] ] ] ] ] ] ] ] ] ] ] ] ] ] { 2 ' ' , , , > > ; & & & & 6                     ",
"                            7 & ] ] ] ] ] ] ] ] ] ] ] ] ] ] ] ] ] ] ] ] ] ] ] ] ] ] ] ] ] ] ] ] ] ] ] ] ] ] ] ] ] ] ] ] ] ] ] ] ] ] ] { { & &                   ",
"                            & ^ ] ] ] ] ] ] ] ] ] ] ] ] ] ] ] ] ] ] ] ] ] ] ] ] ] ] ] ] ] ] ] ] ] ] ] ] ] ] ] ] ] ] ] ] ] ] ] ] ] ] ] ] ] 2 ; 8                 ",
"                            & ^ ] ] ] ] ] ] ] ] ] ] ] ] ] ] ] ] ] ] ] ] ] ] ] ] ] ] ] ] ] ] ] ] ] ] ] ] ] ] ] ] ] ] ] ] ] ] ] ] ] ] ] ] ] 2 ; 8                 ",
"                      # 9 9 { ] ] ] ] ] ] ] ] ] ] ] ] ] ] ] ] ] ] ] ] ] ] ] ] ] ] ] ] ] ] ] ] ] ] ] ] ] ] ] 0 a a ] ] ] ] ] ] ] ] ] ] ] ] ] ] ) b b c           ",
"                      $ & & ] ] ] ] ] ] ] ] ] ] ] ] ] ] ] ] ] ] ] ] ] ] ] ] ] ] ] ] ] ] ] ] ] ] ] ] ] ] ] ] d a a e e ] ] ] ] ] ] ] ] ] ] ] ] { & & -           ",
"                      ( { { ] ] ] ] ] ] ] ] ] ] ] ] ] ] ] ] ] ] ] ] ] ] ] ] ] ] ] ] ] ] ] ] ] ] ] ] ] ] a a a a a a a ] ] ] ] ] ] ] ] ] ] ] ] ] { { > & 8       ",
"                      ] ] ] ] ] ] ] ] ] ] ] ] ] ] ] ] ] ] ] ] ] ] ] ] ] ] ] ] ] ] ] ] ] ] ] ] ] ] ] ] d a a a a a a a f ] ] ] ] ] ] ] ] ] ] ] ] ] ] ] { ; 6 6   ",
"                      ] ] ] ] ] ] ] ] ] ] ] ] ] ] ] ] ] ] ] ] ] ] ] ] ] ] ] ] ] ] ] ] ] ] ] ] ] ] ] ] d a a a a a a a f ] ] ] ] ] ] ] ] ] ] ] ] ] ] ] { ; 6 6   ",
"                    @ ] ] ] ] ] ] ] ] ] ] ] ] ] ] g h ] ] ] ] ] ] ] ] ] ] ] ] ] ] ] ] ] ] ] ] ] ] ] i a a a a a a a a j ] ] ] ] ] ] ] ] ] ] ] ] ] ] ] ] { & & k ",
"                  # l ] ] ] ] ] ] ] ] ] ] ] m m a a a a a a n ] ] ] ] ] ] ] ] ] ] ] ] ] ] ] ] ] ] ] a a a a a a a a a a o ] ] ] ] ] ] ] ] ] ] ] ] ] ] ] ] ^ ^ & ",
"                  6 ( ] ] ] ] ] ] ] ] ] ] p a a a a a a a a q r ] ] ] ] ] ] ] ] ] ] ] ] ] ] ] ] ] j a a a a a a a a a a s ] ] ] ] ] ] ] ] ] ] ] ] ] ] ] ] ] ] > ",
"              c c ( { ] ] ] ] ] ] ] ] ] 0 a a a a a a a a a a a t t ] ] ] ] ] ] ] ] ] ] ] ] ] m m a a a u u v w w x x a a ] ] ] ] ] ] ] ] ] ] ] ] ] ] ] ] ] ] ] ",
"              c c ( { ] ] ] ] ] ] ] ] ] 0 a a a a a a a a a a a t t ] ] ] ] ] ] ] ] ] ] ] ] ] m m a a a u u v w w x x a a ] ] ] ] ] ] ] ] ] ] ] ] ] ] ] ] ] ] ] ",
"              8 8 ^ ] ] ] ] ] ] ] ] ] ] y a a a a a a a a a a a a a g ] ] ] ] ] ] ] ] ] ] ] n a a a a a z z A B C D D a a ] ] ] ] ] ] ] ] ] ] ] ] ] ] ] ] ] ] ] ",
"            4 ) ) ] ] ] ] ] ] ] ] ] ] E a a a a a F G H H I J a a a a a n ] ] ] ] ] ] ] ] h a a a a K L M M N O P Q Q R a e ] ] ] ] ] ] ] ] ] ] ] ] ] ] ] ] ] ] ",
"          $ & { { S T ] ] ] ] ] ] ] ] a a a a a K w w w w w U V R R a a q e e ] ] ] ] ] p m a a a a U W X X Y Z `  . ...a +.] ] ] ] ] ] ] ] ] ] ] ] ] ] ] ] ] ] ",
"        _ ( { 0 0 a a @.] ] ] ] n #.#.a a u U U $.%.%.%.%.%.%.&.*.*.w =.R a a a a a a a a a a =.=.-.N ;.Z Z Z Z Z >.>.,.=.a q q ] ] ] ] ] ] ] ] ] ] ] ] ] ] ] ] ",
"        _ ( { 0 0 a a @.] ] ] ] n #.#.a a u U U $.%.%.%.%.%.%.&.*.*.w =.R a a a a a a a a a a =.=.-.N ;.Z Z Z Z Z >.>.,.=.a q q ] ] ] ] ] ] ] ] ] ] ] ] ] ] ] ] ",
"    3 3 & ] ] '.'.a a a '.'.h h a a a a ).!. . .~.{.].].].].^./.%.%.%.(._.w w L :.G <.<...[.U }.}.|.Z Z Z Z Z Z Z 1.1.2.3.F a a 4.0 ] ] ] ] r a a a a 5.] ] ] ] ",
"  : & & ^ ] ] a a a a a a a a a a a a 6.7.8.9.9.0.].].].].].].].^.^.a.%.%.b.b.c.w w w w w d.e.f.f.g.h.i.Z Z Z Z Z j.j.k. .l.a a a q 5.5.5.m.a a a a a T ] ] ] ] ",
"n.& ] ] ] ] j a a a a a a a a a R o.o.=.p.q.r.r.r.].].].].].].].].].].].s.t.t.%.%.%.%.%.%.%.u.].].].].].].].].v.w.x.x.r.y.z.L L a a a a a a a a a a a a r ] ] ] ",
"& > ] ] ] 0 m a a R ....A.A.K I -.w w B. .r.r.r.r.].].].].].].].].].].].].].].C.D.E.E.E.F.s.].].].].].].].].].].].].].r.r. .G.G.<.a a a a a a a a a a a @.] ] ] ",
"& > ] ] ] 0 m a a R ....A.A.K I -.w w B. .r.r.r.r.].].].].].].].].].].].].].].C.D.E.E.E.F.s.].].].].].].].].].].].].].r.r. .G.G.<.a a a a a a a a a a a @.] ] ] ",
"{ ] ] ] ] q a a a c.H.I.J.J.K.L. . . .M.r.r.r.r.r.].].].].].].].].].].].].].].].].].].].].].].].].].].].].].].].].].].r.r.N. . .O.U =.P.P.Q.I a a a a a R.] ] ] ",
"] ] ] ] ] a a P.P.S.N N N N N T. .U.U.r.r.r.r.r.r.].].].].].].].].].].].].].].].].].].].].].].].].].].].].].].].].].].r.r.r.V.V.W.X.d.w w w w [.a a a a '.] ] ] ",
"] ] r r m a Q.Y.Y.F.x.Z Z Z Z Z.r.r.r.r.r.r.r.r.r.`.].].].].].].].].].].].].].].].].].].].].].].].].].].].].].].].].].r.r.r.r.r. +.+%.%.%.%.%.(.V V a a a ] ] ] ",
"] ] r r m a Q.Y.Y.F.x.Z Z Z Z Z.r.r.r.r.r.r.r.r.r.`.].].].].].].].].].].].].].].].].].].].].].].].].].].].].].].].].].r.r.r.r.r. +.+%.%.%.%.%.(.V V a a a ] ] ] ",
"d '.a a a U J.++++Z Z Z Z Z x.r.r.r.r.r.r.r.r.r.r.@+].].].].].].].].].].].].].].].].].].].].].].].].].].].].].].].].].r.r.r.r.r.r.r.].].].].` #+$+$+=.a a 0 0 ] ",
"a a a a %+&+N ].].Z Z Z Z Z *+r.r.r.r.r.r.r.r.r.r.r.=+].].].].].].].].].].].].].].].].].].].].].].].].].].].].].].].].r.r.r.r.r.r.r.` ].].].].-+%.%.;+a a S S ] ",
"a a U U >+|.,+Z Z Z Z Z Z Z '+r.r.r.r.r.r.r.r.r.r.r.)+].].].].].].].].].].].].].].].].].].].].].].].].].].].].].].].].r.r.r.r.r.r.r.!+].].].].].~+~+%.{+]+a a ^+",
"a %+/+/+N Y Z Z Z Z Z Z Z Z (+r.r.r.r.r.r.r.r.r.r.r._+].].].].].].].].].].].].].].].].].].].].].].].].].].].].].].].].r.r.r.r.r.r.r.r.:+:+].].].<+<+a.W [+a a a ",
"a %+/+/+N Y Z Z Z Z Z Z Z Z (+r.r.r.r.r.r.r.r.r.r.r._+].].].].].].].].].].].].].].].].].].].].].].].].].].].].].].].].r.r.r.r.r.r.r.r.:+:+].].].<+<+a.W [+a a a ",
"A }+N N s.Z Z Z Z Z Z Z Z Z |+r.r.r.r.r.r.r.r.r.r.r.r.].].].].].].].].].].].].].].].].].].].].].].].].].].].].].].].].r.r.r.r.r.r.r.r.r.r.].].].].].1+%.2+3+3+4+",
"5+N C.C.Z Z Z Z Z Z Z Z Z Z r.r.r.r.r.r.r.r.r.r.r.r.r.].].].].].].].].].].].].].].].].].].].].].].].].].].].].].].].].r.r.r.r.r.r.r.r.r.r.].].].].].].6+%.*.*.U ",
"N s.Z Z Z Z Z Z Z Z 7+].].].8+r.r.r.r.r.r.r.r.r.r.r.r.].].].].].].].].].].].].].].].].].].].].].].].].].].].].].].].].r.r.r.r.r.r.r.r.r.r.)+].].].].].].9+%.%.%.",
"Y Z Z Z Z Z Z x.x.v.].].].].0+r.r.r.r.r.r.r.r.r.r.r.r.a+a+].].].].].].].].].].].].].].].].].].].].].].].].].].].].].].r.r.r.r.r.r.r.r.r.r.b+` ].].].].].].E.E.%.",
"Y Z Z Z Z Z Z x.x.v.].].].].0+r.r.r.r.r.r.r.r.r.r.r.r.a+a+].].].].].].].].].].].].].].].].].].].].].].].].].].].].].].r.r.r.r.r.r.r.r.r.r.b+` ].].].].].].E.E.%.",
"Z Z Z Z x.v.].].].].].].].].].Z.r.r.r.r.r.r.r.r.r.r.r.c+c+].].].].].].].].].].].].].].].].].].].].].].].].].].].].].].r.r.r.r.r.r.r.r.r.r.r.d+].].].].].].].].].",
"h.v.].].].].].].].].].].].].].a+r.r.r.r.r.r.r.r.r.r.r.e+e+].].].].].].].].].].].].].].].].].].].].].].].].].].].].].].r.r.r.r.r.r.r.r.r.r.r.r.].].].].].].].].].",
"].].].].].].].].].].].].].].].].r.r.r.r.r.r.r.r.r.r.r.r.r.f+].].].].].].].].].].].].].].].].].].].].].].].].].].].` ` r.r.r.r.r.r.r.r.r.r.r.r.<+].].].].].].].].",
"].].].].].].].].].].].].].].].].g+r.r.r.r.r.r.r.r.r.r.r.r.r.].].].].].].].].].].].].].].].].].].].].].].].].].].].1+1+r.r.r.r.r.r.r.r.r.r.r.r.h+].].].].].].].].",
"].].].].].].].].].].].].].].].].g+r.r.r.r.r.r.r.r.r.r.r.r.r.].].].].].].].].].].].].].].].].].].].].].].].].].].].1+1+r.r.r.r.r.r.r.r.r.r.r.r.h+].].].].].].].].",
"].].].].].].].].].].].].].].].].i+r.r.r.r.r.r.r.r.r.r.r.r.r.0+].].].].].].].].].].].].].].].].].].].].].].].].].].=+=+r.r.r.r.r.r.r.r.r.r.r.r.r.].].].].].].].].",
"].].].].].].].].].].].].].].].].1+h+h+r.r.r.r.r.r.r.r.r.r.r.r.j+].].].].].].].].].].].].].].].].].].].].].].].].].k+k+r.r.r.r.r.r.r.r.r.r.r.r.r.`.`.].].].].].].",
"].].].].].].].].].].].].].].].].].l+l+r.r.r.r.r.r.r.r.r.r.r.r.r.m+m+].].].].].].].].].].].].].].].].].].].].].].].-+-+r.r.r.r.r.r.r.r.r.r.r.r.r.n+n+].].].].].].",
"].].].].].].].].].].].].].].].].].o+o+r.r.r.r.r.r.r.r.r.r.r.r.r.r.r.].].].].].].].].].].].].].].].].].].].].].].].f+f+r.r.r.r.r.r.r.r.r.r.r.r.r.r.r.e+1+].].].].",
"].].].].].].].].].].].].].].].].].o+o+r.r.r.r.r.r.r.r.r.r.r.r.r.r.r.].].].].].].].].].].].].].].].].].].].].].].].f+f+r.r.r.r.r.r.r.r.r.r.r.r.r.r.r.e+1+].].].].",
"].].].].].].].].].].].].].].].].].].].r.r.r.r.r.r.r.r.r.r.r.r.r.r.r.p+].].].].].].].].].].].].].].].].].].].].].].q+q+r.r.r.r.r.r.r.r.r.r.r.r.r.r.r.r.j+r+].].].",
"].].].].].].].].].].].].].].].].s+:+:+r.r.r.r.r.r.r.r.r.r.r.r.r.r.r.r.h+].].].].].].].].].].].].].].].].].].].].].0+0+r.r.r.r.r.r.r.r.r.r.r.r.r.r.r.r.r.r.r.r.h+",
"].].].].].` t+u+u+v+j+r.r.r.r.r.r.r.r.r.r.r.r.r.r.r.r.r.r.r.r.r.r.r.r.r.e+f+f+].].].].].].].].].].].w+x+y+y+r.r.r.r.r.r.r.r.r.r.r.r.r.r.r.r.r.r.r.r.r.r.r.r.r.r.",
"q+z+A+A+B+r.r.r.r.r.r.r.r.r.r.r.r.r.r.r.r.r.r.r.r.r.r.r.r.r.r.r.r.r.r.r.r.@+@+].].].].].].].q+C+C+D+r.r.r.r.r.r.r.r.r.r.r.r.r.r.r.r.r.r.r.r.r.r.r.r.r.r.r.r.r.r.",
"q+z+A+A+B+r.r.r.r.r.r.r.r.r.r.r.r.r.r.r.r.r.r.r.r.r.r.r.r.r.r.r.r.r.r.r.r.@+@+].].].].].].].q+C+C+D+r.r.r.r.r.r.r.r.r.r.r.r.r.r.r.r.r.r.r.r.r.r.r.r.r.r.r.r.r.r.",
"_+_+_+_+_+_+_+_+_+_+_+_+_+_+_+_+_+_+_+_+_+_+_+_+_+_+_+_+_+_+_+_+_+_+_+_+_+_+_+E+=+F+_+_+_+_+_+_+_+_+_+_+_+_+_+_+_+_+_+_+_+_+_+_+_+_+_+_+_+_+_+_+_+_+_+_+_+_+_+_+"};
