/* XPM */
static char * wallT_xpm[] = {
"80 80 302 2",
"  	c #6C4227",
". 	c #6C4126",
"+ 	c #693F24",
"@ 	c #6B4126",
"# 	c #6E4428",
"$ 	c #7C4D31",
"% 	c #7F4F33",
"& 	c #75482D",
"* 	c #683F24",
"= 	c #593418",
"- 	c #573217",
"; 	c #633B20",
"> 	c #835235",
", 	c #885639",
"' 	c #75482C",
") 	c #5A3419",
"! 	c #704429",
"~ 	c #7D4E32",
"{ 	c #643C21",
"] 	c #6D4327",
"^ 	c #875538",
"/ 	c #7A4C2F",
"( 	c #683F23",
"_ 	c #6A4025",
": 	c #6C4226",
"< 	c #865437",
"[ 	c #805033",
"} 	c #6D4328",
"| 	c #673E23",
"1 	c #583318",
"2 	c #61391E",
"3 	c #704528",
"4 	c #845336",
"5 	c #7F5033",
"6 	c #6B4125",
"7 	c #6E4328",
"8 	c #7A4C30",
"9 	c #694025",
"0 	c #6D4227",
"a 	c #855437",
"b 	c #7A4B2F",
"c 	c #6B4025",
"d 	c #794B2F",
"e 	c #73462B",
"f 	c #784A2E",
"g 	c #6F4328",
"h 	c #6F4428",
"i 	c #794A2E",
"j 	c #885638",
"k 	c #825135",
"l 	c #7B4D30",
"m 	c #815134",
"n 	c #865538",
"o 	c #76492C",
"p 	c #74482C",
"q 	c #74472C",
"r 	c #704529",
"s 	c #77492D",
"t 	c #76492D",
"u 	c #714529",
"v 	c #7E4F32",
"w 	c #7D4E31",
"x 	c #72462A",
"y 	c #73472B",
"z 	c #7D4D31",
"A 	c #865438",
"B 	c #805034",
"C 	c #825235",
"D 	c #71462A",
"E 	c #72462B",
"F 	c #7E5035",
"G 	c #784C32",
"H 	c #734830",
"I 	c #6F462E",
"J 	c #6D452E",
"K 	c #6D452D",
"L 	c #6E462E",
"M 	c #71472F",
"N 	c #825236",
"O 	c #764A31",
"P 	c #6E452E",
"Q 	c #6F4429",
"R 	c #7D4F34",
"S 	c #6F4830",
"T 	c #93847B",
"U 	c #A9A9AB",
"V 	c #B0B9C0",
"W 	c #B2BCC3",
"X 	c #ABADB1",
"Y 	c #9E9693",
"Z 	c #845337",
"` 	c #744930",
" .	c #7F6453",
"..	c #B5C2CC",
"+.	c #BAD7ED",
"@.	c #B1D3ED",
"#.	c #AFD1EC",
"$.	c #7C4E34",
"%.	c #876E61",
"&.	c #BBD3E4",
"*.	c #B0D2ED",
"=.	c #B7D8F0",
"-.	c #BCDCF3",
";.	c #BEDEF4",
">.	c #BFDFF4",
",.	c #B9DAF1",
"'.	c #734930",
").	c #B7C6D1",
"!.	c #B3D4EE",
"~.	c #C1E0F5",
"{.	c #CCEAFB",
"].	c #D4F1FF",
"^.	c #D5F1FF",
"/.	c #94867E",
"(.	c #B8D7EE",
"_.	c #B4D5EF",
":.	c #C7E5F8",
"<.	c #714A33",
"[.	c #B8C9D6",
"}.	c #C2E1F6",
"|.	c #D4F0FF",
"1.	c #7B4E33",
"2.	c #978A82",
"3.	c #B7D7EF",
"4.	c #B6D7F0",
"5.	c #CEEBFC",
"6.	c #D6F2FF",
"7.	c #DDF4FF",
"8.	c #E3F5FF",
"9.	c #E5F6FF",
"0.	c #E4F6FF",
"a.	c #DFF4FF",
"b.	c #D8F2FF",
"c.	c #734D38",
"d.	c #B9CCDA",
"e.	c #C2E2F6",
"f.	c #D7F2FF",
"g.	c #F2FAFF",
"h.	c #F5FAFF",
"i.	c #988D86",
"j.	c #CFECFC",
"k.	c #D6F1FF",
"l.	c #E0F4FE",
"m.	c #F2F9FE",
"n.	c #F5F9FE",
"o.	c #835236",
"p.	c #724830",
"q.	c #B9CDDB",
"r.	c #C3E2F7",
"s.	c #D9F2FE",
"t.	c #EBF6FE",
"u.	c #F5F9FD",
"v.	c #F5F8FD",
"w.	c #F5F7FC",
"x.	c #D6F1FE",
"y.	c #D7F1FE",
"z.	c #E1F3FE",
"A.	c #F4F8FD",
"B.	c #F4F7FC",
"C.	c #F4F6FB",
"D.	c #7B4D33",
"E.	c #C4E3F7",
"F.	c #EAF6FE",
"G.	c #F4F8FC",
"H.	c #F4F7FB",
"I.	c #F4F6FA",
"J.	c #F4F5FA",
"K.	c #F4F4F9",
"L.	c #7F5035",
"M.	c #815136",
"N.	c #B7D8F1",
"O.	c #D8F1FE",
"P.	c #E0F3FD",
"Q.	c #F2F7FD",
"R.	c #F4F5F9",
"S.	c #F4F3F8",
"T.	c #F3F3F8",
"U.	c #F3F3F7",
"V.	c #70472F",
"W.	c #7C5F4C",
"X.	c #BBD2E3",
"Y.	c #DAF1FD",
"Z.	c #E9F5FD",
"`.	c #F3F2F7",
" +	c #F3F1F6",
".+	c #F3F1F5",
"++	c #6D462E",
"@+	c #6D462F",
"#+	c #6E462F",
"$+	c #704A33",
"%+	c #B2BDC5",
"&+	c #B4D4EE",
"*+	c #B0D1EC",
"=+	c #BAD9F1",
"-+	c #D1EDFD",
";+	c #D9F1FD",
">+	c #E0F2FD",
",+	c #F0F7FC",
"'+	c #F4F4F8",
")+	c #F3F2F6",
"!+	c #F3F0F5",
"~+	c #F3F0F4",
"{+	c #F3EFF4",
"]+	c #6E4730",
"^+	c #6E4731",
"/+	c #6E4831",
"(+	c #6F4832",
"_+	c #6F4933",
":+	c #6F4934",
"<+	c #704A36",
"[+	c #775644",
"}+	c #B2BAC1",
"|+	c #B8D7EF",
"1+	c #B1D2EC",
"2+	c #B4D5EE",
"3+	c #C8E5F8",
"4+	c #D9F0FD",
"5+	c #DBF1FD",
"6+	c #E9F4FC",
"7+	c #F2F0F4",
"8+	c #F2EFF3",
"9+	c #F2EEF2",
"0+	c #BBD8EC",
"a+	c #B9C9D6",
"b+	c #ABACAE",
"c+	c #A39B98",
"d+	c #A6A2A1",
"e+	c #B5BEC6",
"f+	c #BED6E8",
"g+	c #B6D5EE",
"h+	c #B4D3EC",
"i+	c #B5D4ED",
"j+	c #C3E0F5",
"k+	c #D6EFFD",
"l+	c #DAF0FD",
"m+	c #DBF0FC",
"n+	c #E1F2FC",
"o+	c #F0F6FB",
"p+	c #F2EDF2",
"q+	c #B5D3EC",
"r+	c #B6D4EC",
"s+	c #B7D4EC",
"t+	c #BAD6ED",
"u+	c #C5E0F4",
"v+	c #D5EDFC",
"w+	c #DBF0FD",
"x+	c #DCF0FC",
"y+	c #DDF0FC",
"z+	c #DEF1FB",
"A+	c #EAF3FB",
"B+	c #F3EFF3",
"C+	c #F2EEF3",
"D+	c #F2EDF1",
"E+	c #D0E9FA",
"F+	c #C9E3F5",
"G+	c #C5DEF3",
"H+	c #C3DDF1",
"I+	c #C5DDF2",
"J+	c #C9E1F3",
"K+	c #D0E8F8",
"L+	c #D9EFFC",
"M+	c #DDF0FB",
"N+	c #DEF0FB",
"O+	c #DFF0FB",
"P+	c #E5F2FA",
"Q+	c #F1F4FA",
"R+	c #DFF0FA",
"S+	c #E0F0FA",
"T+	c #E1EFF9",
"U+	c #E4F0F9",
"V+	c #EDF3F9",
"W+	c #E1EFFA",
"X+	c #E2EFF9",
"Y+	c #E3EFF9",
"Z+	c #E4EFF8",
"`+	c #E4F0F8",
" @	c #EBF1F8",
".@	c #F2F3F7",
"+@	c #E3EFF8",
"@@	c #E5EFF8",
"#@	c #E6EFF7",
"$@	c #E7EFF7",
"%@	c #EBF0F7",
"&@	c #F2F2F7",
"*@	c #EDF2F8",
"=@	c #E7F0F8",
"-@	c #E8EEF6",
";@	c #EAEFF6",
">@	c #EEF0F6",
",@	c #F2F1F5",
"'@	c #F1F1F6",
")@	c #EFF0F6",
"!@	c #EEF0F5",
"~@	c #EFF0F5",
"{@	c #F1F0F5",
"]@	c #F4F1F4",
"^@	c #F4F0F4",
"/@	c #F3EEF2",
"(@	c #F4F0F3",
"_@	c #F4EFF3",
":@	c #F3EFF2",
"<@	c #F2EEF1",
"                                                                                                                                                                ",
"                                                                                                                                                                ",
"              . + @                                     # $ % &                                     & % $ #                                     @ + .           ",
"            * = - - ;                                   > , , , '                                 ' , , , >                                   ; - - = *         ",
"            ) - - - - *                               ! , , , , ~                                 ~ , , , , !                               * - - - - )         ",
"          @ - - - - - {                               ] ^ , , , /                                 / , , , ^ ]                               { - - - - - @       ",
"            ) - - - - (                   @ _ . . _ :   & < , [ }               @ @               } [ , < &   : _ . . _ @                   ( - - - - )         ",
"            | 1 - - 2                 _ 3 4 , , , , 5 6     7                 _ 8 8 _                 7     6 5 , , , , 4 3 _                 2 - - 1 |         ",
"              @ | 9               . 0 a , , , , , , , , b _                 c 4 , , 4 c                 _ b , , , , , , , , a 0 .               9 | @           ",
"                                _ d , , , , , , , , , , , , e _         _ ' , , , , , , ' _         _ e , , , , , , , , , , , , d _                             ",
"                              _ 4 , , , , , , , , , , , , , , , f g h i j , , , , , , , , j i h g f , , , , , , , , , , , , , , , 4 _                           ",
"                            : ^ , , , , , , , , , , , , , , , , , , , , , , , , , , , , , , , , , , , , , , , , , , , , , , , , , , ^ :                         ",
"                          h , , , , , , , , , , , , , , , , , , , , , , , , , , , , , , , , , , , , , , , , , , , , , , , , , , , , , , h                       ",
"              d 8     @ e , , , , , k l l m , , , , , , , , , , , , , , , , , , , , , , , , , , , , , , , , , , , , , , m l l k , , , , , e @     8 d           ",
"              < n   @ o , , , , ^ p         q n , , , , , , , , , , , , , , , , , , , , , , , , , , , , , , , , , , n q         p ^ , , , , o @   n <           ",
"              r r @ s , , , , , t             p , , , , , , , , , , , , , , , , , , , , , , , , , , , , , , , , , , p             t , , , , , s @ r r           ",
"                : ' , , , , , 4                 > , , , , , , , , , , , , , , , , , , , , , , , , , , , , , , , , >                 4 , , , , , ' :             ",
":               u , , , , , , v                 w , , , , , , , , , , , , , , , , , , , , , , , , , , , , , , , , w                 v , , , , , , u             ",
"8 _           : , , , , , , , v                 ~ , , , , , , , , , , , , , , , , , , , , , , , , , , , , , , , , ~                 v , , , , , , , :           ",
", , 5 ' x y z , , , , , , , , a                 4 , , , , , , , , , , , , , , , , , , , , , , , , , , , , , , , , 4                 a , , , , , , , , z y x ' 5 ",
", , , , , , , , , , , , , , , , d             f , , , , , , , , , , , , , A d 8 ^ ^ 8 d A , , , , , , , , , , , , , f             d , , , , , , , , , , , , , , ",
", , , , , , , , , , , , , , , , , d 0     0 d j , , , , , , , , , , , , , t     f f     t , , , , , , , , , , , , , j d 0     0 d , , , , , , , , , , , , , , , ",
", , , , , , , , , , , , , , , , , , A B [ < , , , , , , , , , , , , , , , q     t t     q , , , , , , , , , , , , , , , < [ B A , , , , , , , , , , , , , , , , ",
", , , , , , , , , , , , , , , , , , , , , , , , , , , , , , , , , , , , , C D E 4 4 E D C , , , , , , , , , , , , , , , , , , , , , , , , , , , , , , , , , , , ",
", , , , , , , , , , , , , , , , , , , , , , , , , , , , , , , , , , , , , , , , , , , , , , , , , , , , , , , , , , , , , , , , , , , , , , , , , , , , , , , , ",
", , , , , , , , , , , , , , , , , , , , , , , , , , , , , , , , , , , , , , , , , , , , , , , , , , , , , , , , , , , , , , , , , , , , , , , , , , , , , , , , ",
", , , , , , , , , , , , , , , , , , , , , , , , , , , , , , , , , , , , , , , , , , , , , , , , , , , , , , , , , , , , , , , , , , , , , , , , , , , , , , , , ",
", , , , , , , , , , , , , , , , , , , , , , , , , , , , , , , , , , , , , , , , , , , , , , , , , , , , , , , , , , , , , , , , , , , , , , , , , , , , , , , , ",
", , , , , , , , , , , , , , , , , , , , , , , , , , , , , , , , , , , , , , , , , , , , , , , , , , , , , , , , , , , , , , , , , , , , , , , , , , , , , , , , ",
", , , , , , , , , , , , , , , , , , , , , , , , , , , , , , , , , , , , , , ^ , , , , ^ , , , , , , , , , , , , , , , , , , , , , , , , , , , , , , , , , , , , ",
", , , , , , , , , , , , , , , , , , , , , , , , , , , , , , , n F G H I J K K L M M L K K J I H G F n , , , , , , , , , , , , , , , , , , , , , , , , , , , , , ",
"4 v ^ , , , , , , , , , , , , , , , , , , , , , , , , , , N O P K K K K K K K K K K K K K K K K K K P O N , , , , , , , , , , , , , , , , , , , , , , , , , , ^ ",
"Q   f , , , , , , , , , , , , , , , , , , , , , , , , a O K K K K K K K K K K K K K K K K K K K K K K K K O a , , , , , , , , , , , , , , , , , , , , , , , , f ",
"r   d , , , , , , , , , , , , , , , , , , , , , , , R L K K K K K S T U V W W X Y Y X W W V U T S K K K K K L R , , , , , , , , , , , , , , , , , , , , , , , d ",
"< m , , , , , , , , , , , , , , , , , , , , , , Z ` K K K K  ...+.@.#.#.#.#.#.#.#.#.#.#.#.#.#.#.@.+... .K K K K ` Z , , , , , , , , , , , , , , , , , , , , , , ",
", , , , , , , , , , , , , , , , , , , , , , , $.P K K K %.&.@.#.#.*.=.-.;.>.>.-.,.,.-.>.>.;.-.=.*.#.#.@.&.%.K K K P $., , , , , , , , , , , , , , , , , , , , , ",
", , , , , , , , , , , , , , , , , , , , , Z '.K K K S ).@.#.!.~.{.].^.^.^.^.^.^.^.^.^.^.^.^.^.^.].{.~.!.#.@.).S K K K '.Z , , , , , , , , , , , , , , , , , , , ",
", , , , , , , , , , , , , , , , , , , , $.P K K K /.(.#._.:.].^.^.^.^.^.^.^.^.^.^.^.^.^.^.^.^.^.^.^.^.].:._.#.(./.K K K P $., , , , , , , , , , , , , , , , , , ",
", , , , , , , , , , , , , , , , , , Z H K K K <.[.*.*.}.|.^.^.^.^.^.^.^.^.^.^.^.^.^.^.^.^.^.^.^.^.^.^.^.^.|.}.*.*.[.<.K K K H Z , , , , , , , , , , , , , , , , ",
", , , , , , , , , , , , , , , , , 1.P K K K 2.3.#.4.5.^.^.^.^.^.^.^.6.7.8.9.0.a.b.b.a.0.9.8.7.6.^.^.^.^.^.^.^.5.4.#.3.2.K K K P 1., , , , , , , , , , , , , , , ",
", , , , , , , , , , , , , , , Z H K K K c.d.*.*.e.^.^.^.^.^.^.^.f.9.g.h.h.h.h.h.h.h.h.h.h.h.h.g.9.f.^.^.^.^.^.^.^.e.*.*.d.c.K K K H Z , , , , , , , , , , , , , ",
", , , , , , , , , , , , , ^ 1.P K K K i.3.#.=.j.^.^.^.^.^.k.k.l.m.n.n.n.n.n.n.n.n.n.n.n.n.n.n.n.n.m.l.k.k.^.^.^.^.^.j.=.#.3.i.K K K P 1.^ , , , , , , , , , , , ",
", , , , , , , , , , , , o.p.K K K c.q.*.*.r.^.^.^.^.k.k.k.s.t.n.n.n.u.v.v.v.v.v.w.w.v.v.v.v.v.u.n.n.n.t.s.k.k.k.^.^.^.^.r.*.*.q.c.K K K p.o., , , , , , , , , , ",
", , , , , , , , , , A G J K K K i.3.#.=.j.^.^.^.^.k.x.y.z.m.u.v.v.A.A.B.B.C.C.C.C.C.C.C.C.B.B.A.A.v.v.u.m.z.y.x.k.^.^.^.^.j.=.#.3.i.K K K J G A , , , , , , , , ",
", , , , , , , , n D.L K K K c.q.*.*.E.^.^.^.^.k.x.y.s.F.v.v.G.B.B.H.H.I.J.J.J.K.K.K.K.J.J.J.I.H.H.B.B.G.v.v.F.s.y.x.k.^.^.^.^.E.*.*.q.c.K K K L D.n , , , , , , ",
"L.A , , , ^ M.G L K K K K Y 3.#.N.j.^.^.^.k.x.y.O.P.Q.A.B.B.H.C.I.J.R.K.K.S.T.U.U.U.U.T.S.K.K.R.J.I.C.H.B.B.A.Q.P.O.y.x.k.^.^.^.j.N.#.3.Y K K K K L G M.^ , , , ",
"K K I M V.J K K K K K W.X.*.*.E.^.^.^.k.x.y.O.Y.Z.G.B.H.C.I.J.R.K.S.S.`.`. + +.+.+.+.+ + +`.`.S.S.K.R.J.I.C.H.B.G.Z.Y.O.y.x.k.^.^.^.E.*.*.X.W.K K K K K J V.M I ",
"K K K J J J ++@+#+$+%+&+*+=+-+k.k.k.y.y.O.;+>+,+B.C.I.J.R.K.'+U.`.)+ +.+!+~+~+~+{+{+~+~+~+!+.+ +)+`.U.'+K.R.J.I.C.B.,+>+;+O.y.y.k.k.k.-+=+*+&+%+$+#+@+++J J J K ",
"]+^+/+(+_+:+<+[+}+|+1+2+3+x.y.y.y.O.;+4+5+6+B.C.I.J.R.'+T.U.)+ +.+!+~+7+8+8+8+9+9+9+9+8+8+8+7+~+!+.+ +)+U.T.'+R.J.I.C.B.6+5+4+;+O.y.y.y.x.3+2+1+|+}+[+<+:+_+(+/+",
"0+a+b+c+d+e+f+g+h+i+j+k+O.O.O.4+l+l+m+n+o+C.J.R.K.'+U.`.)+ +.+~+{+8+8+9+9+9+9+9+p+p+9+9+9+9+9+8+8+{+~+.+ +)+`.U.'+K.R.J.C.o+n+m+l+l+4+O.O.O.k+j+i+h+g+f+e+d+c+b+",
"h+h+q+q+r+s+s+t+u+v+4+l+l+w+m+x+y+z+A+I.J.K.'+T.U.`.)+.+.+~+{+B+C+9+9+9+p+D+D+D+D+D+D+D+D+p+9+9+9+C+B+{+~+.+.+)+`.U.T.'+K.J.I.A+z+y+x+m+w+l+l+4+v+u+t+s+s+r+q+q+",
"E+F+G+H+I+J+K+L+m+x+x+y+M+N+N+O+P+Q+R.K.'+U.`.)+ +.+!+~+B+8+C+9+9+9+D+D+D+D+D+D+D+D+D+D+D+D+D+D+9+9+9+C+8+B+~+!+.+ +)+`.U.'+K.R.Q+P+O+N+N+M+y+x+x+m+L+K+J+I+H+G+",
"m+x+x+y+y+M+N+N+N+O+R+S+S+T+U+V+'+T.U.U.`.)+.+.+~+~+B+8+C+9+9+9+D+D+D+D+D+D+D+D+D+D+D+D+D+D+D+D+D+D+9+9+9+C+8+B+~+~+.+.+)+`.U.U.T.'+V+U+T+S+S+R+O+N+N+N+M+y+y+x+",
"N+N+R+R+S+W+W+T+X+X+Y+Z+`+ @.@U.`.)+)+.+.+!+~+~+8+8+C+9+9+9+D+D+D+D+D+D+D+D+D+D+D+D+D+D+D+D+D+D+D+D+D+D+9+9+9+C+8+8+~+~+!+.+.+)+)+`.U..@ @`+Z+Y+X+X+T+W+W+S+R+R+",
"W+X+X+Y++@Z+@@@@@@#@$@%@&@)+)+ +.+.+!+~+~+B+8+8+9+9+9+9+D+D+D+D+D+D+D+D+D+D+D+D+D+D+D+D+D+D+D+D+D+D+D+D+D+D+9+9+9+9+8+8+B+~+~+!+.+.+ +)+)+&@%@$@#@@@@@@@Z++@Y+X+",
"*@=@#@#@$@$@-@-@;@>@,@.+.+!+!+~+~+{+8+8+8+C+9+9+9+9+D+D+D+D+D+D+D+D+D+D+D+D+D+D+D+D+D+D+D+D+D+D+D+D+D+D+D+D+D+D+9+9+9+9+C+8+8+8+{+~+~+!+!+.+.+,@>@;@-@-@$@$@#@#@",
"`.)+'@)@!@!@~@{@.+]@]@^@^@~+B+B+B+B+/@9+9+9+9+9+D+D+D+D+D+D+D+D+D+D+D+D+D+D+D+D+D+D+D+D+D+D+D+D+D+D+D+D+D+D+D+D+D+D+9+9+9+9+9+/@B+B+B+B+~+^@^@]@]@.+{@~@!@!@)@'@",
".+.+!+~+^@^@^@(@(@(@(@_@_@B+:@:@/@/@/@/@/@<@D+D+D+D+D+D+D+D+D+D+D+D+D+D+D+D+D+D+D+D+D+D+D+D+D+D+D+D+D+D+D+D+D+D+D+D+D+D+<@/@/@/@/@/@:@:@B+_@_@(@(@(@(@^@^@^@~+!+",
"~+^@(@(@(@_@_@B+:@:@/@/@/@/@/@/@/@<@<@D+D+D+D+D+D+D+D+D+D+D+D+D+D+D+D+D+D+D+D+D+D+D+D+D+D+D+D+D+D+D+D+D+D+D+D+D+D+D+D+D+D+D+D+<@<@/@/@/@/@/@/@/@:@:@B+_@_@(@(@(@",
"(@_@:@:@:@/@/@/@/@/@/@9+<@<@D+D+D+D+D+D+D+D+D+D+D+D+D+D+D+D+D+D+D+D+D+D+D+D+D+D+D+D+D+D+D+D+D+D+D+D+D+D+D+D+D+D+D+D+D+D+D+D+D+D+D+D+D+D+<@<@9+/@/@/@/@/@/@:@:@:@",
":@/@/@/@/@9+<@<@D+D+D+D+D+D+D+D+D+D+D+D+D+D+D+D+D+D+D+D+D+D+D+D+D+D+D+D+D+D+D+D+D+D+D+D+D+D+D+D+D+D+D+D+D+D+D+D+D+D+D+D+D+D+D+D+D+D+D+D+D+D+D+D+D+D+<@<@9+/@/@/@",
"/@9+<@D+D+D+D+D+D+D+D+D+D+D+D+D+D+D+D+D+D+D+D+D+D+D+D+D+D+D+D+D+D+D+D+D+D+D+D+D+D+D+D+D+D+D+D+D+D+D+D+D+D+D+D+D+D+D+D+D+D+D+D+D+D+D+D+D+D+D+D+D+D+D+D+D+D+D+D+<@",
"D+D+D+D+D+D+D+D+D+D+D+D+D+D+D+D+D+D+D+D+D+D+D+D+D+D+D+D+D+D+D+D+D+D+D+D+D+D+D+D+D+D+D+D+D+D+D+D+D+D+D+D+D+D+D+D+D+D+D+D+D+D+D+D+D+D+D+D+D+D+D+D+D+D+D+D+D+D+D+D+",
"D+D+D+D+D+D+D+D+D+D+D+D+D+D+D+D+D+D+D+D+D+D+D+D+D+D+D+D+D+D+D+D+D+D+D+D+D+D+D+D+D+D+D+D+D+D+D+D+D+D+D+D+D+D+D+D+D+D+D+D+D+D+D+D+D+D+D+D+D+D+D+D+D+D+D+D+D+D+D+D+",
"D+D+D+D+D+D+D+D+D+D+D+D+D+D+D+D+D+D+D+D+D+D+D+D+D+D+D+D+D+D+D+D+D+D+D+D+D+D+D+D+D+D+D+D+D+D+D+D+D+D+D+D+D+D+D+D+D+D+D+D+D+D+D+D+D+D+D+D+D+D+D+D+D+D+D+D+D+D+D+D+",
"D+D+D+D+D+D+D+D+D+D+D+D+D+D+D+D+D+D+D+D+D+D+D+D+D+D+D+D+D+D+D+D+D+D+D+D+D+D+D+D+D+D+D+D+D+D+D+D+D+D+D+D+D+D+D+D+D+D+D+D+D+D+D+D+D+D+D+D+D+D+D+D+D+D+D+D+D+D+D+D+",
"D+D+D+D+D+D+D+D+D+D+D+D+D+D+D+D+D+D+D+D+D+D+D+D+D+D+D+D+D+D+D+D+D+D+D+D+D+D+D+D+D+D+D+D+D+D+D+D+D+D+D+D+D+D+D+D+D+D+D+D+D+D+D+D+D+D+D+D+D+D+D+D+D+D+D+D+D+D+D+D+",
"D+D+D+D+D+D+D+D+D+D+D+D+D+D+D+D+D+D+D+D+D+D+D+D+D+D+D+D+D+D+D+D+D+D+D+D+D+D+D+D+D+D+D+D+D+D+D+D+D+D+D+D+D+D+D+D+D+D+D+D+D+D+D+D+D+D+D+D+D+D+D+D+D+D+D+D+D+D+D+D+",
"D+D+D+D+D+D+D+D+D+D+D+D+D+D+D+D+D+D+D+D+D+D+D+D+D+D+D+D+D+D+D+D+D+D+D+D+D+D+D+D+D+D+D+D+D+D+D+D+D+D+D+D+D+D+D+D+D+D+D+D+D+D+D+D+D+D+D+D+D+D+D+D+D+D+D+D+D+D+D+D+",
"D+D+D+D+D+D+D+D+D+D+D+D+D+D+D+D+D+D+D+D+D+D+D+D+D+D+D+D+D+D+D+D+D+D+D+D+D+D+D+D+D+D+D+D+D+D+D+D+D+D+D+D+D+D+D+D+D+D+D+D+D+D+D+D+D+D+D+D+D+D+D+D+D+D+D+D+D+D+D+D+",
"D+D+D+D+D+D+D+D+D+D+D+D+D+D+D+D+D+D+D+D+D+D+D+D+D+D+D+D+D+D+D+D+D+D+D+D+D+D+D+D+D+D+D+D+D+D+D+D+D+D+D+D+D+D+D+D+D+D+D+D+D+D+D+D+D+D+D+D+D+D+D+D+D+D+D+D+D+D+D+D+",
"D+D+D+D+D+D+D+D+D+D+D+D+D+D+D+D+D+D+D+D+D+D+D+D+D+D+D+D+D+D+D+D+D+D+D+D+D+D+D+D+D+D+D+D+D+D+D+D+D+D+D+D+D+D+D+D+D+D+D+D+D+D+D+D+D+D+D+D+D+D+D+D+D+D+D+D+D+D+D+D+",
"D+D+D+D+D+D+D+D+D+D+D+D+D+D+D+D+D+D+D+D+D+D+D+D+D+D+D+D+D+D+D+D+D+D+D+D+D+D+D+D+D+D+D+D+D+D+D+D+D+D+D+D+D+D+D+D+D+D+D+D+D+D+D+D+D+D+D+D+D+D+D+D+D+D+D+D+D+D+D+D+",
"D+D+D+D+D+D+D+D+D+D+D+D+D+D+D+D+D+D+D+D+D+D+D+D+D+D+D+D+D+D+D+D+D+D+D+D+D+D+D+D+D+D+D+D+D+D+D+D+D+D+D+D+D+D+D+D+D+D+D+D+D+D+D+D+D+D+D+D+D+D+D+D+D+D+D+D+D+D+D+D+",
"D+D+D+D+D+D+D+D+D+D+D+D+D+D+D+D+D+D+D+D+D+D+D+D+D+D+D+D+D+D+D+D+D+D+D+D+D+D+D+D+D+D+D+D+D+D+D+D+D+D+D+D+D+D+D+D+D+D+D+D+D+D+D+D+D+D+D+D+D+D+D+D+D+D+D+D+D+D+D+D+",
"D+D+D+D+D+D+D+D+D+D+D+D+D+D+D+D+D+D+D+D+D+D+D+D+D+D+D+D+D+D+D+D+D+D+D+D+D+D+D+D+D+D+D+D+D+D+D+D+D+D+D+D+D+D+D+D+D+D+D+D+D+D+D+D+D+D+D+D+D+D+D+D+D+D+D+D+D+D+D+D+",
"D+D+D+D+D+D+D+D+D+D+D+D+D+D+D+D+D+D+D+D+D+D+D+D+D+D+D+D+D+D+D+D+D+D+D+D+D+D+D+D+D+D+D+D+D+D+D+D+D+D+D+D+D+D+D+D+D+D+D+D+D+D+D+D+D+D+D+D+D+D+D+D+D+D+D+D+D+D+D+D+",
"D+D+D+D+D+D+D+D+D+D+D+D+D+D+D+D+D+D+D+D+D+D+D+D+D+D+D+D+D+D+D+D+D+D+D+D+D+D+D+D+D+D+D+D+D+D+D+D+D+D+D+D+D+D+D+D+D+D+D+D+D+D+D+D+D+D+D+D+D+D+D+D+D+D+D+D+D+D+D+D+",
"D+D+D+D+D+D+D+D+D+D+D+D+D+D+D+D+D+D+D+D+D+D+D+D+D+D+D+D+D+D+D+D+D+D+D+D+D+D+D+D+D+D+D+D+D+D+D+D+D+D+D+D+D+D+D+D+D+D+D+D+D+D+D+D+D+D+D+D+D+D+D+D+D+D+D+D+D+D+D+D+",
"D+D+D+D+D+D+D+D+D+D+D+D+D+D+D+D+D+D+D+D+D+D+D+D+D+D+D+D+D+D+D+D+D+D+D+D+D+D+D+D+D+D+D+D+D+D+D+D+D+D+D+D+D+D+D+D+D+D+D+D+D+D+D+D+D+D+D+D+D+D+D+D+D+D+D+D+D+D+D+D+"};
