/* XPM */
static char * wallbis3_xpm[] = {
"82 82 108 2",
"  	c #573217",
". 	c #563117",
"+ 	c #553116",
"@ 	c #543016",
"# 	c #563217",
"$ 	c #533016",
"% 	c #4C2B14",
"& 	c #452712",
"* 	c #422612",
"= 	c #452612",
"- 	c #4B2A13",
"; 	c #523016",
"> 	c #472813",
", 	c #402411",
"' 	c #3F2411",
") 	c #442712",
"! 	c #522F16",
"~ 	c #4A2A14",
"{ 	c #412511",
"] 	c #4A2A13",
"^ 	c #452713",
"/ 	c #422512",
"( 	c #452812",
"_ 	c #432611",
": 	c #4B2B13",
"< 	c #4A2B13",
"[ 	c #472913",
"} 	c #412512",
"| 	c #402511",
"1 	c #543116",
"2 	c #4B2B14",
"3 	c #442612",
"4 	c #492A13",
"5 	c #553016",
"6 	c #563116",
"7 	c #522F15",
"8 	c #502E15",
"9 	c #4F2D15",
"0 	c #432612",
"a 	c #4A2B14",
"b 	c #553117",
"c 	c #482A13",
"d 	c #462813",
"e 	c #533015",
"f 	c #4C2C14",
"g 	c #4B2A14",
"h 	c #452813",
"i 	c #482913",
"j 	c #553017",
"k 	c #583218",
"l 	c #4E2C14",
"m 	c #472812",
"n 	c #532F16",
"o 	c #492913",
"p 	c #4F2D14",
"q 	c #5B351A",
"r 	c #5E371D",
"s 	c #5E371C",
"t 	c #5A3419",
"u 	c #5C361B",
"v 	c #683F24",
"w 	c #6B4126",
"x 	c #673D23",
"y 	c #663D23",
"z 	c #6C4227",
"A 	c #5F381E",
"B 	c #593318",
"C 	c #683F25",
"D 	c #633B20",
"E 	c #583318",
"F 	c #502E14",
"G 	c #653D22",
"H 	c #583217",
"I 	c #462812",
"J 	c #593419",
"K 	c #663D22",
"L 	c #694025",
"M 	c #643C21",
"N 	c #4E2D14",
"O 	c #5C351A",
"P 	c #683E23",
"Q 	c #593319",
"R 	c #512E15",
"S 	c #482912",
"T 	c #5A3319",
"U 	c #5F391E",
"V 	c #4E2D15",
"W 	c #543017",
"X 	c #653C22",
"Y 	c #6A4025",
"Z 	c #653D23",
"` 	c #5A351A",
" .	c #5D361C",
"..	c #623A20",
"+.	c #60391E",
"@.	c #4D2C15",
"#.	c #583319",
"$.	c #422611",
"%.	c #412611",
"&.	c #4E2C15",
"*.	c #5B361A",
"=.	c #663E23",
"-.	c #5D361B",
";.	c #5E381D",
">.	c #5D371C",
",.	c #613A1F",
"'.	c #5F381D",
").	c #663F23",
"                                                                                                                                                                    ",
"                                                                                                                                                                    ",
"                  . + @ + #                                                                                                                                         ",
"                $ % & * = - ; #                                                                                                                                     ",
"              @ > , ' ' ' ' ) !                                                                                                                                     ",
"              ~ { ' ' ' ' ' ' ] +                                                                                                                                   ",
"            + ^ ' ' ' ' ' ' ' / @                                                                                                                                   ",
"            @ & ' ' ' ' ' ' ' , @                                                                                                                                   ",
"            + ( ' ' ' ' ' ' ' _ @                                                                                                                                   ",
"              : { ' ' ' ' ' ' < +                                                                                                                                   ",
"              + [ } ' ' ' | & $                                                                                                                                     ",
"                1 2 ( 3 ^ 4 @                                                                                                                                       ",
"                  # + 5 +                                                                 6 7 8 1                                                                   ",
"                                                                                        9 0 , , { a b                                                               ",
"                                                                                      8 0 ' ' ' ' , % .                                                             ",
"                                                                                      c | ' ' ' ' ' { +                                                             ",
"                                                                                    # ) ' ' ' ' ' ' ' 7                                                             ",
"                                                                                    # d , ' ' ' ' ' ' e                               # 6 #                         ",
"                                                                                      f { ' ' ' ' ' d b                           $ g ) 0 h % +                     ",
"                                                                                      b d , ' ' ' * 7                           @ ( { ' ' ' { i j                   ",
"                  k k                                                                   b l m ( 2 n #                           o | ' ' ' ' ' | p #                 ",
"                q r s t                                                                       #                               5 0 ' ' ' ' ' ' ' > .                 ",
"              u v w w x t                                                                                                     n / ' ' ' ' ' ' ' 0 b                 ",
"              y z z z z A k                                                                                                   + / ' ' ' ' ' ' ' d .                 ",
"            B C z z z z D E                                                                                                     4 , ' ' ' ' ' , F                   ",
"              G w z z w s H                                                                                                     @ I ' ' ' ' ' 4 +                   ",
"              J K L L M J                                                                                                         + % I ) d N +                     ",
"                B J t k                                                                                                             . 1 @ + .                       ",
"                                                                                                                                                                    ",
"                                                                                                                                                                    ",
"                                                            t O                                                                                                     ",
"          E                                                 M P J                                                                                                   ",
"          H                                                 Q q                                                                                                     ",
"                                                                                                                                                                    ",
"    E E H                                                                                                                                                           ",
"                                                                                                                                                                    ",
"                                                                                                                                                                    ",
"                                                                                                                                                                    ",
"                                                                                                                      6 R 5                                         ",
"                                                                                                                      < { S #                                       ",
"                                                                                                                      ] ' I #                                       ",
"                                                                  T U A B                                             b V W                                         ",
"                                                                  X z z y H                                             #                                           ",
"                                                                E Y z z L B                                                                                         ",
"                                                                  y z z Z H                                                                                         ",
"                                                                  Q U A B                                                                                           ",
"                                                                                                                                                                    ",
"                                                                                                                                                                    ",
"                          H                                                                                                                                         ",
"                                                                            ! I #                                                                                   ",
"                                                                            . $                                                                                     ",
"                                                        E ` E                                                                                                       ",
"                                                         ...A                                                                 @ % ~ R                               ",
"                                                        u U +.                                                              $ 3 | | * @.                            ",
"                                                        E q #.                                                            . i ' ' ' ' 0 @                           ",
"                                                                                                                          . 0 ' ' ' ' { 7                           ",
"                                                                                                                          . i ' ' ' ' $.@                           ",
"                                                                                                                            $ 3 ' ' %.V                             ",
"                                                                                                                              @ V &.! #                             ",
"                                                                                                                                # .                                 ",
"                                                                    E                                                                                               ",
"                                                                    E E                                                                                             ",
"                                                                      E         E                                                                                   ",
"                                                                      E B   B M v *.                                                                                ",
"                                                                      E J   J =.L -.                                                                                ",
"                                    E H                               E J     B `                                                                                   ",
"                                    E E                               E E                                                                                           ",
"                                    H                                                                                                                               ",
"                                  H E H                                                                                                                             ",
"                                    k k                                                                                                                             ",
"                                                                                                                                                                    ",
"                                                                                                                                                                    ",
"                                                                                                                                                                    ",
"                                                                      B ;.>.                                                                                        ",
"                                                                    E ,.L L '.                                                                                      ",
"                                                                    E D L L ,.                                                                                      ",
"                                                                    E '.).y q                                                                                       ",
"                                                                        J B                                                                                         ",
"                                                                H                                                                                                   ",
"                                                                                                                                                                    ",
"                                                                                                                                                                    ",
"                                                                                                                                                                    "};
